<svg id="egm_logo_svg" xmlns="http://www.w3.org/2000/svg" viewBox="0 0 666.4 139.65"><defs><style>.G{fill:#474c55;}.R{fill:#cd163f;}</style></defs><rect class="G" y="0.67" width="125.25" height="16.86"/><rect class="R" y="34.39" width="125.25" height="16.86"/><rect class="R" y="68.11" width="125.25" height="16.86"/><rect class="R" x="142.12" y="0.67" width="125.25" height="16.86"/><polygon class="R" points="192.62 34.39 192.62 51.25 250.62 51.25 250.62 68.11 142.12 68.11 142.12 84.97 267.37 84.97 267.37 34.39 192.62 34.39"/><path class="R" d="M291.25.61h24.38V7.75H299.57v4.59h14.55V19H299.57v4.8h16.28v7.15h-24.6Z"/><path class="R" d="M321.66.61h7.84l12.47,16V.61h8.31V30.92h-7.36L330,14.29V30.92h-8.31Z"/><path class="R" d="M356,15.85v-.09C356,6.93,363,0,372.37,0a17.7,17.7,0,0,1,12.3,4.42l-4.94,5.93a10.68,10.68,0,0,0-7.32-2.86c-4.37,0-7.75,3.68-7.75,8.32v.08a8,8,0,0,0,8.23,8.4A8.59,8.59,0,0,0,377.74,23V19.36h-6V13.21h13.95V26.85a20.53,20.53,0,0,1-13.17,4.68C363.1,31.53,356,25,356,15.85Z"/><path class="R" d="M392,.61h8.45V30.92H392Z"/><path class="R" d="M407.41.61h7.84l12.47,16V.61H436V30.92h-7.37L415.72,14.29V30.92h-8.31Z"/><path class="R" d="M442.84.61h24.38V7.75H451.15v4.59H465.7V19H451.15v4.8h16.28v7.15H442.84Z"/><path class="R" d="M473.24.61h24.38V7.75H481.55v4.59h14.56V19H481.55v4.8h16.29v7.15h-24.6Z"/><path class="R" d="M503.56.61h14.33c4.64,0,7.84,1.21,9.87,3.29A9.38,9.38,0,0,1,530.45,11V11a9.58,9.58,0,0,1-6.24,9.31l7.24,10.57h-9.7l-6.11-9.18H512v9.18h-8.4ZM517.5,15.16c2.86,0,4.51-1.39,4.51-3.6v-.08c0-2.39-1.74-3.6-4.55-3.6H512v7.28Z"/><path class="R" d="M534.35,26.42,539,20.83a15.63,15.63,0,0,0,9.83,3.64c2.25,0,3.46-.78,3.46-2.08V22.3c0-1.25-1-1.95-5.11-2.9-6.45-1.47-11.43-3.29-11.43-9.53V9.79c0-5.63,4.46-9.7,11.74-9.7a19.08,19.08,0,0,1,12.47,4l-4.2,5.94a15.21,15.21,0,0,0-8.49-3c-2,0-3,.86-3,2v.08c0,1.39,1,2,5.24,2.95,7,1.51,11.3,3.77,11.3,9.44v.09c0,6.19-4.89,9.87-12.25,9.87A21.22,21.22,0,0,1,534.35,26.42Z"/><path class="G" d="M291.25,108.73h8.88l7.23,11.74,7.24-11.74h8.87V139h-8.36v-17.4l-7.75,11.86h-.17l-7.71-11.78V139h-8.23Z"/><path class="G" d="M340.76,108.52h8.09L361.76,139h-9l-2.21-5.41H338.85L336.69,139h-8.84Zm7.36,18.57-3.38-8.61-3.42,8.61Z"/><path class="G" d="M366.14,108.73H374l12.47,16v-16h8.31V139H387.4l-12.95-16.62V139h-8.31Z"/><path class="G" d="M401,108.73h8.45V139H401Z"/><path class="G" d="M424,116.09h-9.1v-7.36h26.59v7.36H432.4V139H424Z"/><path class="G" d="M444.27,124v-.09c0-8.71,7-15.76,16.37-15.76s16.28,7,16.28,15.67v.09c0,8.7-7,15.76-16.37,15.76S444.27,132.68,444.27,124Zm24.07,0v-.09c0-4.38-3.16-8.19-7.79-8.19s-7.67,3.73-7.67,8.1v.09a7.87,7.87,0,0,0,7.76,8.18C465.27,132.07,468.34,128.35,468.34,124Z"/><path class="G" d="M482.64,108.73h15.55c3.81,0,6.49,1,8.27,2.73a6.64,6.64,0,0,1,2,4.89v.09c0,3.51-2,5.59-4.68,6.76,3.68,1.21,6,3.29,6,7.4v.09c0,5.19-4.25,8.35-11.48,8.35H482.64Zm13.47,12.08c2.55,0,4-.86,4-2.64v-.08c0-1.65-1.3-2.6-3.81-2.6h-5.46v5.32Zm1.21,11.48c2.55,0,4-1,4-2.77v-.09c0-1.64-1.3-2.73-4.12-2.73h-6.41v5.59Z"/><path class="G" d="M525.51,108.52h8.1L546.52,139h-9l-2.21-5.41H523.61L521.44,139h-8.83Zm7.37,18.57-3.38-8.61-3.42,8.61Z"/><path class="R" d="M290.21,69.91v-.08c0-8.84,6.93-15.77,16.33-15.77a17.7,17.7,0,0,1,12.3,4.42l-4.94,5.93a10.72,10.72,0,0,0-7.32-2.85c-4.37,0-7.75,3.68-7.75,8.31V70a8,8,0,0,0,8.23,8.4,8.51,8.51,0,0,0,4.85-1.26V73.42h-6V67.27h13.95V80.91a20.53,20.53,0,0,1-13.17,4.68C297.27,85.59,290.21,79.09,290.21,69.91Z"/><path class="R" d="M326,54.67h24.38v7.15H334.3v4.59h14.55V73H334.3v4.81h16.29V85H326Z"/><path class="R" d="M355.14,69.91v-.08c0-8.71,7-15.77,16.36-15.77s16.29,7,16.29,15.68v.09c0,8.7-7,15.76-16.37,15.76S355.14,78.62,355.14,69.91Zm24.07,0v-.08c0-4.38-3.16-8.19-7.79-8.19s-7.67,3.73-7.67,8.1v.09c0,4.37,3.16,8.18,7.75,8.18S379.21,74.29,379.21,69.91Z"/><path class="R" d="M391.08,80.48l4.68-5.59a15.57,15.57,0,0,0,9.83,3.64c2.25,0,3.47-.78,3.47-2.08v-.08c0-1.26-1-2-5.11-2.91-6.46-1.47-11.44-3.29-11.44-9.52v-.09c0-5.63,4.46-9.7,11.74-9.7a19.09,19.09,0,0,1,12.47,4l-4.2,5.93a15.19,15.19,0,0,0-8.49-3c-2,0-3,.87-3,2v.09c0,1.38,1,2,5.24,2.94,7,1.52,11.3,3.77,11.3,9.44v.09c0,6.19-4.89,9.87-12.25,9.87A21.22,21.22,0,0,1,391.08,80.48Z"/><path class="R" d="M421.79,69.91v-.08a15.58,15.58,0,0,1,16-15.77c6.19,0,10.18,2.6,12.86,6.33l-6.32,4.89c-1.73-2.16-3.73-3.55-6.63-3.55-4.24,0-7.23,3.59-7.23,8v.09c0,4.54,3,8.1,7.23,8.1,3.16,0,5-1.48,6.85-3.69l6.32,4.51a16,16,0,0,1-29.06-8.84Z"/><path class="R" d="M456,54.67h8.45V85H456Z"/><path class="R" d="M471.47,54.67h24.38v7.15H479.78v4.59h14.55V73H479.78v4.81h16.28V85H471.47Z"/><path class="R" d="M502,54.67h7.83l12.48,16v-16h8.31V85h-7.36l-13-16.63V85H502Z"/><path class="R" d="M544.92,62h-9.1V54.67h26.59V62h-9.09V85h-8.4Z"/><path class="R" d="M567.74,54.67h8.45V85h-8.45Z"/><path class="R" d="M581,80.48l4.68-5.59a15.55,15.55,0,0,0,9.83,3.64c2.25,0,3.46-.78,3.46-2.08v-.08c0-1.26-1-2-5.11-2.91-6.45-1.47-11.43-3.29-11.43-9.52v-.09c0-5.63,4.46-9.7,11.73-9.7a19.12,19.12,0,0,1,12.48,4l-4.21,5.93a15.18,15.18,0,0,0-8.48-3c-2,0-3,.87-3,2v.09c0,1.38,1,2,5.24,2.94,7,1.52,11.3,3.77,11.3,9.44v.09c0,6.19-4.9,9.87-12.26,9.87A21.18,21.18,0,0,1,581,80.48Z"/><path class="R" d="M619.93,62h-9.09V54.67h26.59V62h-9.1V85h-8.4Z"/><path class="R" d="M639.94,80.48l4.68-5.59a15.57,15.57,0,0,0,9.83,3.64c2.25,0,3.46-.78,3.46-2.08v-.08c0-1.26-1-2-5.11-2.91-6.45-1.47-11.43-3.29-11.43-9.52v-.09c0-5.63,4.46-9.7,11.74-9.7a19.09,19.09,0,0,1,12.47,4l-4.2,5.93a15.24,15.24,0,0,0-8.49-3c-2,0-3,.87-3,2v.09c0,1.38,1,2,5.24,2.94,7,1.52,11.3,3.77,11.3,9.44v.09c0,6.19-4.89,9.87-12.26,9.87A21.18,21.18,0,0,1,639.94,80.48Z"/></svg>