<?xml version="1.0" encoding="UTF-8"?><svg id="a" xmlns="http://www.w3.org/2000/svg" width="5in" height="5in" viewBox="0 0 360 360"><path d="m180,0C80.59,0,0,80.59,0,180s80.59,180,180,180,180-80.59,180-180S279.41,0,180,0Zm40,300.08c0,7.36-5.97,13.33-13.33,13.33h-53.33c-7.36,0-13.33-5.97-13.33-13.33v-26.67h80v26.67Zm36.67-106.93c-11.88,16.51-21.48,34.54-28.57,53.6h-96.17c-7.01-18.97-16.55-36.91-28.37-53.33-11.02-15.6-16.93-34.23-16.9-53.33-.09-51.55,41.62-93.41,93.17-93.5,51.55-.09,93.41,41.62,93.5,93.17.03,19.08-5.78,37.72-16.67,53.39Zm-106.38-32.67h35.39l-18.98,37.92c-3.67,7.34-.71,16.26,6.63,19.93,0,0,.01,0,.02,0,2.07,1.01,4.34,1.55,6.65,1.56,5.63,0,10.78-3.17,13.3-8.21l29.71-59.42c3.67-7.34.7-16.26-6.64-19.93-2.07-1.03-4.35-1.57-6.66-1.57h-35.39l18.98-37.92c3.67-7.34.7-16.27-6.65-19.94-7.34-3.67-16.27-.7-19.94,6.65l-29.71,59.42c-3.67,7.34-.7,16.26,6.64,19.93,2.07,1.03,4.35,1.57,6.66,1.57Z" stroke-width="0"/></svg>