<?xml version="1.0" encoding="UTF-8"?><svg id="a" xmlns="http://www.w3.org/2000/svg" width="5in" height="5in" viewBox="0 0 360 360"><path d="m180,0C80.59,0,0,80.59,0,180s80.59,180,180,180,180-80.59,180-180S279.41,0,180,0Zm143.92,204.32c-10.27,61.25-58.33,109.31-119.59,119.59-.32.05-.64.08-.97.08-1.37,0-2.71-.48-3.77-1.38-1.31-1.11-2.07-2.74-2.07-4.46v-3.87c0-9.66-7.86-17.52-17.52-17.52s-17.52,7.86-17.52,17.52v3.87c0,1.72-.75,3.35-2.07,4.46-1.31,1.12-3.05,1.59-4.74,1.3-61.25-10.28-109.32-58.34-119.6-119.59-.28-1.69.19-3.43,1.3-4.74,1.11-1.31,2.74-2.07,4.46-2.07h3.86c9.66,0,17.52-7.86,17.52-17.52s-7.86-17.52-17.52-17.52h-3.86c-1.72,0-3.35-.75-4.46-2.07-1.11-1.31-1.58-3.04-1.3-4.74,10.28-61.25,58.35-109.32,119.6-119.59,1.69-.29,3.42.19,4.74,1.3,1.31,1.11,2.07,2.74,2.07,4.46v3.87c0,9.66,7.86,17.52,17.52,17.52s17.52-7.86,17.52-17.52v-3.87c0-1.72.75-3.35,2.07-4.46,1.31-1.12,3.04-1.58,4.74-1.3,61.25,10.28,109.32,58.34,119.59,119.59.28,1.69-.19,3.43-1.3,4.74-1.11,1.31-2.74,2.07-4.46,2.07h-3.87c-9.66,0-17.52,7.86-17.52,17.52s7.86,17.52,17.52,17.52h3.87c1.72,0,3.35.75,4.45,2.07,1.11,1.31,1.58,3.04,1.3,4.74Zm-38.81-24.32c0-15.02,11.41-27.43,26.01-29.03-11.2-50.96-51.13-90.88-102.09-102.09-1.59,14.6-14,26.01-29.03,26.01s-27.43-11.41-29.03-26.01c-50.96,11.2-90.88,51.13-102.09,102.09,14.61,1.59,26.02,14,26.02,29.03s-11.41,27.43-26.02,29.03c11.21,50.96,51.13,90.88,102.09,102.09,1.59-14.6,14-26.01,29.03-26.01s27.43,11.41,29.03,26.01c50.96-11.2,90.88-51.13,102.09-102.09-14.61-1.59-26.01-14-26.01-29.03ZM104.1,115.77c0-3.22,2.62-5.84,5.84-5.84s5.84,2.62,5.84,5.84v17.52c0,3.22-2.62,5.84-5.84,5.84s-5.84-2.62-5.84-5.84v-17.52Zm0,110.94c0-3.22,2.62-5.84,5.84-5.84s5.84,2.62,5.84,5.84v17.52c0,3.22-2.62,5.84-5.84,5.84s-5.84-2.62-5.84-5.84v-17.52Zm29.19,46.71h-23.36c-3.22,0-5.84-2.62-5.84-5.84s2.62-5.84,5.84-5.84h23.36c3.22,0,5.84,2.62,5.84,5.84s-2.62,5.84-5.84,5.84Zm5.84-29.19c0,3.22-2.62,5.84-5.84,5.84s-5.84-2.62-5.84-5.84v-17.52c0-3.22,2.62-5.84,5.84-5.84s5.84,2.62,5.84,5.84v17.52Zm-5.84-46.71h-23.36c-3.22,0-5.84-2.62-5.84-5.84s2.62-5.84,5.84-5.84h23.36c3.22,0,5.84,2.62,5.84,5.84s-2.62,5.84-5.84,5.84Zm0-23.36h-23.36c-3.22,0-5.84-2.62-5.84-5.84s2.62-5.84,5.84-5.84h23.36c3.22,0,5.84,2.62,5.84,5.84s-2.62,5.84-5.84,5.84Zm5.84-40.87c0,3.22-2.62,5.84-5.84,5.84s-5.84-2.62-5.84-5.84v-17.52c0-3.22,2.62-5.84,5.84-5.84s5.84,2.62,5.84,5.84v17.52Zm-5.84-35.03h-23.36c-3.22,0-5.84-2.62-5.84-5.84s2.62-5.84,5.84-5.84h23.36c3.22,0,5.84,2.62,5.84,5.84s-2.62,5.84-5.84,5.84Zm29.19,17.52c0-3.22,2.62-5.84,5.84-5.84s5.84,2.62,5.84,5.84v17.52c0,3.22-2.62,5.84-5.84,5.84s-5.84-2.62-5.84-5.84v-17.52Zm0,110.94c0-3.22,2.62-5.84,5.84-5.84s5.84,2.62,5.84,5.84v17.52c0,3.22-2.62,5.84-5.84,5.84s-5.84-2.62-5.84-5.84v-17.52Zm29.19,46.71h-23.36c-3.22,0-5.84-2.62-5.84-5.84s2.62-5.84,5.84-5.84h23.36c3.22,0,5.84,2.62,5.84,5.84s-2.62,5.84-5.84,5.84Zm5.84-29.19c0,3.22-2.62,5.84-5.84,5.84s-5.84-2.62-5.84-5.84v-17.52c0-3.22,2.62-5.84,5.84-5.84s5.84,2.62,5.84,5.84v17.52Zm-5.84-46.71h-23.36c-3.22,0-5.84-2.62-5.84-5.84s2.62-5.84,5.84-5.84h23.36c3.22,0,5.84,2.62,5.84,5.84s-2.62,5.84-5.84,5.84Zm0-23.36h-23.36c-3.22,0-5.84-2.62-5.84-5.84s2.62-5.84,5.84-5.84h23.36c3.22,0,5.84,2.62,5.84,5.84s-2.62,5.84-5.84,5.84Zm5.84-40.87c0,3.22-2.62,5.84-5.84,5.84s-5.84-2.62-5.84-5.84v-17.52c0-3.22,2.62-5.84,5.84-5.84s5.84,2.62,5.84,5.84v17.52Zm-5.84-35.03h-23.36c-3.22,0-5.84-2.62-5.84-5.84s2.62-5.84,5.84-5.84h23.36c3.22,0,5.84,2.62,5.84,5.84s-2.62,5.84-5.84,5.84Zm29.19,17.52c0-3.22,2.62-5.84,5.84-5.84s5.84,2.62,5.84,5.84v17.52c0,3.22-2.62,5.84-5.84,5.84s-5.84-2.62-5.84-5.84v-17.52Zm0,110.94c0-3.22,2.62-5.84,5.84-5.84s5.84,2.62,5.84,5.84v17.52c0,3.22-2.62,5.84-5.84,5.84s-5.84-2.62-5.84-5.84v-17.52Zm29.19,46.71h-23.36c-3.22,0-5.84-2.62-5.84-5.84s2.62-5.84,5.84-5.84h23.36c3.22,0,5.84,2.62,5.84,5.84s-2.62,5.84-5.84,5.84Zm5.84-29.19c0,3.22-2.62,5.84-5.84,5.84s-5.84-2.62-5.84-5.84v-17.52c0-3.22,2.62-5.84,5.84-5.84s5.84,2.62,5.84,5.84v17.52Zm-5.84-46.71h-23.36c-3.22,0-5.84-2.62-5.84-5.84s2.62-5.84,5.84-5.84h23.36c3.22,0,5.84,2.62,5.84,5.84s-2.62,5.84-5.84,5.84Zm0-23.36h-23.36c-3.22,0-5.84-2.62-5.84-5.84s2.62-5.84,5.84-5.84h23.36c3.22,0,5.84,2.62,5.84,5.84s-2.62,5.84-5.84,5.84Zm5.84-40.87c0,3.22-2.62,5.84-5.84,5.84s-5.84-2.62-5.84-5.84v-17.52c0-3.22,2.62-5.84,5.84-5.84s5.84,2.62,5.84,5.84v17.52Zm-5.84-35.03h-23.36c-3.22,0-5.84-2.62-5.84-5.84s2.62-5.84,5.84-5.84h23.36c3.22,0,5.84,2.62,5.84,5.84s-2.62,5.84-5.84,5.84Z" stroke-width="0"/></svg>