<?xml version="1.0" encoding="utf-8"?>
<!-- Generator: Adobe Illustrator 27.8.0, SVG Export Plug-In . SVG Version: 6.00 Build 0)  -->
<svg version="1.1" id="a" xmlns="http://www.w3.org/2000/svg" xmlns:xlink="http://www.w3.org/1999/xlink" x="0px" y="0px"
	 viewBox="0 0 360 360" style="enable-background:new 0 0 360 360;" xml:space="preserve">
<path d="M230.4,331.2c0,9.3-7.5,16.8-16.8,16.8h-67.2c-9.3,0-16.8-7.5-16.8-16.8v-33.6h100.7L230.4,331.2L230.4,331.2z M297.5,129.3
	C297.4,64.4,244.7,11.9,179.8,12C114.9,12.1,62.3,64.8,62.5,129.7c0,24.1,7.4,47.5,21.3,67.2c14.9,20.7,26.9,43.3,35.7,67.2h121.1
	c8.9-24,21-46.7,36-67.5h0C290.3,176.8,297.6,153.4,297.5,129.3z M234.2,145.1l-37.4,74.8c-3.2,6.3-9.7,10.3-16.7,10.3
	c-2.9,0-5.8-0.7-8.4-2c0,0,0,0,0,0c-9.2-4.6-13-15.9-8.3-25.1l23.9-47.8h-44.6l0,0c-2.9,0-5.8-0.7-8.4-2c-9.2-4.6-13-15.9-8.4-25.1
	l37.4-74.8c4.6-9.3,15.9-13,25.1-8.4c9.3,4.6,13,15.9,8.4,25.1L172.8,118h44.6c2.9,0,5.8,0.7,8.4,2
	C235,124.6,238.8,135.8,234.2,145.1z"/>
</svg>
