<svg xmlns="http://www.w3.org/2000/svg" viewBox="0 0 200 65"><g><path d="M13.4,39.48v-12.53h20.17v-10.39H13.4v-5.08h20.17V.07H0v41.39c4.34-.71,8.81-1.37,13.4-1.98Z" style="fill: #fff;"></path><path d="M48.57,36.03v-14.35l11.15,13.72c5.15-.24,10.38-.43,15.68-.55V.07h-13.35v17.61L47.74.07h-12.48v36.99c4.36-.39,8.8-.74,13.31-1.04Z" style="fill: #fff;"></path><path d="M90.01,34.68h.74v-14.41l9.36,14.39,9.41-14.39v14.7c4.5.14,8.95.32,13.34.54V0h-14.02l-8.62,14.09L91.54,0h-13.82v34.8c4.06-.08,8.17-.12,12.3-.12Z" style="fill: #fff;"></path><path d="M138.43,36.53v-8.19l6.17-2.61,6.11,2.61v9.29c4.57.46,9.05.97,13.43,1.53V.07h-13.43v14.14h-12.28V.07h-13.43v35.56c4.54.25,9.02.55,13.43.89Z" style="fill: #fff;"></path><path d="M179.83,41.43v-14.48h20.17v-10.39h-20.17v-5.08h20.17V.07h-33.56v39.38c4.58.61,9.05,1.27,13.4,1.98Z" style="fill: #fff;"></path></g><g><path d="M2.35,59.88v1.82h2.89v.94h-2.89v2.28h-1.11v-5.97h4.37v.93h-3.26Z" style="fill: #fff;"></path><path d="M7.08,58.95h1.11v5.97h-1.11v-5.97Z" style="fill: #fff;"></path><path d="M14.11,64.91l-1.22-1.75c-.08,0-.15,0-.23,0h-1.35v1.74h-1.11v-5.97h2.46c1.58,0,2.55.8,2.55,2.12,0,.9-.46,1.57-1.28,1.88l1.38,1.96h-1.2,0ZM12.61,59.88h-1.3v2.38h1.3c.98,0,1.48-.44,1.48-1.19s-.51-1.19-1.48-1.19Z" style="fill: #fff;"></path><path d="M16.33,64.28l.39-.86c.48.38,1.24.66,1.98.66.93,0,1.33-.33,1.33-.78,0-1.29-3.56-.44-3.56-2.66,0-.96.77-1.78,2.41-1.78.72,0,1.47.19,1.99.53l-.35.86c-.54-.32-1.13-.47-1.65-.47-.92,0-1.3.36-1.3.81,0,1.27,3.55.44,3.55,2.63,0,.95-.78,1.77-2.42,1.77-.93,0-1.87-.29-2.36-.72h0Z" style="fill: #fff;"></path><path d="M23.73,59.88h-1.99v-.94h5.08v.94h-1.99v5.03h-1.11v-5.03h0Z" style="fill: #fff;"></path><path d="M36.13,58.95v5.97h-.92l-3.3-4.04v4.04h-1.1v-5.97h.92l3.3,4.04v-4.04h1.1Z" style="fill: #fff;"></path><path d="M42.01,63.53h-3l-.59,1.38h-1.15l2.7-5.97h1.1l2.7,5.97h-1.16l-.6-1.38ZM41.64,62.66l-1.13-2.61-1.12,2.61h2.25Z" style="fill: #fff;"></path><path d="M45.83,59.88h-1.99v-.94h5.08v.94h-1.99v5.03h-1.11v-5.03h0Z" style="fill: #fff;"></path><path d="M50.15,58.95h1.11v5.97h-1.11v-5.97Z" style="fill: #fff;"></path><path d="M52.84,61.93c0-1.76,1.37-3.07,3.23-3.07s3.23,1.3,3.23,3.07-1.37,3.07-3.23,3.07-3.23-1.3-3.23-3.07ZM58.17,61.93c0-1.22-.9-2.1-2.11-2.1s-2.11.88-2.11,2.1.9,2.1,2.11,2.1,2.11-.88,2.11-2.1Z" style="fill: #fff;"></path><path d="M66.18,58.95v5.97h-.92l-3.3-4.04v4.04h-1.1v-5.97h.92l3.3,4.04v-4.04h1.1Z" style="fill: #fff;"></path><path d="M67.67,64.28l.39-.86c.48.38,1.24.66,1.98.66.93,0,1.33-.33,1.33-.78,0-1.29-3.56-.44-3.56-2.66,0-.96.77-1.78,2.41-1.78.72,0,1.47.19,1.99.53l-.35.86c-.54-.32-1.13-.47-1.65-.47-.92,0-1.3.36-1.3.81,0,1.27,3.55.44,3.55,2.63,0,.95-.78,1.77-2.42,1.77-.93,0-1.87-.29-2.36-.72h0Z" style="fill: #fff;"></path><path d="M82.2,64.91v-3.96s-1.98,3.27-1.98,3.27h-.5l-1.97-3.22v3.9h-1.06v-5.97h.92l2.38,3.96,2.34-3.96h.92v5.97s-1.04,0-1.04,0h0Z" style="fill: #fff;"></path><path d="M89.14,63.53h-3l-.59,1.38h-1.15l2.7-5.97h1.1l2.7,5.97h-1.16l-.6-1.38ZM88.77,62.66l-1.13-2.61-1.12,2.61h2.25Z" style="fill: #fff;"></path><path d="M95.97,64.91l-1.22-1.75c-.08,0-.15,0-.23,0h-1.35v1.74h-1.11v-5.97h2.46c1.57,0,2.55.8,2.55,2.12,0,.9-.46,1.57-1.28,1.88l1.38,1.96h-1.2,0ZM94.46,59.88h-1.3v2.38h1.3c.98,0,1.48-.44,1.48-1.19s-.51-1.19-1.48-1.19Z" style="fill: #fff;"></path><path d="M100.75,62.42l-.95.97v1.53h-1.11v-5.97h1.11v3.06l2.96-3.06h1.25l-2.52,2.67,2.67,3.3h-1.3l-2.11-2.5h0Z" style="fill: #fff;"></path><path d="M109.81,63.99v.93h-4.49v-5.97h4.37v.93h-3.26v1.55h2.89v.91h-2.89v1.64h3.38Z" style="fill: #fff;"></path><path d="M112.65,59.88h-1.98v-.94h5.08v.94h-1.99v5.03h-1.11v-5.03Z" style="fill: #fff;"></path><path d="M125.04,58.95v5.97h-1.11v-2.56h-3.1v2.56h-1.11v-5.97h1.11v2.46h3.1v-2.46h1.11Z" style="fill: #fff;"></path><path d="M126.61,61.93c0-1.76,1.37-3.07,3.23-3.07s3.23,1.3,3.23,3.07-1.37,3.07-3.23,3.07-3.23-1.3-3.23-3.07ZM131.94,61.93c0-1.22-.9-2.1-2.11-2.1s-2.11.88-2.11,2.1.9,2.1,2.11,2.1,2.11-.88,2.11-2.1Z" style="fill: #fff;"></path><path d="M134.58,62.31v-3.37h1.11v3.33c0,1.23.56,1.76,1.52,1.76s1.51-.53,1.51-1.76v-3.33h1.1v3.37c0,1.74-.98,2.69-2.62,2.69s-2.63-.95-2.63-2.69h0Z" style="fill: #fff;"></path><path d="M141.26,64.28l.39-.86c.48.38,1.24.66,1.98.66.93,0,1.33-.33,1.33-.78,0-1.29-3.56-.44-3.56-2.66,0-.96.77-1.78,2.41-1.78.72,0,1.47.19,1.99.53l-.35.86c-.54-.32-1.13-.47-1.65-.47-.92,0-1.3.36-1.3.81,0,1.27,3.55.44,3.55,2.63,0,.95-.78,1.77-2.42,1.77-.93,0-1.87-.29-2.36-.72h0Z" style="fill: #fff;"></path><path d="M147.54,58.95h1.11v5.97h-1.11v-5.97Z" style="fill: #fff;"></path><path d="M155.98,58.95v5.97h-.92l-3.3-4.04v4.04h-1.1v-5.97h.92l3.3,4.04v-4.04h1.1Z" style="fill: #fff;"></path><path d="M162.06,61.86h1.05v2.38c-.63.5-1.5.76-2.35.76-1.86,0-3.23-1.29-3.23-3.07s1.37-3.07,3.24-3.07c1,0,1.84.33,2.4.97l-.7.68c-.47-.47-1.01-.68-1.65-.68-1.28,0-2.18.86-2.18,2.1s.9,2.1,2.16,2.1c.43,0,.85-.09,1.23-.31v-1.86h0Z" style="fill: #fff;"></path><path d="M168.82,59.88v1.82h2.89v.94h-2.89v2.28h-1.11v-5.97h4.37v.93h-3.26Z" style="fill: #fff;"></path><path d="M173.5,62.31v-3.37h1.11v3.33c0,1.23.56,1.76,1.52,1.76s1.51-.53,1.51-1.76v-3.33h1.1v3.37c0,1.74-.98,2.69-2.62,2.69s-2.63-.95-2.63-2.69h0Z" style="fill: #fff;"></path><path d="M186.01,58.95v5.97h-.92l-3.3-4.04v4.04h-1.1v-5.97h.92l3.3,4.04v-4.04h1.1Z" style="fill: #fff;"></path><path d="M188,58.95h2.62c1.94,0,3.27,1.19,3.27,2.98s-1.33,2.98-3.27,2.98h-2.62v-5.97ZM190.57,63.98c1.33,0,2.2-.81,2.2-2.05s-.87-2.05-2.2-2.05h-1.45v4.09h1.45Z" style="fill: #fff;"></path></g></svg>