<svg id="Layer_25_copy" data-name="Layer 25 copy" xmlns="http://www.w3.org/2000/svg" viewBox="0 0 33 33"><g id="Layer_1_copy" data-name="Layer 1 copy"><path d="M16.5,5A11.5,11.5,0,1,1,5,16.5,11.51,11.51,0,0,1,16.5,5m0-3h0A14.5,14.5,0,0,0,2,16.5H2A14.5,14.5,0,0,0,16.5,31h0A14.5,14.5,0,0,0,31,16.5h0A14.5,14.5,0,0,0,16.5,2Z"/><path d="M20,23h0a1,1,0,0,1-1,1H14a1,1,0,0,1-1-1h0a1,1,0,0,1,1-1h1V15H14a1,1,0,0,1-1-1h0a1,1,0,0,1,1-1h3a1,1,0,0,1,1,1v8h1A1,1,0,0,1,20,23ZM17,10H16a1,1,0,0,0-1,1h0a1,1,0,0,0,1,1h1a1,1,0,0,0,1-1h0A1,1,0,0,0,17,10Z"/></g></svg>