<svg id="Layer_25_copy" data-name="Layer 25 copy" xmlns="http://www.w3.org/2000/svg" viewBox="0 0 33 33"><path d="M16.5,2A6.69,6.69,0,0,0,10,9v8c0,4,2.85,7.11,6.5,7.11S23,21,23,17V9A6.69,6.69,0,0,0,16.5,2ZM21,17c0,2.51-1.68,5.11-4.5,5.11S12,19.51,12,17h3a1,1,0,0,0,0-2H12V14h4a1,1,0,0,0,0-2H12V11h3a1,1,0,0,0,0-2H12c0-2.85,1.93-5,4.5-5S21,6.15,21,9Zm5.09-2.94V17.6a9.2,9.2,0,0,1-8.59,9.17V29H21a1,1,0,0,1,0,2H12a1,1,0,0,1,0-2h3.5V26.77A9.2,9.2,0,0,1,6.91,17.6V14.06a1,1,0,1,1,2,0V17.6a7.21,7.21,0,0,0,7.2,7.2h.78a7.21,7.21,0,0,0,7.2-7.2V14.06a1,1,0,1,1,2,0Z"/></svg>