<?xml version="1.0" encoding="UTF-8"?><svg id="e" xmlns="http://www.w3.org/2000/svg" width="33" height="33" viewBox="0 0 33 33"><path d="m19.03,16.9c-.22-.22-.22-.59,0-.81l11.03-11.03c.59-.59.59-1.54,0-2.12-.59-.59-1.54-.59-2.12,0l-11.03,11.03c-.22.22-.59.22-.81,0L5.06,2.94c-.59-.59-1.54-.59-2.12,0-.59.59-.59,1.54,0,2.12l11.03,11.03c.22.22.22.59,0,.81L3.02,27.86c-.57.57-.68,1.5-.16,2.11.3.35.72.53,1.15.53.38,0,.77-.15,1.06-.44l11.03-11.03c.22-.22.59-.22.81,0l11.03,11.03c.29.29.68.44,1.06.44.42,0,.84-.18,1.15-.53.52-.61.4-1.54-.16-2.11l-10.96-10.96Z" stroke-width="0"/></svg>