<svg id="Layer_25_copy" data-name="Layer 25 copy" xmlns="http://www.w3.org/2000/svg" viewBox="0 0 33 33"><path d="M29.61,2H3.39C2.43,2,2,2.43,2,3.39V29.61c0,1,.42,1.38,1.38,1.38H29.61c1,0,1.38-.42,1.38-1.38V3.39C31,2.43,30.57,2,29.61,2ZM12.8,13.14a4.93,4.93,0,1,1-1.24,3.26A5,5,0,0,1,12.8,13.14ZM28.23,28.23H4.77V13.05H8.91a8.23,8.23,0,0,0-.4,3.35,8,8,0,0,0,16,0,8.23,8.23,0,0,0-.4-3.35h4.14V28.23Zm0-19.32a1.37,1.37,0,0,1-1.38,1.38H24.09a1.37,1.37,0,0,1-1.38-1.38V6.15a1.37,1.37,0,0,1,1.38-1.38h2.76a1.37,1.37,0,0,1,1.38,1.38Z"/></svg>