<svg xmlns="http://www.w3.org/2000/svg" viewBox="0 0 33 33"><g id="Layer_1" data-name="Layer 1"><path d="M21.63,31A2.55,2.55,0,0,1,20,30.42l-.12-.11-2.7-2.74-2.25,2-.08.07c-1.34,1-4.31.14-5.18-.29a2.2,2.2,0,0,1-1.47-2v-3.1a3.16,3.16,0,0,1,1.35-3.05L9.77,21l.1-.08,8.29-6.21A1.55,1.55,0,0,1,20,17.23l-8.41,6.33-.28.24c0,.1,0,.26,0,.47v2.41a6,6,0,0,0,1.82.34l2.23-2a2.84,2.84,0,0,1,3.84.16l2.14,2.16L27.57,5.53,5.73,14.59l2.77,2.1a1.55,1.55,0,0,1-1.87,2.48L3,16.39a2.48,2.48,0,0,1,.59-4.26L27.49,2.2a2.51,2.51,0,0,1,2.67.45,2.43,2.43,0,0,1,.74,2.52l-6.84,24a2.48,2.48,0,0,1-1.67,1.7A2.51,2.51,0,0,1,21.63,31Zm-8.32-4Z"/></g></svg>