<svg id="Layer_25_copy" data-name="Layer 25 copy" xmlns="http://www.w3.org/2000/svg" viewBox="0 0 33 33"><path d="M28,18V28H18V18H28m2.08-3H15.92a.92.92,0,0,0-.92.92V30.08a.92.92,0,0,0,.92.92H30.08a.92.92,0,0,0,.92-.92V15.92a.92.92,0,0,0-.92-.92ZM28,5v5H18V5H28m2.08-3H15.92a.92.92,0,0,0-.92.92v9.16a.92.92,0,0,0,.92.92H30.08a.92.92,0,0,0,.92-.92V2.92A.92.92,0,0,0,30.08,2ZM10,5V17H5V5h5m2.08-3H2.92A.92.92,0,0,0,2,2.92V19.08a.92.92,0,0,0,.92.92h9.16a.92.92,0,0,0,.92-.92V2.92A.92.92,0,0,0,12.08,2ZM10,25v3H5V25h5m2.08-3H2.92a.92.92,0,0,0-.92.92v7.16a.92.92,0,0,0,.92.92h9.16a.92.92,0,0,0,.92-.92V22.92a.92.92,0,0,0-.92-.92Z"/></svg>