<?xml version="1.0" encoding="UTF-8"?><svg id="e" xmlns="http://www.w3.org/2000/svg" width="33" height="33" viewBox="0 0 33 33"><path d="m22.04,12.29l-.32-1.02-1.02-.32c-.42-.13-.71-.52-.71-.96s.29-.83.71-.96l1.02-.32.32-1.02c.13-.42.52-.71.96-.71s.83.29.96.71l.32,1.02,1.02.32c.42.13.71.52.71.96s-.29.83-.71.96l-1.02.32-.32,1.02c-.13.42-.52.71-.96.71s-.83-.29-.96-.71Zm1.63,12.41c-6.61-.77-11.92-6.17-12.6-12.78-.26-2.52.14-4.92,1.03-7.07.43-1.02-.64-2.03-1.64-1.58C5.07,5.72,1.45,11.4,2.07,17.84c.66,6.84,6.27,12.35,13.12,12.91,4.27.35,8.19-1.17,11.03-3.82.81-.76.3-2.13-.8-2.13-.57,0-1.15-.03-1.74-.1Z" stroke-width="0"/></svg>