<svg id="Layer_25_copy" data-name="Layer 25 copy" xmlns="http://www.w3.org/2000/svg" viewBox="0 0 33 33"><defs><style>.cls-1{fill-rule:evenodd;}</style></defs><path class="cls-1" d="M28.5,9h-11A1.5,1.5,0,0,1,16,7.5h0A1.5,1.5,0,0,1,17.5,6h11A1.5,1.5,0,0,1,30,7.5h0A1.5,1.5,0,0,1,28.5,9ZM27,12.5h0A1.5,1.5,0,0,0,25.5,11h-8A1.5,1.5,0,0,0,16,12.5h0A1.5,1.5,0,0,0,17.5,14h8A1.5,1.5,0,0,0,27,12.5Zm3,8h0A1.5,1.5,0,0,0,28.5,19h-11A1.5,1.5,0,0,0,16,20.5h0A1.5,1.5,0,0,0,17.5,22h11A1.5,1.5,0,0,0,30,20.5Zm-3,5h0A1.5,1.5,0,0,0,25.5,24h-8A1.5,1.5,0,0,0,16,25.5h0A1.5,1.5,0,0,0,17.5,27h8A1.5,1.5,0,0,0,27,25.5ZM10,8H6v4h4V8m1.14-3A1.86,1.86,0,0,1,13,6.86v6.28A1.86,1.86,0,0,1,11.14,15H4.86A1.86,1.86,0,0,1,3,13.14V6.86A1.86,1.86,0,0,1,4.86,5ZM10,21H6v4h4V21m1.14-3A1.86,1.86,0,0,1,13,19.86v6.28A1.86,1.86,0,0,1,11.14,28H4.86A1.86,1.86,0,0,1,3,26.14V19.86A1.86,1.86,0,0,1,4.86,18Z"/></svg>