<svg id="Layer_25_copy" data-name="Layer 25 copy" xmlns="http://www.w3.org/2000/svg" viewBox="0 0 33 33"><path d="M9.78,30.89a7.67,7.67,0,0,1-5.43-13.1l4.37-4.37a1.51,1.51,0,0,1,2.12,0,1.49,1.49,0,0,1,0,2.12L6.48,19.91a4.67,4.67,0,1,0,6.61,6.61l4.37-4.36a1.49,1.49,0,0,1,2.12,0,1.51,1.51,0,0,1,0,2.12l-4.37,4.37A7.68,7.68,0,0,1,9.78,30.89Zm14.5-11.31,4.37-4.37A7.68,7.68,0,0,0,17.79,4.35L13.42,8.72a1.51,1.51,0,0,0,0,2.12,1.49,1.49,0,0,0,2.12,0l4.37-4.36a4.67,4.67,0,1,1,6.61,6.61l-4.36,4.37A1.5,1.5,0,0,0,23.22,20,1.51,1.51,0,0,0,24.28,19.58Zm-1.06-9.8h0a1.51,1.51,0,0,0-2.12,0L9.78,21.1a1.51,1.51,0,0,0,0,2.12h0a1.51,1.51,0,0,0,2.12,0L23.22,11.9A1.51,1.51,0,0,0,23.22,9.78Z"/></svg>