<svg id="Layer_25_copy" data-name="Layer 25 copy" xmlns="http://www.w3.org/2000/svg" viewBox="0 0 33 33"><path d="M30.5,9.68a3.67,3.67,0,0,0-3.14-2.84A98.3,98.3,0,0,0,16.5,6.19a98.59,98.59,0,0,0-10.86.65A3.67,3.67,0,0,0,2.51,9.68,31,31,0,0,0,2,16.5a31.17,31.17,0,0,0,.5,6.83,3.67,3.67,0,0,0,3.14,2.83,98.3,98.3,0,0,0,10.86.65,98.59,98.59,0,0,0,10.86-.65,3.65,3.65,0,0,0,3.13-2.83A30.57,30.57,0,0,0,31,16.5a31,31,0,0,0-.5-6.82m-9.06,7.49-6.83,3.69a.77.77,0,0,1-1.24-.73V12.87a.77.77,0,0,1,1.24-.73l6.83,3.69c.68.37.68,1,0,1.34"/></svg>