<svg id="Layer_25_copy" data-name="Layer 25 copy" xmlns="http://www.w3.org/2000/svg" viewBox="0 0 33 33"><path d="M28,8a0,0,0,0,1,.05.05V28A0,0,0,0,1,28,28H5.05A0,0,0,0,1,5,28V8.05a0,0,0,0,1,0-.05H28m0-3H5.05A3.06,3.06,0,0,0,2,8.05V28A3.06,3.06,0,0,0,5.05,31H28A3.06,3.06,0,0,0,31,28V8.05A3.06,3.06,0,0,0,28,5Z"/><rect x="5" y="2" width="3" height="6" rx="1.5"/><rect x="25" y="2" width="3" height="6" rx="1.5"/><rect x="15" y="2" width="3" height="6" rx="1.5"/><rect x="4" y="8" width="25" height="6.03"/></svg>