<svg id="Layer_25_copy" data-name="Layer 25 copy" xmlns="http://www.w3.org/2000/svg" viewBox="0 0 33 33"><path d="M16.5,2A14.5,14.5,0,1,0,31,16.5,14.5,14.5,0,0,0,16.5,2ZM27.89,15H23a19.67,19.67,0,0,0-2.58-9.31A11.51,11.51,0,0,1,27.89,15ZM16.5,27c-.83,0-3.11-3.09-3.45-9H20C19.61,23.91,17.33,27,16.5,27ZM13.05,15c.34-5.91,2.62-9,3.45-9S19.61,9.09,20,15Zm-.43-9.31A19.67,19.67,0,0,0,10,15H5.11A11.51,11.51,0,0,1,12.62,5.69ZM5.11,18H10a19.67,19.67,0,0,0,2.58,9.31A11.51,11.51,0,0,1,5.11,18Zm15.27,9.31A19.67,19.67,0,0,0,23,18h4.93A11.51,11.51,0,0,1,20.38,27.31Z"/></svg>