<?xml version="1.0" encoding="UTF-8"?><svg id="a" xmlns="http://www.w3.org/2000/svg" width="33" height="33" viewBox="0 0 33 33"><path d="m11.51,18.36c-4,.9-7.51-2.61-6.62-6.62.45-2.02,2.08-3.65,4.1-4.1,4-.9,7.51,2.61,6.62,6.62-.45,2.02-2.08,3.65-4.1,4.1Zm-.64-7.78c-1.86-.45-3.5,1.19-3.04,3.05.21.87.93,1.59,1.8,1.8,1.86.45,3.5-1.19,3.04-3.05-.21-.87-.93-1.59-1.8-1.8Zm-1.71,8.83c-.21-.04-.41.12-.41.33v9.77c0,.83.67,1.5,1.5,1.5s1.5-.67,1.5-1.5v-9.77c0-.22-.2-.37-.41-.33-.36.06-.72.1-1.09.1s-.74-.03-1.09-.1Zm2.19-12.81c.21.04.41-.12.41-.33v-2.77c0-.83-.67-1.5-1.5-1.5s-1.5.67-1.5,1.5v2.77c0,.22.2.37.41.33.36-.06.72-.1,1.09-.1s.74.03,1.09.1Zm10.15,8.04c4-.9,7.51,2.61,6.62,6.62-.45,2.02-2.08,3.65-4.1,4.1-4,.9-7.51-2.61-6.62-6.62.45-2.02,2.08-3.65,4.1-4.1Zm.64,7.78c1.86.45,3.5-1.19,3.04-3.05-.21-.87-.93-1.59-1.8-1.8-1.86-.45-3.5,1.19-3.04,3.05.21.87.93,1.59,1.8,1.8Zm1.71-8.83c.21.04.41-.12.41-.33V3.5c0-.83-.67-1.5-1.5-1.5s-1.5.67-1.5,1.5v9.77c0,.22.2.37.41.33.36-.06.72-.1,1.09-.1s.74.03,1.09.1Zm-2.19,12.81c-.21-.04-.41.12-.41.33v2.77c0,.83.67,1.5,1.5,1.5s1.5-.67,1.5-1.5v-2.77c0-.22-.2-.37-.41-.33-.36.06-.72.1-1.09.1s-.74-.03-1.09-.1Z" stroke-width="0"/></svg>