<svg id="Layer_25_copy" data-name="Layer 25 copy" xmlns="http://www.w3.org/2000/svg" viewBox="0 0 33 33"><path d="M17.13,2.14c1.57,0,3.13,0,4.69,0a7.43,7.43,0,0,0,2.1,5A8.46,8.46,0,0,0,29,9.26v4.83a12.89,12.89,0,0,1-5-1.16A14.37,14.37,0,0,1,22,11.81c0,3.51,0,7,0,10.49A9.23,9.23,0,0,1,20.38,27a8.9,8.9,0,0,1-7.09,3.84A8.73,8.73,0,0,1,8.4,29.64,9,9,0,0,1,4,22.8c0-.6,0-1.2,0-1.79a9,9,0,0,1,3.1-6A8.91,8.91,0,0,1,14.48,13c0,1.77-.05,3.55-.05,5.32a4.2,4.2,0,0,0-3.62.45,4.15,4.15,0,0,0-1.63,2.1A4.63,4.63,0,0,0,9,22.8a4.09,4.09,0,0,0,7.51,1.51A2.76,2.76,0,0,0,17,23c.12-2.14.08-4.28.09-6.42,0-4.83,0-9.65,0-14.47Z"/></svg>