<svg id="Layer_25_copy" data-name="Layer 25 copy" xmlns="http://www.w3.org/2000/svg" viewBox="0 0 33 33"><path d="M29.44,27.32l-3.68-3.69a7.5,7.5,0,1,0-2.13,2.13l3.69,3.68a1.49,1.49,0,0,0,1.06.44,1.51,1.51,0,0,0,1.06-.44A1.49,1.49,0,0,0,29.44,27.32ZM19.5,24A4.5,4.5,0,1,1,24,19.5,4.51,4.51,0,0,1,19.5,24Zm2.32,7H5.47A3.48,3.48,0,0,1,2,27.53V5.47A3.48,3.48,0,0,1,5.47,2H27.53A3.48,3.48,0,0,1,31,5.47V21.82a1.45,1.45,0,1,1-2.9,0V5.47a.58.58,0,0,0-.57-.57H5.47a.58.58,0,0,0-.57.57V27.53a.58.58,0,0,0,.57.57H21.82a1.45,1.45,0,1,1,0,2.9Z"/></svg>
