<?xml version="1.0" encoding="UTF-8"?><svg id="e" xmlns="http://www.w3.org/2000/svg" width="33" height="33" viewBox="0 0 33 33"><path d="m26.57,7.35c-1.91-.87-3.92-1.49-5.99-1.84-.28.51-.54,1.03-.77,1.56-2.2-.33-4.44-.33-6.64,0-.23-.53-.48-1.05-.77-1.56-2.07.35-4.08.97-5.99,1.85C2.63,12.96,1.6,18.42,2.12,23.81h0c2.22,1.64,4.7,2.89,7.34,3.69.59-.8,1.12-1.65,1.57-2.54-.86-.32-1.69-.72-2.48-1.18.21-.15.41-.31.61-.46,4.65,2.19,10.03,2.19,14.68,0,.2.16.4.32.61.46-.79.47-1.62.86-2.48,1.18.45.89.98,1.73,1.57,2.53,2.64-.8,5.13-2.04,7.35-3.68h0c.6-6.25-1.03-11.66-4.31-16.46Zm-14.89,13.15c-1.43,0-2.61-1.3-2.61-2.9s1.14-2.91,2.61-2.91,2.64,1.31,2.62,2.91-1.15,2.9-2.61,2.9Zm9.64,0c-1.43,0-2.61-1.3-2.61-2.9s1.14-2.91,2.61-2.91,2.63,1.31,2.61,2.91-1.15,2.9-2.61,2.9Z" stroke-width="0"/></svg>