<svg id="Layer_25_copy" data-name="Layer 25 copy" xmlns="http://www.w3.org/2000/svg" viewBox="0 0 33 33"><path d="M31,7.51a11.85,11.85,0,0,1-3.42.93A6,6,0,0,0,30.2,5.15,12.11,12.11,0,0,1,26.42,6.6a5.95,5.95,0,0,0-10.29,4.07A6,6,0,0,0,16.28,12,16.85,16.85,0,0,1,4,5.81a5.94,5.94,0,0,0,1.84,7.94A6,6,0,0,1,3.17,13v.07a6,6,0,0,0,4.77,5.83,5.83,5.83,0,0,1-1.57.21A5.19,5.19,0,0,1,5.25,19a6,6,0,0,0,5.56,4.14,12,12,0,0,1-7.39,2.54A11.16,11.16,0,0,1,2,25.61a16.81,16.81,0,0,0,9.12,2.67c11,0,16.93-9.06,16.93-16.92,0-.26,0-.52,0-.77A12.25,12.25,0,0,0,31,7.51Z"/></svg>