<?xml version="1.0" encoding="UTF-8"?><svg id="e" xmlns="http://www.w3.org/2000/svg" width="33" height="33" viewBox="0 0 33 33"><path d="m8.75,11.33H2.93c-.26,0-.47.21-.47.47v18.7c0,.26.21.47.47.47h5.82c.26,0,.47-.21.47-.47V11.8c0-.26-.21-.47-.47-.47Z" stroke-width="0"/><path d="m5.84,2.03c-2.12,0-3.84,1.72-3.84,3.84s1.72,3.84,3.84,3.84,3.84-1.72,3.84-3.84c0-2.12-1.72-3.84-3.84-3.84Z" stroke-width="0"/><path d="m23.56,10.86c-2.34,0-4.07,1.01-5.12,2.15v-1.21c0-.26-.21-.47-.47-.47h-5.58c-.26,0-.47.21-.47.47v18.7c0,.26.21.47.47.47h5.81c.26,0,.47-.21.47-.47v-9.25c0-3.12.85-4.33,3.02-4.33,2.37,0,2.56,1.95,2.56,4.49v9.09c0,.26.21.47.47.47h5.81c.26,0,.47-.21.47-.47v-10.26c0-4.64-.88-9.38-7.44-9.38Z" stroke-width="0"/></svg>