<?xml version="1.0" encoding="UTF-8"?><svg id="e" xmlns="http://www.w3.org/2000/svg" width="33" height="33" viewBox="0 0 33 33"><path d="m8.29,5.45c3.32,2.5,6.9,7.56,8.21,10.27,1.31-2.72,4.89-7.78,8.21-10.27,2.4-1.8,6.29-3.19,6.29,1.24,0,.89-.51,7.44-.81,8.5-1.04,3.7-4.81,4.64-8.16,4.07,5.86,1,7.36,4.3,4.13,7.61-6.12,6.28-8.8-1.58-9.48-3.59-.13-.37-.18-.54-.19-.39,0-.15-.06.03-.19.39-.69,2.01-3.36,9.87-9.48,3.59-3.22-3.31-1.73-6.61,4.13-7.61-3.36.57-7.13-.37-8.16-4.07-.3-1.06-.81-7.62-.81-8.5,0-4.43,3.89-3.04,6.29-1.24h0Z" stroke-width="0"/></svg>