<?xml version="1.0" encoding="UTF-8"?><svg id="a" xmlns="http://www.w3.org/2000/svg" width="33" height="33" viewBox="0 0 33 33"><path d="m16.91,30.09c-.4,0-.78-.16-1.06-.44l-8.67-8.67c-.59-.59-.59-1.54,0-2.12s1.54-.59,2.12,0l7.61,7.61,7.61-7.61c.59-.59,1.54-.59,2.12,0,.59.59.59,1.54,0,2.12l-8.67,8.67c-.28.28-.66.44-1.06.44Z" stroke-width="0"/><path d="m25.58,14.58c-.38,0-.77-.15-1.06-.44l-7.61-7.61-7.61,7.61c-.59.59-1.54.59-2.12,0s-.59-1.54,0-2.12L15.85,3.35c.28-.28.66-.44,1.06-.44h0c.4,0,.78.16,1.06.44l8.67,8.67c.59.59.59,1.54,0,2.12-.29.29-.68.44-1.06.44Z" stroke-width="0"/></svg>