<?xml version="1.0" encoding="UTF-8"?><svg id="e" xmlns="http://www.w3.org/2000/svg" width="33" height="33" viewBox="0 0 33 33"><path d="m23.45,15.44c-.13-.06-.25-.12-.38-.17-.22-4.13-2.48-6.49-6.27-6.52-.02,0-.03,0-.05,0-2.27,0-4.15.97-5.31,2.73l2.08,1.43c.87-1.31,2.23-1.59,3.23-1.59.01,0,.02,0,.03,0,1.25,0,2.19.37,2.8,1.08.44.51.74,1.23.89,2.12-1.11-.19-2.3-.25-3.58-.17-3.6.21-5.92,2.31-5.76,5.23.08,1.48.82,2.75,2.08,3.59,1.07.7,2.44,1.05,3.86.97,1.88-.1,3.36-.82,4.39-2.14.78-1,1.28-2.29,1.5-3.92.9.54,1.56,1.25,1.93,2.11.62,1.46.66,3.85-1.29,5.8-1.71,1.71-3.77,2.45-6.88,2.47-3.45-.03-6.06-1.13-7.75-3.29-1.59-2.02-2.41-4.93-2.44-8.66.03-3.73.85-6.65,2.44-8.66,1.7-2.16,4.3-3.26,7.75-3.29,3.47.03,6.13,1.14,7.89,3.3.86,1.06,1.51,2.4,1.94,3.95l2.44-.65c-.52-1.92-1.34-3.57-2.45-4.94-2.26-2.78-5.56-4.2-9.81-4.23h-.02c-4.24.03-7.51,1.46-9.7,4.24-1.95,2.48-2.96,5.93-2.99,10.26h0s0,.02,0,.02c.03,4.33,1.04,7.78,2.99,10.26,2.19,2.79,5.46,4.22,9.7,4.24h.02c3.77-.03,6.43-1.01,8.62-3.2,2.87-2.86,2.78-6.45,1.84-8.66-.68-1.58-1.97-2.86-3.74-3.71Zm-6.51,6.13c-1.58.09-3.22-.62-3.3-2.14-.06-1.13.8-2.38,3.4-2.53.3-.02.59-.03.88-.03.94,0,1.82.09,2.63.27-.3,3.73-2.05,4.34-3.6,4.43Z" stroke-width="0"/></svg>