<svg id="Layer_25_copy" data-name="Layer 25 copy" xmlns="http://www.w3.org/2000/svg" viewBox="0 0 33 33"><defs><style>.cls-1{fill-rule:evenodd;}</style></defs><path class="cls-1" d="M27.46,2H24.52a1.31,1.31,0,0,0-.9.36L3.41,21.61a1.32,1.32,0,0,0-.41.95V29H9.44a1.32,1.32,0,0,0,1-.41L29.64,8.38a1.31,1.31,0,0,0,.36-.9V4.54a1.3,1.3,0,0,0-.38-.92L28.38,2.38A1.3,1.3,0,0,0,27.46,2ZM8,27H7V25H5V24l1.77-1.77A.79.79,0,0,1,7.33,22H8.67a.79.79,0,0,1,.56.23l.54.54a.79.79,0,0,1,.23.56v1.34a.79.79,0,0,1-.23.56Zm20.5,2h-9A1.5,1.5,0,0,1,18,27.5h0A1.5,1.5,0,0,1,19.5,26h9A1.5,1.5,0,0,1,30,27.5h0A1.5,1.5,0,0,1,28.5,29Z"/></svg>