<?xml version="1.0" encoding="UTF-8"?><svg id="e" xmlns="http://www.w3.org/2000/svg" width="33" height="33" viewBox="0 0 33 33"><path d="m30.01,11.53c0-6.29-4.12-8.13-4.12-8.13-2.08-.95-5.64-1.35-9.35-1.38h-.09c-3.7.03-7.27.43-9.34,1.39,0,0-4.12,1.84-4.12,8.13,0,1.44-.03,3.16.02,4.99.15,6.15,1.13,12.2,6.81,13.71,2.62.69,4.87.84,6.68.74,3.29-.18,5.13-1.17,5.13-1.17l-.11-2.38s-2.35.74-4.99.65c-2.61-.09-5.37-.28-5.79-3.49-.04-.28-.06-.58-.06-.9,0,0,2.56.63,5.82.78,1.99.09,3.85-.12,5.74-.34,3.63-.43,6.79-2.67,7.19-4.71.63-3.22.57-7.86.57-7.86Zm-4.86,8.1h-3.02s0-7.39,0-7.39c0-1.56-.66-2.35-1.97-2.35-1.45,0-2.18.94-2.18,2.79v4.04s-3,0-3,0v-4.04c0-1.85-.73-2.79-2.18-2.79-1.31,0-1.97.79-1.97,2.35v7.39s-3.02,0-3.02,0v-7.61c0-1.56.4-2.79,1.19-3.71.82-.91,1.89-1.38,3.23-1.38,1.54,0,2.71.59,3.48,1.78l.75,1.26.75-1.26c.77-1.19,1.94-1.78,3.48-1.78,1.33,0,2.41.47,3.23,1.38.8.91,1.19,2.15,1.19,3.71v7.61Z" stroke-width="0"/></svg>