<?xml version="1.0" encoding="UTF-8"?><svg id="e" xmlns="http://www.w3.org/2000/svg" width="33" height="33" viewBox="0 0 33 33"><path d="m30.17,14.55l-3.64-1.21c-.7-.23-1.03-1.03-.7-1.69l1.72-3.43c.23-.47.14-1.03-.23-1.4l-1.13-1.13c-.37-.37-.93-.46-1.4-.23l-3.43,1.72c-.66.33-1.46,0-1.69-.7l-1.21-3.64c-.16-.49-.63-.83-1.15-.83h-1.6c-.52,0-.98.33-1.15.83l-1.21,3.64c-.23.7-1.03,1.03-1.69.7l-3.43-1.72c-.47-.23-1.03-.14-1.4.23l-1.13,1.13c-.37.37-.46.93-.23,1.4l1.72,3.43c.33.66,0,1.46-.7,1.69l-3.64,1.21c-.49.16-.83.63-.83,1.15v1.6c0,.52.33.98.83,1.15l3.64,1.21c.7.23,1.03,1.03.7,1.69l-1.72,3.43c-.23.47-.14,1.03.23,1.4l1.13,1.13c.37.37.93.46,1.4.23l3.43-1.72c.66-.33,1.46,0,1.69.7l1.21,3.64c.16.49.63.83,1.15.83h1.6c.52,0,.98-.33,1.15-.83l1.21-3.64c.23-.7,1.03-1.03,1.69-.7l3.43,1.72c.47.23,1.03.14,1.4-.23l1.13-1.13c.37-.37.46-.93.23-1.4l-1.72-3.43c-.33-.66,0-1.46.7-1.69l3.64-1.21c.49-.16.83-.63.83-1.15v-1.6c0-.52-.33-.98-.83-1.15Zm-6.67,1.95c0,3.86-3.14,7-7,7s-7-3.14-7-7,3.14-7,7-7,7,3.14,7,7Z" stroke-width="0"/></svg>