<svg id="Layer_25_copy" data-name="Layer 25 copy" xmlns="http://www.w3.org/2000/svg" viewBox="0 0 33 33"><g id="Layer_2_copy" data-name="Layer 2 copy"><path d="M20.81,5a1.13,1.13,0,0,1,.76.31l6.12,6.18a1,1,0,0,1,.31.75V21a1.07,1.07,0,0,1-.33.77l-6.16,5.9a1,1,0,0,1-.74.3h-8.5a1.06,1.06,0,0,1-.75-.31L5.31,21.48A1.08,1.08,0,0,1,5,20.72V12.24a1.07,1.07,0,0,1,.3-.74l6-6.17A1,1,0,0,1,12,5h8.78m0-3H12A4.08,4.08,0,0,0,9.11,3.24l-6,6.17A4.08,4.08,0,0,0,2,12.24v8.48A4.1,4.1,0,0,0,3.19,23.6L9.4,29.81A4.07,4.07,0,0,0,12.27,31h8.5a4.06,4.06,0,0,0,2.82-1.13L29.75,24A4,4,0,0,0,31,21V12.24a4.07,4.07,0,0,0-1.18-2.86L23.7,3.2A4.05,4.05,0,0,0,20.81,2Z"/><path d="M21.45,12.05h0a1.49,1.49,0,0,0-2.12,0L16.5,14.88l-2.83-2.83a1.49,1.49,0,0,0-2.12,0h0a1.49,1.49,0,0,0,0,2.12L14.38,17l-2.83,2.83a1.49,1.49,0,0,0,0,2.12h0a1.49,1.49,0,0,0,2.12,0l2.83-2.83L19.33,22a1.49,1.49,0,0,0,2.12,0h0a1.49,1.49,0,0,0,0-2.12L18.62,17l2.83-2.83A1.49,1.49,0,0,0,21.45,12.05Z"/></g></svg>