<?xml version="1.0" encoding="UTF-8"?>
<svg id="Layer_1" xmlns="http://www.w3.org/2000/svg" version="1.1" viewBox="0 0 303.3 188.38">
  <!-- Generator: Adobe Illustrator 30.1.0, SVG Export Plug-In . SVG Version: 2.1.1 Build 136)  -->
  <path d="M206.03,136.24l-4.9,15.31-14.12-2.59-7.13-13.61-1.63.85,7.17,13.71-8.25,12.03-13.15-6.58-2.37-18.62-1.83.23,2.28,17.98-11.14,11.96-10.78-11.57,2.22-17.91-1.83-.23-2.23,17.94-13.59,6.8-7.53-10.98,5.86-13.27-1.69-.75-5.4,12.23-.25-.37-14.96,2.75-4.9-15.31h-29.45l-8.72,15.24h27.1l5.41,18.24,18.47-2.48,10.24,14.89,17.5-7.74,14.53,13.99,14.53-13.99,17.49,7.74,10.24-14.89,18.48,2.48,5.41-18.24h27.09l-8.71-15.24h-29.46ZM147.95,4.92h13.48l-4.54,6.08-2.62-3.47h-6.31v-2.62h-.01ZM303.28,44.27h-80.11l9.04-14.79h-53.61l-1.65,2.84c-3.58-7.91-7.9-16.08-9.34-18.76h9.84l-.09-.7c-.93-7.01-4.87-12.38-5.04-12.61l-.18-.25h-47.11l1.63,1.12c3.28,2.26,5.13,5.19,5.49,8.72.76,7.37-5.05,15.69-8.23,19.62h-52.81l8.83,15.2H0l10.43,16.42h93.4l-8.73-15.71h17.68l8.52,15.71h62.15l8.01-15.71h17.45l-9.04,15.71h92.79l10.64-16.84-.02.03ZM170.71,40.09l-8.4-13.79-10.78,14.3-9.68-14.21-10.14,13.86-5.15-9.73c.89-1.13,2.03-2.67,3.2-4.51,3.88-6.11,5.6-11.65,5.11-16.47-.27-2.54-1.14-4.82-2.62-6.84h38.44c.86,1.37,2.57,4.4,3.5,8.09h-11.18l1.79,3.26c1.36,2.52,5.98,11.2,9.71,19.45l-3.81,6.57ZM63.82,85.66h-4.14c-.73-3.12-1.71-5.4-2.93-6.83s-2.58-2.32-4.1-2.65c-1.51-.33-3.62-.5-6.32-.5h-10.66v19.84h5.59c2.64,0,4.43-.42,5.37-1.28s1.5-2.75,1.67-5.68h4.05v18.67h-4.14c-.15-2.15-.42-3.7-.82-4.64s-1.07-1.59-2.03-1.94c-.95-.36-2.39-.54-4.3-.54h-5.42v16.68c0,2.27.48,3.93,1.43,5.01.95,1.08,3.22,1.62,6.81,1.62h1.23v3.8H14.48v-3.8c3.64,0,5.98-.51,7.03-1.51,1.04-1,1.56-2.71,1.56-5.11v-35.28c0-1.6-.18-2.85-.53-3.75-.35-.89-1.15-1.6-2.4-2.11-1.25-.51-3.14-.77-5.66-.77v-3.8h48.9l.44,14.58h0ZM133.08,74.9c-2.85,0-4.89.27-6.12.8s-2,1.33-2.29,2.38c-.29,1.05-.44,2.76-.44,5.13v44.51h-4.05l-39.08-43.64v30.92c0,2.35.15,4.05.46,5.11s1.09,1.88,2.36,2.44c1.26.57,3.3.85,6.12.85v3.8h-22.2v-3.8c2.64,0,4.56-.28,5.75-.85s1.92-1.38,2.2-2.44c.28-1.07.42-2.77.42-5.11v-28.65c0-2.32-.07-4.06-.2-5.21s-.45-2.18-.95-3.05-1.31-1.57-2.44-2.11c-1.13-.54-2.7-.9-4.69-1.09v-3.8h17.4l34.01,37.76v-25.63c0-2.1-.15-3.71-.46-4.83s-1.07-1.98-2.29-2.58-3.15-.91-5.79-.91v-3.8h22.29v3.8h0ZM190.35,108.77l-.48,18.46h-53.22v-3.8c3.67,0,6.04-.5,7.09-1.49s1.59-2.7,1.59-5.13v-35.28c0-1.6-.17-2.85-.51-3.75-.34-.89-1.13-1.6-2.38-2.11-1.25-.51-3.18-.77-5.79-.77v-3.8h49.56l.79,14.58h-4.05c-.91-3.23-1.96-5.54-3.15-6.93-1.19-1.39-2.53-2.25-4.01-2.57s-3.71-.48-6.67-.48h-11.19v19.84h6.08c2.09,0,3.64-.17,4.67-.52s1.75-1,2.16-1.97.69-2.49.84-4.55h4.23v18.67h-4.05c-.12-2.07-.41-3.6-.88-4.57-.47-.98-1.21-1.64-2.22-1.97s-2.56-.5-4.65-.5h-6.17v13.21c0,2.2.06,3.82.18,4.84.12,1.02.43,1.87.95,2.55.51.68,1.35,1.17,2.51,1.47,1.16.31,2.81.45,4.96.45h4.8c2.03,0,3.96-.24,5.79-.72,1.84-.48,3.63-1.73,5.4-3.72,1.76-2,3-5.14,3.7-9.42h4.14-.02ZM237.84,111.13c0,1.74-.4,3.58-1.19,5.53-.79,1.94-1.99,3.8-3.59,5.59-1.6,1.78-3.62,3.23-6.06,4.35-2.44,1.12-5.26,1.68-8.46,1.68s-6.32-.65-9.45-1.94c-3.13-1.3-5.78-3.23-7.95-5.79-.94,2.04-1.54,3.93-1.81,5.68h-4.05v-19.21h4.05c.73,2.76,1.75,5.36,3.04,7.78,1.29,2.43,3.12,4.52,5.49,6.27,2.36,1.75,5.26,2.63,8.7,2.63,3,0,5.4-.77,7.2-2.32,1.81-1.55,2.71-3.49,2.71-5.84,0-1.33-.28-2.49-.84-3.48s-1.37-1.88-2.42-2.67c-1.06-.79-2.5-1.63-4.34-2.52s-3.93-1.84-6.28-2.84c-3.61-1.6-6.58-3.22-8.9-4.84-2.32-1.63-4.07-3.21-5.26-4.74s-2.01-2.99-2.47-4.36c-.46-1.38-.68-2.77-.68-4.18,0-2.51.72-4.99,2.16-7.43,1.44-2.44,3.55-4.45,6.32-6,2.78-1.56,5.98-2.34,9.63-2.34,2.79,0,5.45.59,7.97,1.76,2.53,1.17,4.71,2.78,6.56,4.83.53-1.16,1.01-2.79,1.45-4.89h4.14v15.65h-4.14c-2.94-8.53-8.05-12.8-15.33-12.8-2.64,0-4.77.66-6.37,1.97-1.6,1.31-2.4,3-2.4,5.07,0,1.63.5,3.05,1.5,4.25,1,1.2,2.31,2.23,3.94,3.08,1.63.86,4.27,2.09,7.91,3.69,4.41,1.96,7.85,3.66,10.33,5.1s4.58,3.24,6.3,5.42,2.58,4.82,2.58,7.91v-.03ZM291.71,108.48l-.4,18.75h-53.22v-3.8c3.67,0,6.04-.5,7.09-1.49s1.59-2.7,1.59-5.13v-35.28c0-1.63-.18-2.89-.53-3.79-.35-.89-1.17-1.59-2.44-2.09s-3.18-.74-5.71-.74v-3.8h30.05v3.8c-2.5,0-4.38.23-5.66.7s-2.11,1.16-2.51,2.05c-.4.89-.59,2.19-.59,3.87v32.3c0,2.54.13,4.36.4,5.47.26,1.1.98,1.94,2.16,2.5,1.17.57,3.1.85,5.77.85,3.38,0,6.34-.24,8.88-.72s4.89-1.76,7.05-3.85c2.16-2.09,3.5-5.28,4.03-9.59h4.05,0Z"/>
</svg>