<?xml version="1.0" encoding="utf-8"?>
<!-- Generator: Adobe Illustrator 27.8.0, SVG Export Plug-In . SVG Version: 6.00 Build 0)  -->
<svg version="1.1" id="Layer_1" xmlns="http://www.w3.org/2000/svg" xmlns:xlink="http://www.w3.org/1999/xlink" x="0px" y="0px"
	 viewBox="0 0 605.6 169.3" style="enable-background:new 0 0 605.6 169.3;" xml:space="preserve">
<polygon points="577.2,0 481.6,0 465.7,49.7 417.2,40.8 416.4,42 398.9,2.3 393.4,4.7 412.4,47.8 388,83.4 344,61.4 336.8,3.2 
	330.8,3.9 338,62.1 302.8,99.6 267.6,62.1 274.8,3.9 268.8,3.2 261.6,61.4 217.6,83.4 193.2,47.8 212.2,4.7 206.7,2.3 189.2,42 
	188.4,40.8 139.9,49.7 124,0 28.4,0 0,49.5 88,49.5 105.6,108.7 165.6,100.6 198.8,149 255.6,123.9 302.8,169.3 350,123.9 
	406.8,149 440,100.6 500,108.7 517.6,49.5 605.6,49.5 "/>
</svg>
