<?xml version="1.0" encoding="utf-8"?>
<!-- Generator: Adobe Illustrator 27.8.0, SVG Export Plug-In . SVG Version: 6.00 Build 0)  -->
<svg version="1.1" id="Layer_1" xmlns="http://www.w3.org/2000/svg" xmlns:xlink="http://www.w3.org/1999/xlink" x="0px" y="0px"
	 viewBox="0 0 984.6 198.4" style="enable-background:new 0 0 984.6 198.4;" xml:space="preserve">
<path d="M480.3,12.8h43.8l-14.8,19.8l-8.5-11.2h-20.5V12.8z M984.6,143.7l-34.5,54.7H648.8l29.3-51h-56.7l-26,51H393.8l-27.7-51
	h-57.4l28.3,51H33.9L0,145h259.5l-28.7-49.3h171.4C412.6,82.9,431.4,55.9,429,32c-1.2-11.4-7.2-21-17.8-28.3L405.9,0h152.9l0.6,0.8
	c0.5,0.7,13.3,18.2,16.4,40.9l0.3,2.3h-31.9c4.7,8.7,18.7,35.2,30.3,60.9l5.3-9.2h174.1l-29.3,48L984.6,143.7L984.6,143.7z
	 M572,109.1c-14.2-31.7-32.7-65.8-33-66.2l-1.6-3h34c-3-18-12.3-32.5-14.7-36H418.2c8.7,7.5,13.7,16.7,14.8,27.6
	c1.5,14.5-3.8,31.4-15.8,50.3c-4.3,6.8-8.7,12.5-12.1,16.7l21.8,41.3l33.5-45.7l31.4,46L526.6,94l27.8,45.6L572,109.1z"/>
</svg>
