<?xml version="1.0" encoding="utf-8"?>
<!-- Generator: Adobe Illustrator 27.8.0, SVG Export Plug-In . SVG Version: 6.00 Build 0)  -->
<svg version="1.1" id="Layer_1" xmlns="http://www.w3.org/2000/svg" xmlns:xlink="http://www.w3.org/1999/xlink" x="0px" y="0px"
	 viewBox="0 0 984.6 583.8" style="enable-background:new 0 0 984.6 583.8;" xml:space="preserve">
<path d="M480.3,12.8h43.8l-14.8,19.8l-8.5-11.2h-20.5V12.8z M668.8,414.5l-15.9,49.7l-45.8-8.4L584,411.6l-5.3,2.8l23.3,44.5
	l-26.8,39l-42.7-21.3l-7.7-60.5l-6,0.8l7.4,58.4l-36.2,38.8l-35-37.5l7.2-58.2l-6-0.7l-7.2,58.2L405,497.9l-24.4-35.6l19-43.1
	l-5.5-2.4l-17.5,39.7l-0.8-1.2l-48.5,8.9l-15.9-49.7h-95.6L187.4,464h88l17.6,59.2l60-8.1l33.2,48.4l56.8-25.1l47.2,45.4l47.2-45.4
	l56.8,25.1l33.2-48.4l60,8.1l17.6-59.2h88l-28.3-49.5H668.8z M984.6,143.7l-34.5,54.7H648.8l29.3-51h-56.7l-26,51H393.8l-27.7-51
	h-57.4l28.3,51H33.9L0,145h259.5l-28.7-49.3h171.4C412.6,82.9,431.4,55.9,429,32c-1.2-11.4-7.2-21-17.8-28.3L405.9,0h152.9l0.6,0.8
	c0.5,0.7,13.3,18.2,16.4,40.9l0.3,2.3h-31.9c4.7,8.7,18.7,35.2,30.3,60.9l5.3-9.2h174.1l-29.3,48H984.6z M572,109.1
	c-14.2-31.7-32.7-65.8-33-66.2l-1.6-3h34c-3-18-12.3-32.5-14.7-36H418.2c8.7,7.5,13.7,16.7,14.8,27.6c1.5,14.5-3.8,31.4-15.8,50.3
	c-4.3,6.8-8.7,12.5-12.1,16.7l21.8,41.3l33.5-45.7l31.4,46l34.8-46.1l27.8,45.6L572,109.1z M146.1,271.2h-8.3
	c-1.5-6.9-3.4-12-5.9-15.2c-2.4-3.2-5.2-5.2-8.2-5.9c-3-0.7-7.3-1.1-12.7-1.1H89.6v44.1h11.2c5.3,0,8.9-1,10.8-2.9
	c1.9-1.9,3-6.1,3.4-12.6h8.1v41.5h-8.3c-0.3-4.8-0.8-8.2-1.6-10.3s-2.2-3.5-4.1-4.3c-1.9-0.8-4.8-1.2-8.6-1.2H89.6v37.1
	c0,5,1,8.7,2.9,11.1c1.9,2.4,6.5,3.6,13.7,3.6h2.5v8.5H47v-8.5c7.3,0,12-1.1,14.1-3.4c2.1-2.2,3.1-6,3.1-11.4V262
	c0-3.6-0.4-6.3-1.1-8.3c-0.7-2-2.3-3.6-4.8-4.7c-2.5-1.1-6.3-1.7-11.4-1.7v-8.5h98.2L146.1,271.2z M285.2,247.3
	c-5.7,0-9.8,0.6-12.3,1.8s-4,3-4.6,5.3c-0.6,2.3-0.9,6.1-0.9,11.4v98.9h-8.1l-78.5-97v68.8c0,5.2,0.3,9,0.9,11.4
	c0.6,2.4,2.2,4.2,4.7,5.4c2.5,1.3,6.6,1.9,12.3,1.9v8.5h-44.6v-8.5c5.3,0,9.2-0.6,11.5-1.9c2.4-1.3,3.9-3.1,4.4-5.4
	c0.6-2.4,0.8-6.2,0.8-11.4v-63.7c0-5.2-0.1-9-0.4-11.6c-0.3-2.6-0.9-4.8-1.9-6.8c-1-1.9-2.6-3.5-4.9-4.7c-2.3-1.2-5.4-2-9.4-2.4
	v-8.5h35l68.3,83.9v-57c0-4.7-0.3-8.2-0.9-10.7c-0.6-2.5-2.2-4.4-4.6-5.8c-2.4-1.3-6.3-2-11.6-2v-8.5h44.8V247.3z M400.3,322.5
	l-1,41H292.4v-8.5c7.4,0,12.1-1.1,14.2-3.3s3.2-6,3.2-11.4V262c0-3.6-0.3-6.3-1-8.3c-0.7-2-2.3-3.6-4.8-4.7
	c-2.5-1.1-6.4-1.7-11.6-1.7v-8.5H392l1.6,32.4h-8.1c-1.8-7.2-3.9-12.3-6.3-15.4c-2.4-3.1-5.1-5-8.1-5.7c-3-0.7-7.4-1.1-13.4-1.1
	h-22.5v44.1h12.2c4.2,0,7.3-0.4,9.4-1.2c2.1-0.8,3.5-2.2,4.3-4.4c0.8-2.1,1.4-5.5,1.7-10.1h8.5v41.5h-8.1c-0.2-4.6-0.8-8-1.8-10.2
	c-0.9-2.2-2.4-3.6-4.5-4.4c-2-0.7-5.1-1.1-9.3-1.1h-12.4v29.4c0,4.9,0.1,8.5,0.4,10.8c0.2,2.3,0.9,4.2,1.9,5.7c1,1.5,2.7,2.6,5,3.3
	c2.3,0.7,5.6,1,10,1h9.6c4.1,0,7.9-0.5,11.6-1.6c3.7-1.1,7.3-3.8,10.8-8.3c3.5-4.4,6-11.4,7.4-20.9H400.3z M495.7,327.8
	c0,3.9-0.8,8-2.4,12.3c-1.6,4.3-4,8.5-7.2,12.4c-3.2,4-7.3,7.2-12.2,9.7c-4.9,2.5-10.6,3.7-17,3.7c-6.4,0-12.7-1.4-19-4.3
	c-6.3-2.9-11.6-7.2-16-12.9c-1.9,4.5-3.1,8.7-3.6,12.6h-8.1v-42.7h8.1c1.5,6.1,3.5,11.9,6.1,17.3c2.6,5.4,6.3,10,11,13.9
	c4.7,3.9,10.6,5.8,17.5,5.8c6,0,10.8-1.7,14.5-5.2c3.6-3.4,5.4-7.8,5.4-13c0-2.9-0.6-5.5-1.7-7.7c-1.1-2.2-2.7-4.2-4.9-5.9
	c-2.1-1.7-5-3.6-8.7-5.6c-3.7-2-7.9-4.1-12.6-6.3c-7.3-3.6-13.2-7.1-17.9-10.8c-4.7-3.6-8.2-7.1-10.6-10.5s-4-6.6-5-9.7
	c-0.9-3.1-1.4-6.2-1.4-9.3c0-5.6,1.4-11.1,4.3-16.5c2.9-5.4,7.1-9.9,12.7-13.3c5.6-3.5,12-5.2,19.3-5.2c5.6,0,10.9,1.3,16,3.9
	c5.1,2.6,9.5,6.2,13.2,10.7c1.1-2.6,2-6.2,2.9-10.9h8.3v34.8h-8.3c-5.9-19-16.2-28.4-30.8-28.4c-5.3,0-9.6,1.5-12.8,4.4
	c-3.2,2.9-4.8,6.7-4.8,11.3c0,3.6,1,6.8,3,9.4c2,2.7,4.6,5,7.9,6.9c3.3,1.9,8.6,4.6,15.9,8.2c8.8,4.4,15.8,8.1,20.8,11.3
	c5,3.2,9.2,7.2,12.7,12.1C494,315.1,495.7,320.9,495.7,327.8z M660.9,321.9l-0.8,41.7H553.2v-8.5c7.4,0,12.1-1.1,14.2-3.3
	s3.2-6,3.2-11.4V262c0-3.6-0.4-6.4-1.1-8.4c-0.7-2-2.3-3.5-4.9-4.6s-6.4-1.7-11.5-1.7v-8.5h60.4v8.5c-5,0-8.8,0.5-11.4,1.6
	c-2.6,1-4.2,2.6-5,4.6c-0.8,2-1.2,4.9-1.2,8.6v71.8c0,5.6,0.3,9.7,0.8,12.1c0.5,2.5,2,4.3,4.3,5.6c2.4,1.3,6.2,1.9,11.6,1.9
	c6.8,0,12.7-0.5,17.8-1.6c5.1-1.1,9.8-3.9,14.2-8.6c4.3-4.6,7-11.7,8.1-21.3H660.9z M772,274.2h-8.4c-0.8-7.7-2.4-13.4-4.9-17.1
	c-2.5-3.7-5.2-6-8.1-6.8c-2.9-0.9-6.2-1.3-10-1.3h-15.2v91.4c0,3.6,0.4,6.4,1.1,8.4c0.7,2,2.4,3.5,5,4.6c2.6,1.1,6.4,1.7,11.4,1.7
	v8.5h-60.2v-8.5c7.4,0,12.1-1.1,14.2-3.3s3.2-6,3.2-11.4V249h-12.7c-5,0-9.2,0.4-12.5,1.2c-3.3,0.8-6.2,3.1-8.7,6.8
	c-2.5,3.7-3.9,9.4-4.3,17.2h-8.4v-35.4H772V274.2z M908.1,302.3c0,9-1.5,17.2-4.4,24.4c-3,7.3-6.8,13.3-11.4,18.2
	c-4.7,4.8-9.6,8.5-15,11c-11.2,5.2-24.9,7.7-41.2,7.7h-54.8v-8.5c5.1,0,8.9-0.5,11.5-1.5c2.6-1,4.3-2.5,5.1-4.6
	c0.8-2,1.2-4.9,1.2-8.7v-78.8c0-5.4-1.1-9.2-3.2-11.4s-7-3.3-14.6-3.3v-8.7l25.8-0.6c0.9,0,4.5-0.1,10.8-0.2c6.3-0.1,10-0.2,11-0.2
	c9.9,0,18.2,0.6,25.1,1.7c6.9,1.1,13.2,2.9,18.9,5.3c5.2,2.2,10.1,5.3,14.5,9.2c4.4,4,8.2,8.5,11.2,13.5c3,5.1,5.4,10.6,7,16.5
	C907.3,289.6,908.1,295.8,908.1,302.3z M879.4,301.7c0-12.9-2.4-23.8-7.1-32.5c-4.8-8.7-11.2-14.8-19.3-18.2
	c-3.5-1.5-7.3-2.4-11.3-2.8c-4-0.4-9.7-0.6-17.1-0.6v87.7c0,5,0.2,8.7,0.7,11c0.5,2.3,1.9,4,4.2,5.2s5.9,1.8,10.7,1.8
	c14.3,0,24.5-5.2,30.4-15.6C876.5,327.3,879.4,315.3,879.4,301.7z M937.6,352.3c0,4-1.4,7.5-4.1,10.2c-2.7,2.8-6,4.1-9.8,4.1
	c-3.8,0-7-1.4-9.7-4.1c-2.7-2.8-4.1-6.2-4.1-10.2s1.3-7.5,4-10.3s5.9-4.2,9.8-4.2s7.2,1.4,9.9,4.2
	C936.2,344.7,937.6,348.2,937.6,352.3z"/>
</svg>
