<?xml version="1.0" encoding="UTF-8"?><svg id="a" xmlns="http://www.w3.org/2000/svg" width="29.95in" height="8.11in" viewBox="0 0 2156.75 583.78"><path d="m480.31,12.75h43.75l-14.75,19.75-8.5-11.25h-20.5v-8.5Zm188.54,401.75l-15.91,49.71-45.85-8.42-23.12-44.18-5.32,2.78,23.29,44.49-26.79,39.05-42.7-21.35-7.66-60.46-5.95.75,7.4,58.38-36.17,38.81-34.99-37.54,7.22-58.16-5.95-.74-7.23,58.23-44.13,22.07-24.44-35.63,19.02-43.09-5.49-2.42-17.52,39.7-.82-1.19-48.55,8.92-15.91-49.71h-95.62l-28.29,49.5h87.95l17.56,59.21,59.98-8.06,33.24,48.35,56.79-25.13,47.17,45.4,47.17-45.4,56.79,25.13,33.24-48.35,59.98,8.06,17.56-59.21h87.95l-28.29-49.5h-95.62Zm315.75-270.83l-34.53,54.67h-301.23l29.33-51h-56.65l-26,51h-201.75l-27.67-51h-57.41l28.33,51H33.87L0,145h259.5l-28.67-49.33h171.44c10.31-12.77,29.18-39.76,26.72-63.7-1.17-11.44-7.17-20.97-17.82-28.32l-5.28-3.65h152.93l.6.81c.54.73,13.34,18.18,16.38,40.93l.3,2.26h-31.93c4.67,8.71,18.7,35.24,30.32,60.89l5.35-9.22h174.05l-29.33,48h260.06Zm-412.6-34.52c-14.19-31.7-32.74-65.8-32.96-66.19l-1.61-2.96h34.05c-2.99-18-12.31-32.5-14.72-36h-138.59c8.71,7.49,13.68,16.74,14.79,27.57,1.48,14.5-3.84,31.44-15.84,50.34-4.3,6.78-8.67,12.52-12.07,16.7l21.85,41.3,33.45-45.71,31.36,46.03,34.76-46.12,27.78,45.64,17.74-30.61Zm-425.88,162.04h-8.32c-1.48-6.93-3.44-12-5.89-15.19-2.45-3.19-5.19-5.15-8.23-5.89-3.04-.74-7.27-1.1-12.7-1.1h-21.42v44.08h11.24c5.31,0,8.91-.95,10.8-2.85,1.89-1.9,3.01-6.1,3.36-12.61h8.14v41.51h-8.32c-.3-4.79-.84-8.22-1.64-10.31s-2.15-3.53-4.07-4.33c-1.92-.8-4.79-1.2-8.63-1.2h-10.88v37.09c0,5.03.96,8.74,2.88,11.14,1.92,2.39,6.47,3.59,13.67,3.59h2.48v8.47h-61.59v-8.47c7.31,0,12.02-1.12,14.11-3.36,2.09-2.24,3.14-6.03,3.14-11.37v-78.41c0-3.56-.35-6.33-1.06-8.33-.71-1.99-2.32-3.56-4.82-4.69-2.51-1.13-6.3-1.7-11.37-1.7v-8.47h98.23l.88,32.4Zm139.12-23.93c-5.72,0-9.82.6-12.3,1.79s-4.01,2.96-4.6,5.29c-.59,2.33-.88,6.14-.88,11.41v98.94h-8.14l-78.5-97.01v68.75c0,5.22.31,9,.93,11.37.62,2.36,2.2,4.17,4.73,5.43,2.54,1.26,6.64,1.89,12.3,1.89v8.47h-44.6v-8.47c5.31,0,9.16-.63,11.55-1.89,2.39-1.26,3.86-3.07,4.42-5.43.56-2.36.84-6.15.84-11.37v-63.69c0-5.15-.13-9.02-.4-11.6-.27-2.58-.9-4.83-1.9-6.76-1-1.93-2.64-3.5-4.91-4.69-2.27-1.2-5.41-2.01-9.42-2.44v-8.47h34.96l68.32,83.94v-56.97c0-4.66-.31-8.24-.93-10.72-.62-2.49-2.15-4.4-4.6-5.75-2.45-1.35-6.33-2.03-11.64-2.03v-8.47h44.78v8.47Zm115.04,75.29l-.97,41.05h-106.9v-8.47c7.38,0,12.12-1.1,14.25-3.31s3.19-6.01,3.19-11.41v-78.41c0-3.56-.34-6.33-1.02-8.33-.68-1.99-2.27-3.56-4.78-4.69-2.51-1.13-6.39-1.7-11.64-1.7v-8.47h99.56l1.59,32.4h-8.14c-1.83-7.18-3.94-12.32-6.33-15.42-2.39-3.1-5.07-5-8.05-5.71-2.98-.71-7.45-1.06-13.41-1.06h-22.48v44.08h12.21c4.19,0,7.31-.38,9.38-1.15,2.06-.77,3.51-2.22,4.34-4.37.83-2.15,1.39-5.52,1.68-10.12h8.5v41.51h-8.14c-.24-4.6-.83-7.99-1.77-10.17-.94-2.18-2.43-3.64-4.47-4.37-2.04-.74-5.15-1.1-9.34-1.1h-12.39v29.36c0,4.91.12,8.5.35,10.77.24,2.27.87,4.16,1.9,5.66,1.03,1.5,2.71,2.59,5.04,3.27,2.33.68,5.65,1.01,9.96,1.01h9.65c4.07,0,7.95-.54,11.64-1.61,3.69-1.07,7.3-3.83,10.84-8.28,3.54-4.45,6.02-11.43,7.43-20.94h8.32Zm95.41,5.25c0,3.87-.8,7.96-2.39,12.29-1.59,4.33-4,8.47-7.21,12.42-3.22,3.96-7.27,7.18-12.17,9.66-4.9,2.49-10.56,3.73-16.99,3.73s-12.7-1.44-18.98-4.33c-6.28-2.88-11.61-7.18-15.97-12.89-1.89,4.54-3.1,8.74-3.63,12.61h-8.14v-42.7h8.14c1.47,6.14,3.51,11.9,6.11,17.3,2.6,5.4,6.27,10.05,11.02,13.94,4.75,3.9,10.58,5.84,17.48,5.84,6.02,0,10.84-1.72,14.47-5.15,3.63-3.44,5.44-7.76,5.44-12.98,0-2.95-.56-5.52-1.68-7.73-1.12-2.21-2.74-4.19-4.87-5.94-2.12-1.75-5.03-3.62-8.72-5.61-3.69-1.99-7.89-4.1-12.61-6.3-7.26-3.56-13.22-7.15-17.88-10.77-4.66-3.62-8.19-7.13-10.58-10.54s-4.04-6.64-4.96-9.71c-.92-3.07-1.37-6.17-1.37-9.3,0-5.58,1.44-11.09,4.34-16.52,2.89-5.43,7.12-9.88,12.7-13.34,5.58-3.47,12.02-5.2,19.34-5.2,5.6,0,10.94,1.3,16.02,3.91,5.07,2.61,9.47,6.18,13.19,10.72,1.06-2.58,2.04-6.2,2.92-10.86h8.32v34.79h-8.32c-5.9-18.96-16.17-28.44-30.8-28.44-5.31,0-9.57,1.46-12.79,4.37-3.22,2.92-4.82,6.67-4.82,11.27,0,3.62,1,6.76,3.01,9.43,2,2.67,4.65,4.96,7.92,6.86,3.27,1.9,8.57,4.63,15.88,8.19,8.85,4.36,15.77,8.13,20.75,11.32,4.99,3.19,9.2,7.21,12.66,12.06,3.45,4.85,5.18,10.71,5.18,17.58Zm165.22-5.89l-.8,41.69h-106.9v-8.47c7.38,0,12.12-1.1,14.25-3.31s3.19-6.01,3.19-11.41v-78.41c0-3.62-.35-6.43-1.06-8.42-.71-1.99-2.34-3.54-4.91-4.65s-6.39-1.66-11.46-1.66v-8.47h60.35v8.47c-5.02,0-8.81.52-11.37,1.56-2.57,1.04-4.25,2.56-5.04,4.56-.8,1.99-1.19,4.86-1.19,8.6v71.79c0,5.65.26,9.7.8,12.15.53,2.46,1.98,4.31,4.34,5.57,2.36,1.26,6.22,1.89,11.59,1.89,6.78,0,12.73-.54,17.83-1.61,5.1-1.07,9.82-3.93,14.16-8.56,4.34-4.63,7.04-11.73,8.1-21.31h8.14Zm111.1-47.67h-8.41c-.77-7.73-2.4-13.44-4.91-17.12-2.51-3.68-5.21-5.95-8.1-6.81-2.89-.86-6.22-1.29-10-1.29h-15.22v91.39c0,3.62.35,6.43,1.06,8.42.71,1.99,2.36,3.54,4.96,4.65,2.6,1.1,6.4,1.66,11.42,1.66v8.47h-60.18v-8.47c7.38,0,12.12-1.1,14.25-3.31s3.19-6.01,3.19-11.41v-91.39h-12.74c-5.01,0-9.17.41-12.48,1.24-3.3.83-6.21,3.1-8.72,6.81-2.51,3.71-3.94,9.43-4.29,17.17h-8.41v-35.43h118.58v35.43Zm136.11,28.07c0,9.02-1.48,17.17-4.42,24.44-2.95,7.27-6.76,13.33-11.42,18.18-4.66,4.85-9.65,8.5-14.96,10.95-11.21,5.15-24.93,7.73-41.15,7.73h-54.78v-8.47c5.07,0,8.91-.51,11.5-1.52,2.6-1.01,4.29-2.53,5.09-4.56.8-2.02,1.19-4.91,1.19-8.65v-78.78c0-5.4-1.06-9.2-3.19-11.41s-6.99-3.31-14.6-3.31v-8.65l25.75-.55c.88,0,4.48-.06,10.8-.18,6.31-.12,9.97-.18,10.97-.18,9.85,0,18.21.55,25.09,1.66,6.87,1.1,13.17,2.88,18.89,5.34,5.25,2.21,10.09,5.29,14.51,9.25s8.16,8.47,11.19,13.53c3.04,5.06,5.38,10.57,7.04,16.52,1.65,5.95,2.48,12.18,2.48,18.68Zm-28.67-.55c0-12.95-2.38-23.79-7.12-32.53-4.75-8.74-11.19-14.8-19.34-18.18-3.54-1.47-7.3-2.41-11.28-2.81-3.98-.4-9.69-.6-17.12-.6v87.71c0,5.03.24,8.7.71,11,.47,2.3,1.86,4.05,4.16,5.25s5.87,1.79,10.71,1.79c14.34,0,24.47-5.21,30.4-15.65,5.93-10.43,8.89-22.42,8.89-35.99Zm58.14,50.53c0,4.05-1.36,7.46-4.07,10.22-2.71,2.76-5.99,4.14-9.82,4.14s-7.02-1.38-9.73-4.14c-2.71-2.76-4.07-6.17-4.07-10.22s1.33-7.49,3.98-10.31,5.93-4.23,9.82-4.23,7.18,1.4,9.87,4.19c2.68,2.79,4.03,6.24,4.03,10.35Z" stroke-width="0"/><path d="m1120.31,171.62h-6.55c-1.16-5.46-2.71-9.45-4.64-11.96-1.93-2.51-4.09-4.06-6.48-4.64-2.39-.58-5.73-.87-10-.87h-16.87v34.73h8.85c4.18,0,7.02-.75,8.51-2.25,1.49-1.5,2.37-4.81,2.65-9.93h6.41v32.7h-6.55c-.23-3.77-.66-6.48-1.29-8.12-.63-1.64-1.7-2.78-3.21-3.41-1.51-.63-3.78-.94-6.8-.94h-8.58v29.22c0,3.96.75,6.89,2.27,8.77,1.51,1.89,5.1,2.83,10.77,2.83h1.95v6.67h-48.52v-6.67c5.76,0,9.47-.88,11.12-2.65,1.65-1.76,2.48-4.75,2.48-8.95v-61.77c0-2.8-.28-4.99-.84-6.56-.56-1.57-1.82-2.8-3.8-3.7s-4.96-1.34-8.96-1.34v-6.67h77.38l.7,25.52Z" stroke-width="0"/><path d="m1174.34,244.41h-47.96v-6.67c4,0,7.02-.4,9.06-1.2,2.04-.8,3.38-1.99,4.01-3.59.63-1.6.94-3.87.94-6.82v-61.77c0-4.25-.85-7.25-2.54-8.99-1.7-1.74-5.52-2.61-11.47-2.61v-6.67h47.96v6.67c-4,0-7.02.41-9.06,1.23-2.05.82-3.38,2.02-4.01,3.59-.63,1.57-.94,3.83-.94,6.78v61.77c0,2.8.3,5,.91,6.6.6,1.59,1.89,2.83,3.87,3.7,1.97.87,5.05,1.31,9.24,1.31v6.67Z" stroke-width="0"/><path d="m1282.89,244.41h-25.31c-.93-1.06-2.08-2.61-3.45-4.64-1.37-2.03-2.87-4.41-4.5-7.14s-2.97-4.99-4.04-6.78l-6.41-11.02c-2.88-4.93-5.05-8.3-6.52-10.11s-3.14-2.97-5.02-3.48c-1.88-.51-5.08-.76-9.59-.76h-3.56v25.67c0,2.71.28,4.88.84,6.53.56,1.64,1.87,2.9,3.94,3.77,2.07.87,5.08,1.31,9.03,1.31v6.67h-47.41v-6.67c5.76,0,9.47-.87,11.12-2.61,1.65-1.74,2.47-4.74,2.47-8.99v-62.06c0-4.21-.8-7.19-2.41-8.95-1.6-1.76-5.33-2.65-11.19-2.65v-6.82l21.89-.72c1.67-.1,3.59-.17,5.75-.22,2.16-.05,4.17-.07,6.03-.07,1.44,0,3.83.05,7.18.14,4.69.15,9.08.44,13.18.87,4.09.44,7.32.99,9.69,1.67,3.49.92,6.8,2.44,9.93,4.57,3.14,2.13,5.69,4.93,7.67,8.41,1.97,3.48,2.96,7.52,2.96,12.11,0,3.29-.69,6.48-2.06,9.57-1.37,3.09-3.58,5.85-6.62,8.27-3.04,2.42-7.05,4.33-12.03,5.73,3.39,2.08,6.27,4.65,8.64,7.72s6.09,8.71,11.15,16.93c2.93,4.69,5.34,8.23,7.25,10.62,1.91,2.39,3.66,4.01,5.26,4.86,1.6.85,3.64,1.39,6.1,1.63v6.67Zm-39.18-72.14c0-7.83-2.29-13.03-6.87-15.59-4.58-2.56-10.56-3.84-17.95-3.84-1.02,0-1.83.01-2.41.04-.58.03-1.24.04-1.99.04v39.51h4.39c7.02,0,12.91-1.18,17.67-3.55,4.76-2.37,7.15-7.9,7.15-16.6Z" stroke-width="0"/><path d="m1358.53,216.21c0,3.04-.63,6.27-1.88,9.68s-3.15,6.67-5.68,9.79c-2.53,3.12-5.73,5.66-9.59,7.61-3.86,1.96-8.32,2.94-13.38,2.94s-10-1.14-14.95-3.41c-4.95-2.27-9.14-5.66-12.58-10.15-1.49,3.58-2.44,6.89-2.86,9.93h-6.41v-33.64h6.41c1.16,4.83,2.76,9.38,4.81,13.63,2.04,4.25,4.94,7.92,8.68,10.98s8.33,4.6,13.77,4.6c4.74,0,8.54-1.35,11.4-4.06s4.29-6.11,4.29-10.22c0-2.32-.44-4.35-1.32-6.09-.88-1.74-2.16-3.3-3.83-4.68-1.67-1.38-3.96-2.85-6.87-4.42-2.91-1.57-6.22-3.23-9.93-4.97-5.72-2.8-10.41-5.63-14.08-8.48-3.67-2.85-6.45-5.62-8.33-8.3-1.88-2.68-3.18-5.23-3.9-7.65-.72-2.42-1.08-4.86-1.08-7.32,0-4.4,1.14-8.74,3.42-13.01,2.28-4.28,5.61-7.78,10-10.51,4.39-2.73,9.47-4.1,15.23-4.1,4.42,0,8.62,1.03,12.62,3.08,4,2.06,7.46,4.87,10.39,8.45.84-2.03,1.6-4.88,2.3-8.56h6.55v27.41h-6.55c-4.65-14.94-12.74-22.4-24.26-22.4-4.18,0-7.54,1.15-10.07,3.44-2.53,2.3-3.8,5.26-3.8,8.88,0,2.85.79,5.33,2.37,7.43s3.66,3.9,6.24,5.4c2.58,1.5,6.75,3.65,12.51,6.45,6.97,3.43,12.42,6.41,16.35,8.92,3.93,2.51,7.25,5.68,9.97,9.5,2.72,3.82,4.08,8.44,4.08,13.85Z" stroke-width="0"/><path d="m1461.98,174.01h-6.62c-.61-6.09-1.89-10.58-3.87-13.49-1.98-2.9-4.1-4.69-6.38-5.37-2.28-.68-4.9-1.01-7.88-1.01h-11.99v72c0,2.85.28,5.06.84,6.63.56,1.57,1.86,2.79,3.9,3.66,2.04.87,5.04,1.31,8.99,1.31v6.67h-47.41v-6.67c5.81,0,9.55-.87,11.22-2.61,1.67-1.74,2.51-4.74,2.51-8.99v-72h-10.04c-3.95,0-7.23.33-9.83.98-2.6.65-4.89,2.44-6.87,5.37-1.98,2.92-3.1,7.43-3.38,13.52h-6.62v-27.91h93.42v27.91Z" stroke-width="0"/><path d="m1607.76,152.77c-4.51,0-7.74.47-9.69,1.41-1.95.94-3.16,2.33-3.62,4.17-.46,1.84-.7,4.83-.7,8.99v77.94h-6.41l-61.84-76.42v54.16c0,4.11.24,7.09.73,8.95.49,1.86,1.73,3.29,3.73,4.28,2,.99,5.23,1.49,9.69,1.49v6.67h-35.14v-6.67c4.18,0,7.21-.5,9.1-1.49,1.88-.99,3.04-2.42,3.49-4.28.44-1.86.66-4.84.66-8.95v-50.17c0-4.06-.1-7.1-.31-9.13s-.71-3.81-1.5-5.33c-.79-1.52-2.08-2.75-3.87-3.7-1.79-.94-4.26-1.58-7.42-1.92v-6.67h27.54l53.82,66.12v-44.88c0-3.67-.24-6.49-.73-8.45-.49-1.96-1.7-3.47-3.62-4.53-1.93-1.06-4.98-1.59-9.17-1.59v-6.67h35.28v6.67Z" stroke-width="0"/><path d="m1704.38,244.41h-44.55v-6.67c3.76,0,6.51-.28,8.23-.83,1.72-.56,2.58-1.87,2.58-3.95,0-1.45-.28-2.92-.84-4.42l-4.46-11.6h-30.67l-2.3,6.38c-1.3,3.58-1.95,6.16-1.95,7.76,0,2.9,1.08,4.74,3.24,5.51,2.16.77,4.68,1.16,7.56,1.16v6.67h-32.56v-6.67c2.6,0,4.81-.51,6.62-1.52,1.81-1.02,3.54-2.94,5.19-5.76,1.65-2.83,3.43-6.83,5.33-12l27.26-74.24h6.62l28.79,76.56c2.09,5.41,3.63,9.08,4.6,10.98s2.32,3.38,4.04,4.42c1.72,1.04,4.14,1.56,7.25,1.56v6.67Zm-41.55-34.58l-13.04-34.29-12.41,34.29h25.45Z" stroke-width="0"/><path d="m1796.33,174.01h-6.62c-.61-6.09-1.89-10.58-3.87-13.49-1.98-2.9-4.1-4.69-6.38-5.37-2.28-.68-4.9-1.01-7.88-1.01h-11.99v72c0,2.85.28,5.06.84,6.63.56,1.57,1.86,2.79,3.9,3.66,2.04.87,5.04,1.31,8.99,1.31v6.67h-47.41v-6.67c5.81,0,9.55-.87,11.22-2.61,1.67-1.74,2.51-4.74,2.51-8.99v-72h-10.04c-3.95,0-7.23.33-9.83.98-2.6.65-4.89,2.44-6.87,5.37-1.98,2.92-3.1,7.43-3.38,13.52h-6.62v-27.91h93.42v27.91Z" stroke-width="0"/><path d="m1850.85,244.41h-47.96v-6.67c4,0,7.02-.4,9.06-1.2,2.04-.8,3.38-1.99,4.01-3.59.63-1.6.94-3.87.94-6.82v-61.77c0-4.25-.85-7.25-2.54-8.99-1.7-1.74-5.52-2.61-11.47-2.61v-6.67h47.96v6.67c-4,0-7.02.41-9.06,1.23-2.05.82-3.38,2.02-4.01,3.59-.63,1.57-.94,3.83-.94,6.78v61.77c0,2.8.3,5,.91,6.6.6,1.59,1.89,2.83,3.87,3.7,1.97.87,5.05,1.31,9.24,1.31v6.67Z" stroke-width="0"/><path d="m1965.95,195.26c0,8.94-2.05,17.32-6.13,25.12-4.09,7.81-10.14,14.07-18.16,18.78-8.02,4.71-17.49,7.07-28.41,7.07-8.92,0-16.78-1.5-23.56-4.5-6.79-3-12.33-7.01-16.63-12.04-4.3-5.03-7.48-10.54-9.55-16.53-2.07-5.99-3.1-12.01-3.1-18.05,0-8.75,1.97-17.01,5.93-24.8,3.95-7.78,9.9-14.05,17.85-18.81s17.45-7.14,28.51-7.14c10.08,0,18.66,1.72,25.72,5.15,7.06,3.43,12.57,7.76,16.52,12.98,3.95,5.22,6.77,10.69,8.47,16.42,1.7,5.73,2.54,11.18,2.54,16.35Zm-22.59-.29c0-5.51-.45-10.73-1.36-15.66-.91-4.93-2.5-9.39-4.78-13.38-2.28-3.99-5.39-7.15-9.34-9.5-3.95-2.34-8.83-3.52-14.64-3.52-7.99,0-14.23,2.07-18.72,6.2s-7.53,9.31-9.13,15.52c-1.6,6.21-2.41,12.99-2.41,20.34,0,4.06.25,8.29.77,12.69.51,4.4,1.74,8.91,3.69,13.52,1.95,4.62,5.07,8.51,9.34,11.67,4.28,3.17,9.81,4.75,16.59,4.75s12.21-1.63,16.42-4.89,7.27-7.25,9.2-11.96c1.93-4.71,3.14-9.22,3.63-13.52.49-4.3.73-8.38.73-12.25Z" stroke-width="0"/><path d="m2078.88,152.77c-4.51,0-7.74.47-9.69,1.41-1.95.94-3.16,2.33-3.62,4.17-.46,1.84-.7,4.83-.7,8.99v77.94h-6.41l-61.84-76.42v54.16c0,4.11.24,7.09.73,8.95.49,1.86,1.73,3.29,3.73,4.28,2,.99,5.23,1.49,9.69,1.49v6.67h-35.14v-6.67c4.18,0,7.21-.5,9.1-1.49,1.88-.99,3.04-2.42,3.49-4.28.44-1.86.66-4.84.66-8.95v-50.17c0-4.06-.1-7.1-.31-9.13s-.71-3.81-1.5-5.33c-.79-1.52-2.08-2.75-3.87-3.7-1.79-.94-4.26-1.58-7.42-1.92v-6.67h27.54l53.82,66.12v-44.88c0-3.67-.24-6.49-.73-8.45-.49-1.96-1.7-3.47-3.62-4.53-1.93-1.06-4.98-1.59-9.17-1.59v-6.67h35.28v6.67Z" stroke-width="0"/><path d="m2156.75,216.21c0,3.04-.63,6.27-1.88,9.68s-3.15,6.67-5.68,9.79c-2.53,3.12-5.73,5.66-9.59,7.61-3.86,1.96-8.32,2.94-13.38,2.94s-10-1.14-14.95-3.41c-4.95-2.27-9.14-5.66-12.58-10.15-1.49,3.58-2.44,6.89-2.86,9.93h-6.41v-33.64h6.41c1.16,4.83,2.76,9.38,4.81,13.63,2.04,4.25,4.94,7.92,8.68,10.98s8.33,4.6,13.77,4.6c4.74,0,8.54-1.35,11.4-4.06s4.29-6.11,4.29-10.22c0-2.32-.44-4.35-1.32-6.09-.88-1.74-2.16-3.3-3.83-4.68-1.67-1.38-3.96-2.85-6.87-4.42-2.91-1.57-6.22-3.23-9.93-4.97-5.72-2.8-10.41-5.63-14.08-8.48-3.67-2.85-6.45-5.62-8.33-8.3-1.88-2.68-3.18-5.23-3.9-7.65-.72-2.42-1.08-4.86-1.08-7.32,0-4.4,1.14-8.74,3.42-13.01,2.28-4.28,5.61-7.78,10-10.51,4.39-2.73,9.47-4.1,15.23-4.1,4.42,0,8.62,1.03,12.62,3.08,4,2.06,7.46,4.87,10.39,8.45.84-2.03,1.6-4.88,2.3-8.56h6.55v27.41h-6.55c-4.65-14.94-12.74-22.4-24.26-22.4-4.18,0-7.54,1.15-10.07,3.44-2.53,2.3-3.8,5.26-3.8,8.88,0,2.85.79,5.33,2.37,7.43s3.66,3.9,6.24,5.4c2.58,1.5,6.75,3.65,12.51,6.45,6.97,3.43,12.42,6.41,16.35,8.92,3.93,2.51,7.25,5.68,9.97,9.5,2.72,3.82,4.08,8.44,4.08,13.85Z" stroke-width="0"/><path d="m1127.22,349.63l-.77,32.34h-84.21v-6.67c5.81,0,9.55-.87,11.22-2.61,1.67-1.74,2.51-4.74,2.51-8.99v-61.77c0-2.8-.27-4.99-.8-6.56-.53-1.57-1.79-2.8-3.76-3.7s-5.03-1.34-9.17-1.34v-6.67h78.43l1.25,25.52h-6.41c-1.44-5.66-3.1-9.7-4.98-12.14-1.88-2.44-4-3.94-6.34-4.5-2.35-.55-5.87-.83-10.56-.83h-17.71v34.73h9.62c3.3,0,5.76-.3,7.39-.91,1.63-.6,2.76-1.75,3.42-3.44.65-1.69,1.09-4.35,1.32-7.97h6.69v32.7h-6.41c-.19-3.62-.65-6.29-1.39-8.01-.74-1.71-1.92-2.86-3.52-3.44s-4.06-.87-7.36-.87h-9.76v23.13c0,3.87.09,6.7.28,8.48.18,1.79.68,3.28,1.5,4.46.81,1.18,2.14,2.04,3.97,2.57,1.83.53,4.45.8,7.84.8h7.6c3.21,0,6.26-.42,9.17-1.27,2.9-.85,5.75-3.02,8.54-6.53,2.79-3.5,4.74-9,5.86-16.49h6.55Z" stroke-width="0"/><path d="m1238.69,290.32c-4.51,0-7.74.47-9.69,1.41-1.95.94-3.16,2.33-3.62,4.17-.46,1.84-.7,4.83-.7,8.99v77.94h-6.41l-61.84-76.42v54.16c0,4.11.24,7.09.73,8.95.49,1.86,1.73,3.29,3.73,4.28,2,.99,5.23,1.49,9.69,1.49v6.67h-35.14v-6.67c4.18,0,7.21-.5,9.1-1.49,1.88-.99,3.04-2.42,3.49-4.28.44-1.86.66-4.84.66-8.95v-50.17c0-4.06-.1-7.1-.31-9.13s-.71-3.81-1.5-5.33c-.79-1.52-2.08-2.75-3.87-3.7-1.79-.94-4.26-1.58-7.42-1.92v-6.67h27.54l53.82,66.12v-44.88c0-3.67-.24-6.49-.73-8.45-.49-1.96-1.7-3.47-3.62-4.53-1.93-1.06-4.98-1.59-9.17-1.59v-6.67h35.28v6.67Z" stroke-width="0"/><path d="m1350.44,343.18c-2.7.29-4.73.74-6.1,1.34-1.37.6-2.31,1.64-2.82,3.12-.51,1.47-.77,3.76-.77,6.85v23.06c-6.74,0-14.04.92-21.89,2.75-5.67,1.31-9.92,2.21-12.76,2.72-2.83.51-6.18.76-10.04.76-10.22,0-18.99-2.49-26.28-7.47-7.3-4.98-12.77-11.38-16.42-19.21-3.65-7.83-5.47-15.88-5.47-24.14,0-9.47,2.16-18.11,6.48-25.92,4.32-7.81,10.18-13.94,17.57-18.42,7.39-4.47,15.48-6.71,24.26-6.71,10.69,0,20.43,3.84,29.21,11.53,1.07-2.08,1.93-4.93,2.58-8.56h6.76l.7,32.19h-6.41c-.98-4.88-2.81-9.35-5.51-13.41-2.7-4.06-6.05-7.27-10.07-9.64-4.02-2.37-8.45-3.55-13.28-3.55-3.53,0-7,.64-10.39,1.92-3.39,1.28-6.57,3.5-9.52,6.67-2.95,3.17-5.32,7.48-7.11,12.94-1.79,5.46-2.68,12.21-2.68,20.23,0,6.86.7,13.46,2.09,19.79s4.23,11.77,8.5,16.31c4.28,4.54,10.32,6.82,18.13,6.82,6.13,0,10.78-1,13.94-3.01,3.16-2,5.22-4.46,6.17-7.36.95-2.9,1.43-6.14,1.43-9.71,0-3.38-.24-5.85-.73-7.4-.49-1.55-1.63-2.68-3.42-3.41-1.79-.73-4.54-1.09-8.26-1.09v-6.67h42.11v6.67Z" stroke-width="0"/><path d="m1401.68,381.97h-47.96v-6.67c4,0,7.02-.4,9.06-1.2,2.04-.8,3.38-1.99,4.01-3.59.63-1.6.94-3.87.94-6.82v-61.77c0-4.25-.85-7.25-2.54-8.99-1.7-1.74-5.52-2.61-11.47-2.61v-6.67h47.96v6.67c-4,0-7.02.41-9.06,1.23-2.05.82-3.38,2.02-4.01,3.59-.63,1.57-.94,3.83-.94,6.78v61.77c0,2.8.3,5,.91,6.6.6,1.59,1.89,2.83,3.87,3.7,1.97.87,5.05,1.31,9.24,1.31v6.67Z" stroke-width="0"/><path d="m1510.78,290.32c-4.51,0-7.74.47-9.69,1.41-1.95.94-3.16,2.33-3.62,4.17-.46,1.84-.7,4.83-.7,8.99v77.94h-6.41l-61.84-76.42v54.16c0,4.11.24,7.09.73,8.95.49,1.86,1.73,3.29,3.73,4.28,2,.99,5.23,1.49,9.69,1.49v6.67h-35.14v-6.67c4.18,0,7.21-.5,9.1-1.49,1.88-.99,3.04-2.42,3.49-4.28.44-1.86.66-4.84.66-8.95v-50.17c0-4.06-.1-7.1-.31-9.13s-.71-3.81-1.5-5.33c-.79-1.52-2.08-2.75-3.87-3.7-1.79-.94-4.26-1.58-7.42-1.92v-6.67h27.54l53.82,66.12v-44.88c0-3.67-.24-6.49-.73-8.45-.49-1.96-1.7-3.47-3.62-4.53-1.93-1.06-4.98-1.59-9.17-1.59v-6.67h35.28v6.67Z" stroke-width="0"/><path d="m1601.41,349.63l-.77,32.34h-84.21v-6.67c5.81,0,9.55-.87,11.22-2.61,1.67-1.74,2.51-4.74,2.51-8.99v-61.77c0-2.8-.27-4.99-.8-6.56-.53-1.57-1.79-2.8-3.76-3.7s-5.03-1.34-9.17-1.34v-6.67h78.43l1.25,25.52h-6.41c-1.44-5.66-3.1-9.7-4.98-12.14-1.88-2.44-4-3.94-6.34-4.5-2.35-.55-5.87-.83-10.56-.83h-17.71v34.73h9.62c3.3,0,5.76-.3,7.39-.91,1.63-.6,2.76-1.75,3.42-3.44.65-1.69,1.09-4.35,1.32-7.97h6.69v32.7h-6.41c-.19-3.62-.65-6.29-1.39-8.01-.74-1.71-1.92-2.86-3.52-3.44s-4.06-.87-7.36-.87h-9.76v23.13c0,3.87.09,6.7.28,8.48.18,1.79.68,3.28,1.5,4.46.81,1.18,2.14,2.04,3.97,2.57,1.83.53,4.45.8,7.84.8h7.6c3.21,0,6.26-.42,9.17-1.27,2.9-.85,5.75-3.02,8.54-6.53,2.79-3.5,4.74-9,5.86-16.49h6.55Z" stroke-width="0"/><path d="m1695.04,349.63l-.77,32.34h-84.21v-6.67c5.81,0,9.55-.87,11.22-2.61,1.67-1.74,2.51-4.74,2.51-8.99v-61.77c0-2.8-.27-4.99-.8-6.56-.53-1.57-1.79-2.8-3.76-3.7s-5.03-1.34-9.17-1.34v-6.67h78.43l1.25,25.52h-6.41c-1.44-5.66-3.1-9.7-4.98-12.14-1.88-2.44-4-3.94-6.34-4.5-2.35-.55-5.87-.83-10.56-.83h-17.71v34.73h9.62c3.3,0,5.76-.3,7.39-.91,1.63-.6,2.76-1.75,3.42-3.44.65-1.69,1.09-4.35,1.32-7.97h6.69v32.7h-6.41c-.19-3.62-.65-6.29-1.39-8.01-.74-1.71-1.92-2.86-3.52-3.44s-4.06-.87-7.36-.87h-9.76v23.13c0,3.87.09,6.7.28,8.48.18,1.79.68,3.28,1.5,4.46.81,1.18,2.14,2.04,3.97,2.57,1.83.53,4.45.8,7.84.8h7.6c3.21,0,6.26-.42,9.17-1.27,2.9-.85,5.75-3.02,8.54-6.53,2.79-3.5,4.74-9,5.86-16.49h6.55Z" stroke-width="0"/><path d="m1805.95,381.97h-25.31c-.93-1.06-2.08-2.61-3.45-4.64-1.37-2.03-2.87-4.41-4.5-7.14s-2.97-4.99-4.04-6.78l-6.41-11.02c-2.88-4.93-5.05-8.3-6.52-10.11s-3.14-2.97-5.02-3.48c-1.88-.51-5.08-.76-9.59-.76h-3.56v25.67c0,2.71.28,4.88.84,6.53.56,1.64,1.87,2.9,3.94,3.77,2.07.87,5.08,1.31,9.03,1.31v6.67h-47.41v-6.67c5.76,0,9.47-.87,11.12-2.61,1.65-1.74,2.47-4.74,2.47-8.99v-62.06c0-4.21-.8-7.19-2.41-8.95-1.6-1.76-5.33-2.65-11.19-2.65v-6.82l21.89-.72c1.67-.1,3.59-.17,5.75-.22,2.16-.05,4.17-.07,6.03-.07,1.44,0,3.83.05,7.18.14,4.69.15,9.08.44,13.18.87,4.09.44,7.32.99,9.69,1.67,3.49.92,6.8,2.44,9.93,4.57,3.14,2.13,5.69,4.93,7.67,8.41,1.97,3.48,2.96,7.52,2.96,12.11,0,3.29-.69,6.48-2.06,9.57-1.37,3.09-3.58,5.85-6.62,8.27-3.04,2.42-7.05,4.33-12.03,5.73,3.39,2.08,6.27,4.65,8.64,7.72s6.09,8.71,11.15,16.93c2.93,4.69,5.34,8.23,7.25,10.62,1.91,2.39,3.66,4.01,5.26,4.86,1.6.85,3.64,1.39,6.1,1.63v6.67Zm-39.18-72.14c0-7.83-2.29-13.03-6.87-15.59-4.58-2.56-10.56-3.84-17.95-3.84-1.02,0-1.83.01-2.41.04-.58.03-1.24.04-1.99.04v39.51h4.39c7.02,0,12.91-1.18,17.67-3.55,4.76-2.37,7.15-7.9,7.15-16.6Z" stroke-width="0"/><path d="m1856.64,381.97h-47.96v-6.67c4,0,7.02-.4,9.06-1.2,2.04-.8,3.38-1.99,4.01-3.59.63-1.6.94-3.87.94-6.82v-61.77c0-4.25-.85-7.25-2.54-8.99-1.7-1.74-5.52-2.61-11.47-2.61v-6.67h47.96v6.67c-4,0-7.02.41-9.06,1.23-2.05.82-3.38,2.02-4.01,3.59-.63,1.57-.94,3.83-.94,6.78v61.77c0,2.8.3,5,.91,6.6.6,1.59,1.89,2.83,3.87,3.7,1.97.87,5.05,1.31,9.24,1.31v6.67Z" stroke-width="0"/><path d="m1965.74,290.32c-4.51,0-7.74.47-9.69,1.41-1.95.94-3.16,2.33-3.62,4.17-.46,1.84-.7,4.83-.7,8.99v77.94h-6.41l-61.84-76.42v54.16c0,4.11.24,7.09.73,8.95.49,1.86,1.73,3.29,3.73,4.28,2,.99,5.23,1.49,9.69,1.49v6.67h-35.14v-6.67c4.18,0,7.21-.5,9.1-1.49,1.88-.99,3.04-2.42,3.49-4.28.44-1.86.66-4.84.66-8.95v-50.17c0-4.06-.1-7.1-.31-9.13s-.71-3.81-1.5-5.33c-.79-1.52-2.08-2.75-3.87-3.7-1.79-.94-4.26-1.58-7.42-1.92v-6.67h27.54l53.82,66.12v-44.88c0-3.67-.24-6.49-.73-8.45-.49-1.96-1.7-3.47-3.62-4.53-1.93-1.06-4.98-1.59-9.17-1.59v-6.67h35.28v6.67Z" stroke-width="0"/><path d="m2077.49,343.18c-2.7.29-4.73.74-6.1,1.34-1.37.6-2.31,1.64-2.82,3.12-.51,1.47-.77,3.76-.77,6.85v23.06c-6.74,0-14.04.92-21.89,2.75-5.67,1.31-9.92,2.21-12.76,2.72-2.83.51-6.18.76-10.04.76-10.22,0-18.99-2.49-26.28-7.47-7.3-4.98-12.77-11.38-16.42-19.21-3.65-7.83-5.47-15.88-5.47-24.14,0-9.47,2.16-18.11,6.48-25.92,4.32-7.81,10.18-13.94,17.57-18.42,7.39-4.47,15.48-6.71,24.26-6.71,10.69,0,20.43,3.84,29.21,11.53,1.07-2.08,1.93-4.93,2.58-8.56h6.76l.7,32.19h-6.41c-.98-4.88-2.81-9.35-5.51-13.41-2.7-4.06-6.05-7.27-10.07-9.64-4.02-2.37-8.45-3.55-13.28-3.55-3.53,0-7,.64-10.39,1.92-3.39,1.28-6.57,3.5-9.52,6.67-2.95,3.17-5.32,7.48-7.11,12.94-1.79,5.46-2.68,12.21-2.68,20.23,0,6.86.7,13.46,2.09,19.79s4.23,11.77,8.5,16.31c4.28,4.54,10.32,6.82,18.13,6.82,6.13,0,10.78-1,13.94-3.01,3.16-2,5.22-4.46,6.17-7.36.95-2.9,1.43-6.14,1.43-9.71,0-3.38-.24-5.85-.73-7.4-.49-1.55-1.63-2.68-3.42-3.41-1.79-.73-4.54-1.09-8.26-1.09v-6.67h42.11v6.67Z" stroke-width="0"/><path d="m1114.46,491.32c0,3.04-.63,6.27-1.88,9.68s-3.15,6.67-5.68,9.79c-2.53,3.12-5.73,5.66-9.59,7.61-3.86,1.96-8.32,2.94-13.38,2.94s-10-1.14-14.95-3.41c-4.95-2.27-9.14-5.66-12.58-10.15-1.49,3.58-2.44,6.89-2.86,9.93h-6.41v-33.64h6.41c1.16,4.83,2.76,9.38,4.81,13.63,2.04,4.25,4.94,7.92,8.68,10.98s8.33,4.6,13.77,4.6c4.74,0,8.54-1.35,11.4-4.06s4.29-6.11,4.29-10.22c0-2.32-.44-4.35-1.32-6.09-.88-1.74-2.16-3.3-3.83-4.68-1.67-1.38-3.96-2.85-6.87-4.42-2.91-1.57-6.22-3.23-9.93-4.97-5.72-2.8-10.41-5.63-14.08-8.48-3.67-2.85-6.45-5.62-8.33-8.3-1.88-2.68-3.18-5.23-3.9-7.65-.72-2.42-1.08-4.86-1.08-7.32,0-4.4,1.14-8.74,3.42-13.01,2.28-4.28,5.61-7.78,10-10.51,4.39-2.73,9.47-4.1,15.23-4.1,4.42,0,8.62,1.03,12.62,3.08,4,2.06,7.46,4.87,10.39,8.45.84-2.03,1.6-4.88,2.3-8.56h6.55v27.41h-6.55c-4.65-14.94-12.74-22.4-24.26-22.4-4.18,0-7.54,1.15-10.07,3.44-2.53,2.3-3.8,5.26-3.8,8.88,0,2.85.79,5.33,2.37,7.43s3.66,3.9,6.24,5.4c2.58,1.5,6.75,3.65,12.51,6.45,6.97,3.43,12.42,6.41,16.35,8.92,3.93,2.51,7.25,5.68,9.97,9.5,2.72,3.82,4.08,8.44,4.08,13.85Z" stroke-width="0"/><path d="m1209.06,487.19l-.77,32.34h-84.21v-6.67c5.81,0,9.55-.87,11.22-2.61,1.67-1.74,2.51-4.74,2.51-8.99v-61.77c0-2.8-.27-4.99-.8-6.56-.53-1.57-1.79-2.8-3.76-3.7s-5.03-1.34-9.17-1.34v-6.67h78.43l1.25,25.52h-6.41c-1.44-5.66-3.1-9.7-4.98-12.14-1.88-2.44-4-3.94-6.34-4.5-2.35-.55-5.87-.83-10.56-.83h-17.71v34.73h9.62c3.3,0,5.76-.3,7.39-.91,1.63-.6,2.76-1.75,3.42-3.44.65-1.69,1.09-4.35,1.32-7.97h6.69v32.7h-6.41c-.19-3.62-.65-6.29-1.39-8.01-.74-1.71-1.92-2.86-3.52-3.44s-4.06-.87-7.36-.87h-9.76v23.13c0,3.87.09,6.7.28,8.48.18,1.79.68,3.28,1.5,4.46.81,1.18,2.14,2.04,3.97,2.57,1.83.53,4.45.8,7.84.8h7.6c3.21,0,6.26-.42,9.17-1.27,2.9-.85,5.75-3.02,8.54-6.53,2.79-3.5,4.74-9,5.86-16.49h6.55Z" stroke-width="0"/><path d="m1319.98,519.52h-25.31c-.93-1.06-2.08-2.61-3.45-4.64-1.37-2.03-2.87-4.41-4.5-7.14s-2.97-4.99-4.04-6.78l-6.41-11.02c-2.88-4.93-5.05-8.3-6.52-10.11s-3.14-2.97-5.02-3.48c-1.88-.51-5.08-.76-9.59-.76h-3.56v25.67c0,2.71.28,4.88.84,6.53.56,1.64,1.87,2.9,3.94,3.77,2.07.87,5.08,1.31,9.03,1.31v6.67h-47.41v-6.67c5.76,0,9.47-.87,11.12-2.61,1.65-1.74,2.47-4.74,2.47-8.99v-62.06c0-4.21-.8-7.19-2.41-8.95-1.6-1.76-5.33-2.65-11.19-2.65v-6.82l21.89-.72c1.67-.1,3.59-.17,5.75-.22,2.16-.05,4.17-.07,6.03-.07,1.44,0,3.83.05,7.18.14,4.69.15,9.08.44,13.18.87,4.09.44,7.32.99,9.69,1.67,3.49.92,6.8,2.44,9.93,4.57,3.14,2.13,5.69,4.93,7.67,8.41,1.97,3.48,2.96,7.52,2.96,12.11,0,3.29-.69,6.48-2.06,9.57-1.37,3.09-3.58,5.85-6.62,8.27-3.04,2.42-7.05,4.33-12.03,5.73,3.39,2.08,6.27,4.65,8.64,7.72s6.09,8.71,11.15,16.93c2.93,4.69,5.34,8.23,7.25,10.62,1.91,2.39,3.66,4.01,5.26,4.86,1.6.85,3.64,1.39,6.1,1.63v6.67Zm-39.18-72.14c0-7.83-2.29-13.03-6.87-15.59-4.58-2.56-10.56-3.84-17.95-3.84-1.02,0-1.83.01-2.41.04-.58.03-1.24.04-1.99.04v39.51h4.39c7.02,0,12.91-1.18,17.67-3.55,4.76-2.37,7.15-7.9,7.15-16.6Z" stroke-width="0"/><path d="m1414.79,427.88c-2.23.05-4.17.36-5.82.94-1.65.58-3.01,1.49-4.08,2.72-1.07,1.23-2.14,2.91-3.21,5.04-1.07,2.13-2.56,5.46-4.46,10.01l-30.81,74.75h-6.48l-32.21-78.45c-2-4.88-3.56-8.24-4.67-10.08s-2.6-3.12-4.46-3.84c-1.86-.73-4.62-1.09-8.3-1.09v-6.67h48.1v6.67c-4.56.19-7.72.58-9.48,1.16-1.77.58-2.65,2.03-2.65,4.35,0,2.17.56,4.5,1.67,6.96l21.75,52.56,20.08-49.08c1.72-4.25,2.58-7.18,2.58-8.77,0-3.14-1.05-5.1-3.14-5.87-2.09-.77-5.23-1.21-9.41-1.3v-6.67h35v6.67Z" stroke-width="0"/><path d="m1467.42,519.52h-47.96v-6.67c4,0,7.02-.4,9.06-1.2,2.04-.8,3.38-1.99,4.01-3.59.63-1.6.94-3.87.94-6.82v-61.77c0-4.25-.85-7.25-2.54-8.99-1.7-1.74-5.52-2.61-11.47-2.61v-6.67h47.96v6.67c-4,0-7.02.41-9.06,1.23-2.05.82-3.38,2.02-4.01,3.59-.63,1.57-.94,3.83-.94,6.78v61.77c0,2.8.3,5,.91,6.6.6,1.59,1.89,2.83,3.87,3.7,1.97.87,5.05,1.31,9.24,1.31v6.67Z" stroke-width="0"/><path d="m1566.9,518.51h-6.55c-.98-4.16-2.58-7.88-4.81-11.17-3.53,3.82-7.58,7.11-12.13,9.86s-10.71,4.13-18.47,4.13c-8.51,0-16.4-2.15-23.67-6.45-7.27-4.3-13.07-10.31-17.39-18.02-4.32-7.71-6.48-16.4-6.48-26.06,0-6.86,1.17-13.41,3.52-19.65,2.35-6.24,5.69-11.72,10.04-16.46,4.35-4.74,9.53-8.46,15.55-11.17,6.02-2.71,12.61-4.06,19.76-4.06,11.8,0,21.56,4.01,29.28,12.04,1.02-2.08,2.02-5.1,3-9.06h6.27l1.12,36.18h-6.69c-1.21-6.14-3.39-11.6-6.55-16.39-3.16-4.79-6.91-8.45-11.26-10.98-4.35-2.54-8.89-3.81-13.63-3.81-5.3,0-10.06,1.51-14.29,4.53-4.23,3.02-7.54,7.62-9.93,13.81-2.39,6.19-3.59,13.9-3.59,23.13s1,16.47,3,22.44c2,5.97,4.47,10.48,7.42,13.52s5.91,5.11,8.89,6.2c2.97,1.09,5.76,1.63,8.37,1.63,5.72,0,10.86-1.59,15.44-4.79,4.58-3.19,8.33-7.21,11.26-12.07,2.93-4.86,4.88-9.68,5.86-14.46h6.69v37.12Z" stroke-width="0"/><path d="m1664.36,487.19l-.77,32.34h-84.21v-6.67c5.81,0,9.55-.87,11.22-2.61,1.67-1.74,2.51-4.74,2.51-8.99v-61.77c0-2.8-.27-4.99-.8-6.56-.53-1.57-1.79-2.8-3.76-3.7s-5.03-1.34-9.17-1.34v-6.67h78.43l1.25,25.52h-6.41c-1.44-5.66-3.1-9.7-4.98-12.14-1.88-2.44-4-3.94-6.34-4.5-2.35-.55-5.87-.83-10.56-.83h-17.71v34.73h9.62c3.3,0,5.76-.3,7.39-.91,1.63-.6,2.76-1.75,3.42-3.44.65-1.69,1.09-4.35,1.32-7.97h6.69v32.7h-6.41c-.19-3.62-.65-6.29-1.39-8.01-.74-1.71-1.92-2.86-3.52-3.44s-4.06-.87-7.36-.87h-9.76v23.13c0,3.87.09,6.7.28,8.48.18,1.79.68,3.28,1.5,4.46.81,1.18,2.14,2.04,3.97,2.57,1.83.53,4.45.8,7.84.8h7.6c3.21,0,6.26-.42,9.17-1.27,2.9-.85,5.75-3.02,8.54-6.53,2.79-3.5,4.74-9,5.86-16.49h6.55Z" stroke-width="0"/><path d="m1745.23,491.32c0,3.04-.63,6.27-1.88,9.68s-3.15,6.67-5.68,9.79c-2.53,3.12-5.73,5.66-9.59,7.61-3.86,1.96-8.32,2.94-13.38,2.94s-10-1.14-14.95-3.41c-4.95-2.27-9.14-5.66-12.58-10.15-1.49,3.58-2.44,6.89-2.86,9.93h-6.41v-33.64h6.41c1.16,4.83,2.76,9.38,4.81,13.63,2.04,4.25,4.94,7.92,8.68,10.98s8.33,4.6,13.77,4.6c4.74,0,8.54-1.35,11.4-4.06s4.29-6.11,4.29-10.22c0-2.32-.44-4.35-1.32-6.09-.88-1.74-2.16-3.3-3.83-4.68-1.67-1.38-3.96-2.85-6.87-4.42-2.91-1.57-6.22-3.23-9.93-4.97-5.72-2.8-10.41-5.63-14.08-8.48-3.67-2.85-6.45-5.62-8.33-8.3-1.88-2.68-3.18-5.23-3.9-7.65-.72-2.42-1.08-4.86-1.08-7.32,0-4.4,1.14-8.74,3.42-13.01,2.28-4.28,5.61-7.78,10-10.51,4.39-2.73,9.47-4.1,15.23-4.1,4.42,0,8.62,1.03,12.62,3.08,4,2.06,7.46,4.87,10.39,8.45.84-2.03,1.6-4.88,2.3-8.56h6.55v27.41h-6.55c-4.65-14.94-12.74-22.4-24.26-22.4-4.18,0-7.54,1.15-10.07,3.44-2.53,2.3-3.8,5.26-3.8,8.88,0,2.85.79,5.33,2.37,7.43s3.66,3.9,6.24,5.4c2.58,1.5,6.75,3.65,12.51,6.45,6.97,3.43,12.42,6.41,16.35,8.92,3.93,2.51,7.25,5.68,9.97,9.5,2.72,3.82,4.08,8.44,4.08,13.85Z" stroke-width="0"/><path d="m1875.39,486.68l-.63,32.84h-84.21v-6.67c5.81,0,9.55-.87,11.22-2.61,1.67-1.74,2.51-4.74,2.51-8.99v-61.77c0-2.85-.28-5.06-.84-6.63-.56-1.57-1.85-2.79-3.87-3.66-2.02-.87-5.03-1.3-9.03-1.3v-6.67h47.54v6.67c-3.95,0-6.94.41-8.96,1.23-2.02.82-3.35,2.02-3.97,3.59-.63,1.57-.94,3.83-.94,6.78v56.55c0,4.45.21,7.64.63,9.57.42,1.93,1.56,3.4,3.42,4.39,1.86.99,4.9,1.49,9.13,1.49,5.34,0,10.03-.42,14.05-1.27,4.02-.85,7.74-3.09,11.15-6.74,3.42-3.65,5.54-9.24,6.38-16.78h6.41Z" stroke-width="0"/><path d="m1968.6,449.12h-6.62c-.61-6.09-1.89-10.58-3.87-13.49-1.98-2.9-4.1-4.69-6.38-5.37-2.28-.68-4.9-1.01-7.88-1.01h-11.99v72c0,2.85.28,5.06.84,6.63.56,1.57,1.86,2.79,3.9,3.66,2.04.87,5.04,1.31,8.99,1.31v6.67h-47.41v-6.67c5.81,0,9.55-.87,11.22-2.61,1.67-1.74,2.51-4.74,2.51-8.99v-72h-10.04c-3.95,0-7.23.33-9.83.98-2.6.65-4.89,2.44-6.87,5.37-1.98,2.92-3.1,7.43-3.38,13.52h-6.62v-27.91h93.42v27.91Z" stroke-width="0"/><path d="m2075.82,471.23c0,7.11-1.16,13.52-3.49,19.25-2.32,5.73-5.32,10.5-8.99,14.32-3.67,3.82-7.6,6.7-11.78,8.63-8.83,4.06-19.64,6.09-32.42,6.09h-43.15v-6.67c4,0,7.02-.4,9.06-1.2,2.04-.8,3.38-1.99,4.01-3.59.63-1.6.94-3.87.94-6.82v-62.06c0-4.25-.84-7.25-2.51-8.99-1.67-1.74-5.51-2.61-11.5-2.61v-6.82l20.29-.43c.7,0,3.53-.05,8.51-.15,4.97-.1,7.85-.14,8.64-.14,7.76,0,14.35.43,19.76,1.3,5.41.87,10.38,2.27,14.88,4.21,4.14,1.74,7.95,4.17,11.43,7.29,3.49,3.12,6.42,6.67,8.82,10.66,2.39,3.99,4.24,8.33,5.54,13.01,1.3,4.69,1.95,9.6,1.95,14.72Zm-22.59-.43c0-10.2-1.87-18.74-5.61-25.63s-8.82-11.66-15.23-14.32c-2.79-1.16-5.75-1.9-8.89-2.21-3.14-.31-7.63-.47-13.49-.47v69.09c0,3.96.18,6.85.56,8.66.37,1.81,1.46,3.19,3.28,4.13s4.62,1.41,8.44,1.41c11.29,0,19.28-4.11,23.95-12.33,4.67-8.22,7.01-17.67,7.01-28.35Z" stroke-width="0"/><path d="m2099.03,510.6c0,3.19-1.07,5.87-3.21,8.05s-4.72,3.26-7.74,3.26-5.53-1.09-7.67-3.26c-2.14-2.17-3.21-4.86-3.21-8.05s1.05-5.9,3.14-8.12c2.09-2.22,4.67-3.33,7.74-3.33s5.66,1.1,7.77,3.3c2.11,2.2,3.17,4.92,3.17,8.16Z" stroke-width="0"/></svg>