<?xml version="1.0" encoding="UTF-8"?><svg id="a" xmlns="http://www.w3.org/2000/svg" width="13.68in" height="9.74in" viewBox="0 0 984.6 700.93"><path d="m480.31,129.91h43.75l-14.75,19.75-8.5-11.25h-20.5v-8.5Zm188.54,401.75l-15.91,49.71-45.85-8.42-23.12-44.18-5.32,2.78,23.29,44.49-26.79,39.05-42.7-21.35-7.66-60.46-5.95.75,7.4,58.38-36.17,38.81-34.99-37.54,7.22-58.16-5.95-.74-7.23,58.23-44.13,22.07-24.44-35.63,19.02-43.09-5.49-2.42-17.52,39.7-.82-1.19-48.55,8.92-15.91-49.71h-95.62l-28.29,49.5h87.95l17.56,59.21,59.98-8.06,33.24,48.35,56.79-25.13,47.17,45.4,47.17-45.4,56.79,25.13,33.24-48.35,59.98,8.06,17.56-59.21h87.95l-28.29-49.5h-95.62Zm315.75-270.83l-34.53,54.67h-301.23l29.33-51h-56.65l-26,51h-201.75l-27.67-51h-57.41l28.33,51H33.87L0,262.15h259.5l-28.67-49.33h171.44c10.31-12.77,29.18-39.76,26.72-63.7-1.17-11.44-7.17-20.97-17.82-28.32l-5.28-3.65h152.93l.6.81c.54.73,13.34,18.18,16.38,40.93l.3,2.26h-31.93c4.67,8.71,18.7,35.24,30.32,60.89l5.35-9.22h174.05l-29.33,48h260.06Zm-412.6-34.52c-14.19-31.7-32.74-65.8-32.96-66.19l-1.61-2.96h34.05c-2.99-18-12.31-32.5-14.72-36h-138.59c8.71,7.49,13.68,16.74,14.79,27.57,1.48,14.5-3.84,31.44-15.84,50.34-4.3,6.78-8.67,12.52-12.07,16.7l21.85,41.3,33.45-45.71,31.36,46.03,34.76-46.12,27.78,45.64,17.74-30.61ZM220.86,111.99c.18.21.43.17.64-.01l2.98-2.67c1.39-1.24,2.57-1.37,3.44-.4.55.62,7.14,7.78,9.17,10.04l3.22,3.6c7.91,8.84,13.61,15.42,14.42,16.54.78.97.55,1.55-.79,2.74l-2.31,2.07c-.21.18-.31.37-.13.58l1.24,1.39c.23.26.43.27.63.08.77-.69,2.59-2.59,6.6-6.18,4.42-3.96,6.62-5.64,7.13-6.1.31-.28.32-.47.04-.78l-1.15-1.29c-.18-.21-.43-.17-.74.11l-2.52,2.25c-1.75,1.56-2.24,1.54-3.48.15-.69-.77-8.47-9.36-9.85-10.91l-1.7-1.9c.82-.74,4.58-4.09,7.27-5.95,1.27-.86,2.44-.79,3.9.12.66.43,2.4,1.65,2.82,2.01.28.21.47.32.68.04l.79-1.08c.21-.28.22-.48,0-.73-1.02-.94-3.39-3.27-5.04-5.12-.64-.72-4.46-4.99-5.14-5.95-.18-.21-.42-.27-.63-.08l-1.07.87c-.21.18-.17.43-.04.68.67,1.06,1.43,2.33,1.74,2.98.96,2.01.71,3.07-.24,4.29-.53.65-5.79,5.64-6.51,6.28l-2.3-2.57c-2.81-3.14-12-13.52-12.6-14.19,1.54-1.38,9.86-8.54,11.42-9.38,1.81-.97,3.83-1.2,5.76-.8,3.29.67,6.32,1.38,7.52,1.79.43.17.63.18.73,0l.6-1.19c.06-.14.02-.29-.22-.45-1.56-1.02-9.31-6.58-10.25-7.31-.59.99-18.69,17.09-19.56,17.87-2.47,2.21-4.26,3.72-5.49,4.73-1.18,1.06-1.85,1.56-2.15,1.83-.21.18-.27.42-.08.63l1.24,1.39Zm33.21-28.78c.16.22.41.21.69,0l3.23-2.36c2.12-1.55,3.08-1.39,4.17-.14.67.8,8.15,10.71,9.13,12.05l2.85,3.9c2.16,2.96,10.77,15.12,11.27,16.04.83,1.61-.21,2.63-1.33,3.45l-3.12,2.28c-.28.2-.36.44-.2.66l1.1,1.51c.16.22.41.21.69,0,.61-.45,2.89-2.36,8.19-6.23,4.85-3.54,7.2-5,7.87-5.49.33-.24.42-.48.26-.7l-1.06-1.45c-.2-.28-.45-.27-.73-.06l-2.29,1.67c-1.78,1.3-2.82,1.63-4.08-.1-.45-.61-10.01-13.37-10.41-13.93l-3.13-4.29c-.49-.67-9.31-13.11-9.71-13.67-.81-1.12-.3-2.17.81-2.98l2.62-1.91c.28-.2.36-.44.16-.72l-1.02-1.39c-.16-.22-.4-.31-.67-.11-.78.57-2.44,2.04-7.41,5.66-5.19,3.78-8.15,5.69-8.82,6.18-.22.16-.31.39-.15.62l1.1,1.51Zm25.46-20.7c-.17-.3-.18-.45.12-.63.54-.31,2.5-1.19,7.53-4.07,3.35-1.92,8.82-5.28,9.9-5.9,4.97-2.84,9.78-3.61,13.29-2.75,3.07.79,5.75,2.83,7.02,5.05,4.28,7.49,2.48,12.25-4.23,18.32l.07.12c1.75-.28,3.2.32,4.06.7,1.16.37,8.91,4.04,9.83,4.55.64.43,7.59,3.69,9.21,3.87,1.77.18,3.22-.49,4.89-1.45.42-.24.62-.03.75.21l.75,1.32c.21.36.25.57-.17.81-.48.27-2.14.98-4.77,2.49-1.74.99-3.88,2.38-4.75,2.95-1-.22-3.48-1.5-4.47-1.98-.89-.44-7.38-4.28-7.95-4.59-.48-.28-5.82-2.95-7.02-3.38-2.62-.97-4.98-1.76-8.46.23-.54.31-1.14.65-1.87,1.31l1.92,3.35c2.02,3.53,5.92,10.21,6.49,11.07.84,1.19,1.93,1.99,2.83,1.48l3.77-2.16c.42-.24.58-.09.75.21l.75,1.32c.24.42.25.57-.35.92-.66.38-2.26,1.05-7.95,4.31-5.45,3.12-6.73,4.09-7.38,4.46-.48.27-.58.09-.75-.21l-.79-1.38c-.17-.3-.27-.48.03-.65l2.46-1.4c1.32-.75,2.1-1.76,1.17-3.37-3.27-6-6.49-11.63-9.75-17.32l-3.32-5.81c-2.53-4.43-4.73-8.27-5.78-9.97-1.19-1.94-2.49-2.55-3.99-1.69l-2.4,1.37c-.3.17-.46.03-.6-.21l-.86-1.5Zm12.71-2.1l9.69,16.95c1-.33,1.69-.65,2.83-1.3,10.9-6.23,8.71-14.92,7.28-17.43-1.58-2.76-4.34-4.67-6.9-5.11-3.4-.52-6.55.09-11.52,2.93-.72.41-1.43.98-1.76,1.64-.25.54-.17,1.37.38,2.33Zm-100.14,357.35c1.31,1.31,2.86,1.9,4.64,1.9,1.67,0,1.79-2.14,1.79-3.93v-20.35c0-15.71,1.9-42.6,2.74-50.58.36-4.28,1.55-6.31,3.57-6.31h3.33c.48,0,.6-.48.6-1.07v-2.86c0-.71-.12-.95-1.19-.95-1.31,0-4.17.36-11.31.36-8.81,0-12.61-.36-13.92-.36-.95,0-1.07.24-1.07.83v2.97c0,.71.12,1.07.71,1.07h3.81c2.74,0,5.59,1.67,6.31,4.64.36,1.79.95,13.45,1.07,18.09.24,5.95.36,11.78.36,22.37v10.83h-.48c-1.31-1.55-18.68-23.32-20.35-25.35-3.57-4.4-27.01-33.08-27.61-33.8-.95-1.07-1.9-1.55-3.45-1.55-1.43,0-5,.24-9.04.24-6.19,0-10-.12-12.38-.24-2.26,0-3.21-.12-3.81-.12s-.71.24-.71.71v3.21c0,.36.12.83.71.83l2.98.12c5.95.12,10.23,6.78,10.23,13.8v10.71c0,17.61-.95,36.65-1.07,38.91-.59,7.97-2.5,11.78-5.12,11.78h-4.17c-.59,0-.71.36-.71.71v3.09c0,.83.12,1.07.6,1.07,1.19,0,9.4-.36,13.09-.36,5.59,0,12.73.36,13.92.36.83,0,.95-.24.95-.95v-2.86c0-.71-.12-1.07-.95-1.07h-2.98c-5,0-7.14-3.57-7.38-10.47-.12-4.52-1.19-19.16-1.19-29.04v-24.04h.95c2.74,3.93,19.16,24.4,21.18,26.78,2.26,2.62,11.78,14.04,20.35,24.16,7.14,8.45,12.97,14.76,14.99,16.66ZM659.12,90.81l-1.96-1.28c-.29-.19-.46-.05-.57.12l-.98,1.5c-.19.29-.21.44.03.59.58.38,4.68,2.81,5.89,3.6,1.56,1.02,4.91,3.45,5.49,3.83.4.26.54.19.76-.16l.83-1.27c.23-.35.28-.56-.12-.82l-1.73-1.13c-1.56-1.02-1.19-2.34.05-4.75.64-1.23,6.32-10.95,9.83-16.33l8.37-12.83.35.23c.04.69,1.97,20.97,2.23,21.97.12.57.87,8.64,1.63,16.31.64,6.84,1.26,13.35,1.24,13.5.02.34.09,1.38.78,1.83.23.15.67-.39,1.19-1.2l14.1-21.61c2.45-3.76,6.18-9.48,8.94-13.2,1.55-2.12,2.77-2.73,4.33-1.71l1.56,1.02c.23.15.46.05.61-.18l.94-1.44c.15-.23.21-.44-.2-.71-.75-.49-2.25-1.23-5.72-3.49-3.7-2.41-5.43-3.79-6.24-4.32-.23-.15-.42-.11-.57.12l-.98,1.5c-.19.29-.15.48.08.63l1.85,1.21c1.62,1.06,2.19,2.58,1.71,4.33-.29,1.21-3.7,7.06-5.11,9.35-1.77,2.96-3.56,5.83-6.91,10.98l-4.49,6.88-.23-.15c-.18-2.75-2.14-21.09-2.25-22.31-.11-1.22-1.82-23.1-1.88-23.64-.12-.82-.43-1.35-1.19-1.84-.69-.46-1.98-1.13-3.95-2.41-1.96-1.28-3.2-2.17-4.03-2.79-.87-.56-1.29-.92-1.58-1.11-.29-.19-.42-.11-.57.12l-.98,1.5c-.11.17-.21.44.08.63l2.33,1.6c2.04,1.42,2.53,4.45.31,7.86l-6.41,9.82c-6.71,10.29-11.12,16.8-11.96,17.82-2.14,2.64-3.22,2.92-4.9,1.83ZM114.28,397.89l-2.02-1.19c-.36-.24-.71-.12-1.19.36-2.38,2.86-9.04,10.23-12.14,12.73-3.09,2.5-6.66,3.69-9.04,3.93-2.5.24-7.5.36-9.52.36-5.95,0-8.21-.36-10-1.07-1.55-.71-2.86-2.86-2.86-9.04,0-2.14-.6-13.69-.6-20.11v-7.14c5.24,0,8.93.24,12.14.71,2.38.36,5.24,1.9,6.55,4.17.71,1.43,1.9,4.17,2.38,6.07.24.83.48,1.07.95.95l2.86-.59c.6-.12,1.07-.24.95-.95-.24-2.5-.71-8.21-.71-13.57,0-4.17,0-10.35.36-12.38.12-.71-.36-.83-.95-.95l-3.21-.36c-.6,0-.95.24-.95,1.07,0,2.26-1.43,5.59-2.74,7.38-1.78,2.14-3.45,3.21-5.47,3.69-1.43.36-6.66.71-12.14.71l.36-34.63,15.71.48c3.21.12,6.55,1.67,9.04,3.21,2.74,1.67,13.45,12.38,14.04,13.33.36.59.95.71,1.43.48l1.9-.95c.59-.36.59-.59.36-1.19-.48-1.19-4.4-17.49-4.88-19.16-.12-.36-.36-.59-.95-.59s-2.86.24-4.76.24l-41.77.12c-10.83,0-14.99-.36-17.61-.36-.71,0-.83.48-.83.83v2.86c0,.83.12,1.19.6,1.19h4.64c3.21,0,4.4.83,4.88,4.64.12,1.19.36,15.83.36,25.7v39.87c0,4.17-.48,5-5.95,5h-3.57c-.83,0-1.19.36-1.19,1.07v2.5c0,.95.24,1.31,1.07,1.31,1.07,0,2.62-.12,5.12-.24,2.38,0,5.71-.12,10.12-.12,20.59,0,33.2.12,40.94.12,7.62.12,10.23.24,10.83.24,1.43,0,2.26-.71,2.62-1.79l5.36-17.97c.12-.36,0-.71-.48-.95ZM615.24,47c1.7-3.85,5.35-9.4,12.8-13.13,8.53-4.3,15.34-2.81,20.64-.47,3.98,1.75,8.79,4.86,11.94,11.22,2.85,6.01,4.16,13.98.32,22.69-2.03,4.61-5.6,8.77-10.83,11.74-6.11,3.41-13.4,4.72-22.11.88-3.09-1.36-8.14-4.8-11.76-10.09-3.29-4.69-5.08-13.63-1.01-22.84Zm14.33,30.76c13.89,6.13,22.49-7.05,24.97-12.66,6.1-13.82-.16-26.31-7.16-29.4-.95-.42-4.91-3.07-11.62-.68-6.01,2.17-10.91,7.63-13.19,12.81-7.32,16.6,1.64,27.57,7,29.94Zm-365.24,259.67c8.09,0,14.16,2.98,18.8,7.38,5.12,4.64,8.93,12.26,10.83,18.09.36,1.07.71,1.31,1.43,1.19l3.33-.71c.48-.12.6-.71.48-2.14l-1.79-24.51c0-1.31-.36-2.14-1.67-2.14-.71,0-.95.36-1.55,1.19l-1.19,1.9c-.71.95-1.55,1.19-2.98.36-3.93-2.5-12.85-5.83-24.87-5.83-14.28,0-24.99,4.05-33.68,11.66-8.69,7.5-13.8,19.04-13.8,29.87,0,14.4,3.69,24.51,10.95,32.73,8.21,9.64,22.13,13.57,34.51,13.57,15.11,0,25.23-2.74,34.87-7.62,1.19-.48,1.9-.95,1.9-1.9s-.48-2.14-.48-3.81v-15.71c0-3.45,1.55-4.28,3.69-4.28h3.45c.71,0,.83-.24.83-.95v-2.97c0-.59-.12-.95-1.07-.95s-5.35.36-16.3.36-16.54-.36-17.61-.36c-.71,0-.83.36-.83.83v2.98c0,.59.12,1.07.83,1.07h5c2.98,0,4.17,1.19,4.17,5.47v8.57c0,6.19-.24,10-2.74,11.19-3.93,1.9-7.26,2.38-13.45,2.38-8.09,0-12.61-2.5-18.21-8.09-6.43-6.43-10.35-18.68-10.35-32.73,0-10.71,4.05-20.59,9.52-27.13,5.59-6.9,11.54-8.93,17.97-8.93ZM581.95,59.71c-.33-.1-.57-.03-.65.23l-.54,1.78c-.08.26.08.46.41.56.73.22,3.62.89,9.89,2.81,5.74,1.76,8.32,2.76,9.11,3.01.4.12.63.05.71-.21l.53-1.72c.1-.33-.06-.52-.39-.62l-2.71-.83c-2.11-.65-3-1.28-2.37-3.32.22-.73,4.69-16.03,4.89-16.69l1.56-5.08c.24-.79,4.91-15.31,5.11-15.97.4-1.32,1.56-1.54,2.87-1.14l3.1.95c.33.1.57.03.67-.3l.5-1.65c.08-.26,0-.5-.32-.6-.92-.29-3.1-.74-8.97-2.53-6.14-1.88-9.44-3.11-10.23-3.35-.26-.08-.5,0-.58.26l-.55,1.78c-.08.26.08.46.41.56l3.83,1.17c2.51.77,2.96,1.63,2.61,3.25-.24,1.01-3.68,12.95-4.16,14.53l-1.41,4.62c-1.07,3.5-5.63,17.69-6.07,18.64-.79,1.63-2.24,1.41-3.56,1l-3.69-1.13Zm-93.9-10.83l.11-1.65c.02-.34.31-.46.58-.45l2.41.16c2.07.14,3.09-.76,4.2-2.9.56-1.07,6.43-13.47,8.8-18.98.57-1.34,7.14-15.77,7.88-17.59.25-.67.66-1.55.23-2.34-.19-.29-.44-.65-.42-.93.01-.21.17-.47.66-.58,1.96-.28,5.12-2.15,5.94-3.06.37-.32.59-.58.94-.56.41.03.52.45.68,1.22,1.02,4.42,5.36,20.2,6.37,24.7,1.23,5.48,4.85,18.58,5.68,20.64,1.02,2.35,2.75,3.3,4.48,3.41l2.27.15c.41.03.54.24.52.52l-.11,1.72c-.02.34-.24.47-.72.44-1.24-.08-2.67-.39-8.25-.76-5.71-.38-8.14-.34-9.72-.44-.34-.02-.54-.24-.51-.66l.11-1.58c.03-.41.24-.47.65-.44l1.72.11c1.93.13,2.59-.52,2.24-2.48-.39-2.52-2.62-11.52-3.4-14.33l-16.94-1.13c-.8,1.68-5.29,11.89-5.73,13.31-.1.48-.28,1.16-.31,1.5-.06.96.73,1.57,2.24,1.67l3.24.22c.48.03.68.18.66.53l-.11,1.58c-.03.48-.25.61-.59.58-.96-.06-3.77-.46-7.84-.73-5.03-.34-6.55-.23-7.52-.29-.34-.02-.47-.17-.45-.58Zm17.46-20.2l15.22,1.02c-.48-2.11-4.91-19.69-5.19-20.75-.17-.5-.28-.99-.49-1-.28-.02-.58.45-.83.98-.4.87-8.12,18.06-8.72,19.75Zm33.44-13.78l1.15.57c.33.13.54.1.74-.21,1.37-1.99,4.31-6.34,7.54-6.7,2.8-.31,8.7.83,10.86,1.25l1.69.33-3.35,17.42c-.25,1.29-4.25,22.09-4.83,24.02-.22.8-1.19,1.46-2.55,1.2l-4.61-.89c-.41-.08-.51.11-.6.59l-.25,1.29c-.08.41-.06.69.48.79.95.18,3.83.53,10.34,1.78,6.64,1.28,8.77,1.9,9.45,2.03.61.12.72-.07.78-.41l.27-1.42c.09-.47.06-.69-.55-.81l-4.27-.82c-1.63-.31-1.97-1.43-1.78-3.15.15-1.17,3.8-20.14,3.99-21.09l3.71-19.31,1.9.37c3.32.64,9.66,2,11.5,3.41,2.03,1.51,3.06,7.12,3.35,8.51.11.51.17.59.45.58l1.14-.06c.35,0,.51-.11.51-.46.03-3.09.36-11.74.38-12.58.03-.91-.06-1.14-.4-1.2-.27-.05-.49-.02-.87.11l-1.44.57c-1.28.46-2.2.49-3.71.27-3.35-.5-6.31-.79-13.7-2.21l-3.25-.63c-6.37-1.23-9.16-2.04-12.73-2.87-1.95-.45-2.59-.78-3.64-1.9l-.76-.78c-.23-.26-.42-.36-.76-.43-.27-.05-.58.1-.89.95-.28.72-4.33,9-5.48,11.31-.21.38-.02.49.17.59Zm-104.96-7.92l2.83-.15c2.48-.12,4.72,1.98,5.04,6.04l.91,11.69c.96,12.24,1.43,20.1,1.4,21.41-.08,3.4-.77,4.28-2.77,4.44l-2.34.18c-.34.03-.4.24-.38.44l.14,1.79c.03.34.11.48.38.45.69-.05,5.42-.63,6.86-.74,1.86-.15,6-.26,6.69-.31.48-.04.54-.18.51-.59l-.12-1.51c-.03-.41-.12-.61-.6-.58l-2.06.16c-1.86.14-2.37-1.13-2.86-3.79-.24-1.37-1.67-12.53-2.17-18.93l-1.19-15.27.41-.03c.46.52,14.35,15.42,15.16,16.05.44.38,5.96,6.32,11.24,11.93,4.68,5.03,9.14,9.81,9.22,9.94.23.26.91,1.04,1.74.97.27-.02.29-.71.21-1.68l-2.01-25.73c-.35-4.47-.88-11.28-.97-15.91-.07-2.62.53-3.85,2.39-3.99l1.86-.15c.28-.02.4-.24.38-.51l-.13-1.72c-.02-.27-.11-.48-.59-.44-.89.06-2.53.4-6.66.72-4.4.34-6.62.31-7.58.38-.28.03-.4.18-.38.45l.14,1.79c.03.34.18.47.45.45l2.2-.17c1.93-.15,3.31.71,3.99,2.39.5,1.14,1.37,7.85,1.65,10.53.41,3.43.74,6.79,1.22,12.92l.64,8.19-.28.02c-1.82-2.07-14.56-15.4-15.39-16.31-.83-.9-15.53-17.2-15.91-17.58-.6-.58-1.17-.81-2.06-.74-.83.06-2.26.31-4.6.49-2.34.18-3.86.23-4.89.24-1.03.09-1.59.06-1.93.09-.34.03-.4.17-.38.44l.14,1.79c.02.21.11.48.45.45Zm287.79,96.94c.2,4.29,2.82,8.85,3.93,10.83,2.9,5.08,5.03,10.41.36,15.77-4.08,4.69-9.71,3.17-12.83.45-2.86-2.49-4.5-6.39-3.94-10.19.59-4.15,1.98-5.96,3.38-7.67.27-.31.26-.51.05-.69l-.74-.73c-.21-.18-.31-.27-.64,0-1.47,1.37-7.74,7.53-9.08,8.65-.6.48-.57.97-.26,1.24.36.32.67.49,1.48.19.77-.25,1.29-.43,1.6-.16.26.23.44.65.65,1.67.68,3.43,2.28,6.74,5.92,9.91,6.87,5.98,15.19,3.98,20.54-2.16,2.99-3.44,3.82-6.28,3.87-9.07.12-3.92-2.03-7.34-4.62-11.61-1.1-1.78-3.02-5.46-3.22-8.29-.12-2.49,1.06-4.48,2.33-5.93,2.31-2.66,6.96-4.64,11.6-.61,2.45,2.13,3.63,4.44,3.73,7.18.19,4.1-.9,6.71-1.8,8.59-.08.2-.03.34.18.43l.76.39c.25.13.4.07.62-.19.94-1.19,4.89-7.09,6.47-8.91.41-.47.61-1.02.35-1.25-.26-.23-.51-.26-.95-.28l-1.22.04c-.49.03-.79-.14-1.03-.81-.52-1.19-2.04-4.06-5.01-6.65-2.81-2.45-6.05-3.98-9.46-3.84-2.93.11-6.76,1.25-9.03,3.86-2.99,3.44-4.23,6.65-4.01,9.87Zm-384.13-48.9c3.94,1.72,9.19,1.39,11.45,1.26,5.84-.35,11.56.09,14.31,6.65,2.4,5.73-1.45,10.11-5.27,11.71-3.5,1.47-7.72,1.22-10.88-.98-3.46-2.37-4.47-4.41-5.39-6.42-.16-.38-.34-.46-.6-.35l-.98.34c-.25.11-.38.16-.29.57.58,1.93,3.33,10.28,3.75,11.97.17.75.62.94,1,.78.45-.19.74-.38.83-1.24.12-.8.18-1.35.56-1.51.32-.13.78-.1,1.78.15,3.37.91,7.05.94,11.51-.93,8.4-3.52,10.29-11.87,7.14-19.38-1.76-4.2-3.95-6.2-6.43-7.48-3.46-1.84-7.48-1.43-12.46-.99-2.09.2-6.24.29-8.86-.78-2.28-.99-3.55-2.93-4.29-4.71-1.36-3.25-1.08-8.3,4.58-10.67,2.99-1.25,5.59-1.3,8.08-.17,3.76,1.64,5.62,3.78,6.91,5.41.14.16.3.17.46.03l.68-.51c.23-.17.24-.32.1-.64-.65-1.37-4.2-7.52-5.13-9.75-.24-.57-.64-1-.96-.87-.32.13-.46.34-.67.73l-.51,1.11c-.18.45-.48.65-1.18.57-1.3-.06-4.55.04-8.18,1.56-3.44,1.44-6.25,3.67-7.63,6.79-1.2,2.67-1.87,6.62-.53,9.8,1.76,4.2,4.1,6.74,7.08,7.96Zm25.52-22.18c-.02.44.2.45.41.46h1.29c.35-.03.53-.15.57-.52.33-2.39,1.03-7.6,3.75-9.36,2.37-1.52,8.15-3.14,10.27-3.74l1.66-.47,4.78,17.07c.35,1.26,6.06,21.66,6.4,23.64.16.82-.42,1.84-1.75,2.21l-4.52,1.27c-.4.11-.41.33-.28.79l.35,1.26c.11.4.25.65.78.5.93-.26,3.67-1.24,10.04-3.03,6.51-1.82,8.69-2.22,9.36-2.4.6-.17.61-.39.52-.72l-.39-1.4c-.13-.47-.25-.65-.85-.48l-4.19,1.17c-1.59.45-2.4-.4-3-2.02-.38-1.11-5.59-19.71-5.85-20.64l-5.3-18.93,1.86-.52c3.26-.91,9.54-2.53,11.81-2.09,2.49.45,5.92,5.01,6.8,6.12.33.41.41.46.66.32l.99-.56c.31-.16.41-.33.25-.64-1.35-2.77-4.92-10.66-5.27-11.42-.37-.83-.56-.99-.9-.9-.27.07-.45.2-.72.49l-1.04,1.15c-.94.98-1.75,1.42-3.19,1.9-3.22,1.04-6,2.11-13.24,4.14l-3.19.89c-6.25,1.75-9.11,2.26-12.67,3.12-1.95.47-2.67.46-4.1-.07l-1.03-.36c-.32-.12-.54-.14-.87-.04-.27.07-.48.35-.37,1.25.07.77.15,9.99.15,12.57Zm585.16,348.98c-.95,0-5.36.36-16.3.36s-16.54-.36-17.61-.36c-.71,0-.83.36-.83.83v2.98c0,.59.12,1.07.83,1.07h5c2.97,0,4.17,1.19,4.17,5.47v8.57c0,6.19-.24,10-2.74,11.19-3.93,1.9-7.26,2.38-13.45,2.38-8.09,0-12.61-2.5-18.21-8.09-6.43-6.43-10.35-18.68-10.35-32.73,0-10.71,4.05-20.59,9.52-27.13,5.59-6.9,11.54-8.93,17.97-8.93,8.09,0,14.16,2.98,18.8,7.38,5.12,4.64,8.92,12.26,10.83,18.09.36,1.07.71,1.31,1.43,1.19l3.33-.71c.48-.12.59-.71.48-2.14l-1.79-24.51c0-1.31-.36-2.14-1.67-2.14-.71,0-.95.36-1.55,1.19l-1.19,1.9c-.71.95-1.55,1.19-2.97.36-3.93-2.5-12.85-5.83-24.87-5.83-14.28,0-24.99,4.05-33.68,11.66-8.69,7.5-13.8,19.04-13.8,29.87,0,14.4,3.69,24.51,10.95,32.73,8.21,9.64,22.13,13.57,34.51,13.57,15.11,0,25.23-2.74,34.87-7.62,1.19-.48,1.9-.95,1.9-1.9s-.48-2.14-.48-3.81v-15.71c0-3.45,1.55-4.28,3.69-4.28h3.45c.71,0,.83-.24.83-.95v-2.97c0-.59-.12-.95-1.07-.95Zm-526.32,114.37c-.31,1.95-1.92,2.17-3.46,2.17h-4.31c-.38,0-.62.15-.62.45v2.02c0,.3.23.45.62.45.85,0,4.15-.22,11.46-.22,6.69,0,9.76.22,10.69.22.46,0,.69-.15.69-.45v-1.95c0-.38-.23-.52-.62-.52h-3.15c-2.46,0-3.61-.38-3.61-2.7,0-.82-.23-18.14-.23-18.89v-5.77c0-.9.23-17.46.23-18.21,0-1.5,1.15-2.1,2.69-2.1h3.61c.38,0,.61-.15.61-.52v-1.87c0-.3-.15-.52-.54-.52-1.08,0-3.54.22-10.38.22s-11.07-.22-11.99-.22c-.31,0-.54.15-.54.45v2.02c0,.3.23.45.62.45h4.46c2.92,0,3.69.75,3.84,2.55.08,1.12.31,14.62.31,16.41v5.25c0,3.97-.23,20.16-.38,21.29Zm21.84-21.89c0,7.2,2.69,15.89,8.23,20.99,4.61,4.12,10.38,6.9,19.45,6.9,10.84,0,18.3-6.07,22.91-12.59.23-.37.08-.52-.15-.67l-1-.75c-.23-.22-.38-.15-.62.22-3.54,4.87-10.3,9.52-18.99,9.52-5.15,0-9.53-.6-14.76-6.29-6-6.45-7.38-14.92-7.38-19.26-.08-10.94,5.46-22.86,19.22-22.86,6.07,0,10.15,2.55,13.38,5.77,3.23,3.22,4.92,6.82,6,9.29.23.6.38.67.77.6l1.15-.3c.31-.08.38-.38.31-.75-.38-2.1-1.92-13.12-1.92-14.54,0-1.05-.15-1.2-.85-1.2s-.85,0-1,.45l-.61,2.17c-.15.52-.54.6-1.54,0-2.77-1.57-8.53-4.12-15.53-4.12-8.38,0-15.3,3.52-19.22,7.57-5.54,5.7-7.84,12.89-7.84,19.86Zm-84.35-26.01v1.87c0,.3.08.52.38.52h2c1.61,0,2.38.75,3.15,2.47,1,2.25,4.61,13.12,6.46,18.44l.77,2.55c1,2.7,7.23,19.79,9.69,26.68.38.97.69,1.72,1.31,1.72.38,0,.77-.38,1.08-.97.38-.75,10.3-24.58,11.23-27.06,1.31-3.15,7.46-18.51,9.46-20.91,1.46-1.72,2.92-2.92,5.46-2.92h2.08c.46,0,.54-.22.54-.52v-1.87c0-.38-.08-.52-.54-.52-.69,0-2.61.22-8.23.22-4.84,0-8.38-.22-9.07-.22-.38,0-.46.15-.46.52v1.72c0,.45.08.67.38.67h2c1.92,0,2.46.82,2.46,1.72,0,1.05-.46,2.4-1.08,4.27-1.15,3.3-4.08,11.92-4.84,13.94-.62,1.72-6.61,17.16-8.23,20.69h-.15c-1.77-4.57-6.23-17.46-7.15-20.31-1.38-4.2-4.23-13.12-4.69-15.81-.23-1.05-.31-1.95-.31-2.55,0-1.27,1.08-1.95,3.23-1.95h3.69c.54,0,.62-.3.62-.67v-1.72c0-.3-.08-.52-.77-.52s-4.15.22-10.61.22c-6,0-8.53-.22-9.3-.22-.46,0-.54.15-.54.52Zm181-.52c-.38,0-1.85.15-3.08.15-7.61,0-15.22.08-22.84.08h-3.38c-5.07,0-7.77-.22-9.46-.22-.38,0-.54.15-.54.37v2.02c0,.45.23.52.61.52h2.77c2.84,0,3.61.52,3.92,2.92.08.75.23,10.12.23,16.34v25.11c0,2.77-.31,3.3-3.84,3.3h-3.08c-.54,0-.77.08-.77.38v2.02c0,.38.23.52.69.52.69,0,1.69-.07,3.31-.15,1.54,0,3.69-.08,6.54-.08,11.99,0,19.45.08,24.07.08,4.61.08,6.3.15,6.69.15.92,0,1.46-.45,1.69-1.12l4.08-11.02c.23-.6.23-.83-.15-1.05l-1.23-.67c-.46-.23-.69.07-.92.45-1.08,1.72-5.38,7.12-6.31,7.87-2,1.65-5.38,2.47-6.69,2.62-1.62.15-5.46.22-6.77.22-1.92,0-4.15-.22-5.69-.52-2.38-.45-4.31-1.95-4.38-5.85,0-1.5-.15-8.77-.15-12.82v-4.65c1.23,0,6.54,0,10.15.37,2,.23,2.84,1.35,3.31,2.92.23.82.69,2.55.85,3.52.08.52.23.75.62.67l1.69-.22c.31-.08.46-.23.46-.6-.15-1.57-.46-5.17-.46-7.79,0-1.12,0-7.27.23-8.54.08-.3-.08-.6-.46-.6l-1.92-.08c-.31,0-.54.15-.54.52-.08,1.42-.38,2.92-.62,3.67-.69,2.32-1.31,2.92-3.54,3.3-.92.15-9.15.45-9.77.45v-21.96l13.69.3c2.08.08,4.23.97,5.84,2.02,1.84,1.12,7.54,8.25,7.69,8.54.08.15.38.38.62.22l1.15-.6c.31-.15.31-.38.23-.67-.23-.75-3.61-11.02-3.92-12.07-.08-.22-.23-.37-.62-.37Zm177.62,24.51v-5.62c0-1.95-.23-12.59-.38-13.87-.23-1.8-1.23-2.1-3.31-2.1h-4.23c-.38,0-.61-.08-.61-.52v-2.02c0-.3.23-.37.54-.37,1,0,4.38.22,11.3.22,2,0,9.69-.22,11.46-.22,9.92,0,18.22,1.12,24.99,6.75,5,4.2,8.53,10.42,8.53,19.11s-2.54,14.32-7.61,19.71c-7.38,7.94-17.99,7.94-23.91,7.94-4.84,0-10.69-.22-14.15-.22-6.69,0-9.76.22-10.84.22-.38,0-.54-.15-.54-.52v-1.95c0-.3.23-.45.62-.45h5.15c1.46,0,2.31-.6,2.46-1.8.23-1.57.54-18.44.54-24.28Zm7.07,1.65c0,.97.08,13.72.15,18.36,0,1.5.31,2.7,1.31,4.2,1.23,1.57,4.31,2.4,8.15,2.4,7.84,0,14.22-3.3,18.07-8.09,3.23-3.9,5.61-10.04,5.61-16.86,0-5.85-2.61-12.59-6.31-16.56-4-4.27-10.76-7.2-19.3-7.2-1.69,0-4.84,0-6.15.75-1.08.67-1.38,1.87-1.46,3.52-.08,3.15-.08,12.97-.08,14.17v5.32Zm57.21,23.91c0-2.77-2.08-4.5-4.31-4.5-3.84,0-4.77,2.92-4.77,4.2,0,3.52,3.08,4.42,4.77,4.42,2.38,0,4.31-1.65,4.31-4.12Zm67.16-164.22c-1.31,0-4.17.36-11.31.36-8.81,0-12.61-.36-13.92-.36-.95,0-1.07.24-1.07.83v2.97c0,.71.12,1.07.71,1.07h3.81c2.74,0,5.59,1.67,6.31,4.64.36,1.79.95,13.45,1.07,18.09.24,5.95.36,11.78.36,22.37v10.83h-.48c-1.31-1.55-18.68-23.32-20.35-25.35-3.57-4.4-27.01-33.08-27.61-33.8-.95-1.07-1.9-1.55-3.45-1.55-1.43,0-5,.24-9.04.24-6.19,0-10-.12-12.38-.24-2.26,0-3.21-.12-3.81-.12s-.71.24-.71.71v3.21c0,.36.12.83.71.83l2.98.12c5.95.12,10.23,6.78,10.23,13.8v10.71c0,17.61-.95,36.65-1.07,38.91-.59,7.97-2.5,11.78-5.12,11.78h-4.16c-.6,0-.71.36-.71.71v3.09c0,.83.12,1.07.6,1.07,1.19,0,9.4-.36,13.09-.36,5.59,0,12.73.36,13.92.36.83,0,.95-.24.95-.95v-2.86c0-.71-.12-1.07-.95-1.07h-2.97c-5,0-7.14-3.57-7.38-10.47-.12-4.52-1.19-19.16-1.19-29.04v-24.04h.95c2.74,3.93,19.16,24.4,21.18,26.78,2.26,2.62,11.78,14.04,20.35,24.16,7.14,8.45,12.97,14.76,14.99,16.66,1.31,1.31,2.86,1.9,4.64,1.9,1.67,0,1.79-2.14,1.79-3.93v-20.35c0-15.71,1.9-42.6,2.74-50.58.36-4.28,1.55-6.31,3.57-6.31h3.33c.48,0,.6-.48.6-1.07v-2.86c0-.71-.12-.95-1.19-.95Zm-278,165.64c-4.23,0-8.46-2.02-10.76-5.55-2.54-3.82-2.69-6.29-2.77-8.69,0-.45-.15-.6-.46-.6l-1.15-.08c-.31,0-.46,0-.54.45-.23,2.17-1,11.69-1.31,13.57-.15.82.23,1.2.69,1.2.54,0,.92-.08,1.38-.9.46-.75.77-1.27,1.23-1.27.38,0,.85.23,1.77.9,3.08,2.32,6.84,3.9,12.22,3.9,10.15,0,15.69-7.57,15.69-16.41,0-4.95-1.38-7.87-3.38-10.19-2.77-3.3-7.07-4.57-12.38-6.22-2.23-.67-6.54-2.32-8.77-4.5-1.92-1.95-2.38-4.42-2.38-6.52,0-3.82,2.46-8.77,9.3-8.77,3.61,0,6.3,1.05,8.38,3.22,3.15,3.22,4.15,6.15,4.77,8.32.08.22.23.3.46.22l.92-.22c.31-.07.38-.22.38-.6-.08-1.65-1.08-9.29-1.08-11.92,0-.67-.23-1.27-.62-1.27s-.61.15-1,.45l-1,.9c-.38.38-.77.45-1.46.07-1.31-.6-4.69-1.87-9.07-1.87-4.15,0-8,1.05-10.76,3.6-2.38,2.17-4.77,5.85-4.77,9.59,0,4.95,1.31,8.47,3.84,10.94,3.31,3.37,8.84,5.25,11.23,6.07,6.15,2.1,11.84,4.95,11.84,12.67,0,6.75-5.84,9.52-10.46,9.52Zm169.11-157.67c0-2.14,1.78-3.09,4.76-3.09h3.45c.59,0,.95-.24.95-.83v-2.97c0-.71-.24-1.07-.83-1.07-1.67,0-5.47.36-17.61.36s-17.73-.36-19.16-.36c-.48,0-.83.24-.83.71v3.45c0,.48.36.71.95.71h5.71c2.5,0,3.69,1.19,3.93,4.05.12,1.55.48,22.97.48,25.82v8.33c0,6.31-.36,32.01-.59,33.8-.48,2.86-2.98,3.21-5.35,3.21h-3.45c-.6,0-.95.24-.95.71v3.21c0,.71.36.95.95.95,1.31,0,6.43-.36,18.92-.36,11.31,0,16.07.36,17.49.36.71,0,1.07-.24,1.07-.71v-3.33c0-.59-.36-.83-.95-.83h-4.88c-2.26,0-4.05-.59-4.05-4.28,0-1.07-.36-28.56-.36-29.75v-9.16c0-1.43.36-27.73.36-28.92Zm-125.51,106.18c-.46,0-.54.15-.54.52v1.65c0,.38.08.75.54.75h3.61c2.31,0,2.69.75,2.85,2.7.08,1.35.23,9.29.23,14.09v4.2c0,4.57-.23,23.23-.23,24.66,0,.97-.46,2.02-3.31,2.02h-3.69c-.46,0-.54.15-.54.52v1.87c0,.38.08.52.62.52s1.46-.07,3-.15c1.62,0,3.84-.08,6.84-.08,4.15,0,11.69,0,18.53.08,6.84,0,12.84.08,13.84.15.46-2.02,3.54-14.39,3.77-14.91.08-.45.08-.52-.15-.67l-1.23-.45c-.31-.15-.46,0-.61.3-1.08,2.92-5.69,11.92-10.23,12.59-2.38.3-17.61.15-19.3,0-.23-3.07-.23-19.26-.23-20.54v-6.45c0-5.25.23-16.56.23-17.54,0-2.17.31-2.92,2.69-2.92h4.61c.62,0,.77-.22.77-.6v-1.72c0-.38-.08-.6-.69-.6-.69,0-3.92.22-11.38.22-6.38,0-9.15-.22-10-.22Zm-297.65,26.46v-7.27c0-5.55,0-10.34-.08-12.52-.08-2.47-1-3.75-2.92-3.75h-3.08c-.38,0-.46-.22-.46-.52v-1.87c0-.38.08-.52.46-.52.69,0,3.08.22,9.53.22,4.31,0,11.46-.22,12.84-.22,6.38,0,11.46,1.87,14.38,4.57,2.54,2.4,4,5.77,4,8.54,0,9.37-4.38,12.89-14.22,14.99v.15c1.85.67,2.92,2.02,3.54,2.85.92.97,6.38,8.62,7,9.59.38.75,5.31,7.57,6.77,8.62,1.61,1.12,3.38,1.27,5.54,1.27.54,0,.62.3.62.6v1.65c0,.45-.08.67-.62.67-.62,0-2.61-.22-6-.22-2.23,0-5.07.15-6.23.22-.85-.75-2.54-3.3-3.23-4.27-.62-.9-4.77-8.02-5.15-8.62-.31-.52-4-5.92-4.92-6.97-2-2.32-3.84-4.35-8.3-4.35-.69,0-1.46,0-2.54.22v4.2c0,4.42.08,12.82.15,13.94.15,1.57.77,2.92,1.92,2.92h4.84c.54,0,.61.22.61.6v1.65c0,.52-.08.67-.85.67-.85,0-2.77-.22-10.07-.22s-8.77.22-9.61.22c-.62,0-.62-.22-.62-.6v-1.72c0-.38,0-.6.38-.6h3.15c1.69,0,3-.52,3-2.55.15-7.42.15-14.47.15-21.59Zm6.92.15c1.15.22,2,.3,3.46.3,13.99,0,16.69-9.37,16.69-12.52,0-3.45-1.61-6.75-3.84-8.54-3-2.32-6.38-3.45-12.76-3.45-.92,0-1.92.15-2.61.6-.54.37-.92,1.2-.92,2.4v21.21Zm115.54-79.95c-1.31-1.55-18.68-23.32-20.35-25.35-3.57-4.4-27.01-33.08-27.61-33.8-.95-1.07-1.9-1.55-3.45-1.55-1.43,0-5,.24-9.04.24-6.19,0-10-.12-12.38-.24-2.26,0-3.21-.12-3.81-.12s-.71.24-.71.71v3.21c0,.36.12.83.71.83l2.98.12c5.95.12,10.23,6.78,10.23,13.8v10.71c0,17.61-.95,36.65-1.07,38.91-.59,7.97-2.5,11.78-5.12,11.78h-4.17c-.59,0-.71.36-.71.71v3.09c0,.83.12,1.07.6,1.07,1.19,0,9.4-.36,13.09-.36,5.59,0,12.73.36,13.92.36.83,0,.95-.24.95-.95v-2.86c0-.71-.12-1.07-.95-1.07h-2.98c-5,0-7.14-3.57-7.38-10.47-.12-4.52-1.19-19.16-1.19-29.04v-24.04h.95c2.74,3.93,19.16,24.4,21.18,26.78,2.26,2.62,11.78,14.04,20.35,24.16,7.14,8.45,12.97,14.76,14.99,16.66,1.31,1.31,2.86,1.9,4.64,1.9,1.67,0,1.79-2.14,1.79-3.93v-20.35c0-15.71,1.9-42.6,2.74-50.58.36-4.28,1.55-6.31,3.57-6.31h3.33c.48,0,.6-.48.6-1.07v-2.86c0-.71-.12-.95-1.19-.95-1.31,0-4.17.36-11.31.36-8.81,0-12.61-.36-13.92-.36-.95,0-1.07.24-1.07.83v2.97c0,.71.12,1.07.71,1.07h3.81c2.74,0,5.59,1.67,6.31,4.64.36,1.79.95,13.45,1.07,18.09.24,5.95.36,11.78.36,22.37v10.83h-.48Zm-173.05,100.63c0,2.77-.31,3.3-3.84,3.3h-3.08c-.54,0-.77.08-.77.38v2.02c0,.38.23.52.69.52.69,0,1.69-.07,3.31-.15,1.54,0,3.69-.08,6.54-.08,11.99,0,19.45.08,24.07.08,4.61.08,6.3.15,6.69.15.92,0,1.46-.45,1.69-1.12l4.07-11.02c.23-.6.23-.83-.15-1.05l-1.23-.67c-.46-.23-.69.07-.92.45-1.08,1.72-5.38,7.12-6.3,7.87-2,1.65-5.38,2.47-6.69,2.62-1.61.15-5.46.22-6.77.22-1.92,0-4.15-.22-5.69-.52-2.38-.45-4.31-1.95-4.38-5.85,0-1.5-.15-8.77-.15-12.82v-4.65c1.23,0,6.54,0,10.15.37,2,.23,2.85,1.35,3.31,2.92.23.82.69,2.55.85,3.52.08.52.23.75.62.67l1.69-.22c.31-.08.46-.23.46-.6-.15-1.57-.46-5.17-.46-7.79,0-1.12,0-7.27.23-8.54.08-.3-.08-.6-.46-.6l-1.92-.08c-.31,0-.54.15-.54.52-.08,1.42-.38,2.92-.61,3.67-.69,2.32-1.31,2.92-3.54,3.3-.92.15-9.15.45-9.76.45v-21.96l13.69.3c2.08.08,4.23.97,5.84,2.02,1.85,1.12,7.54,8.25,7.69,8.54.08.15.38.38.62.22l1.15-.6c.31-.15.31-.38.23-.67-.23-.75-3.61-11.02-3.92-12.07-.08-.22-.23-.37-.62-.37s-1.85.15-3.08.15c-7.61,0-15.22.08-22.84.08h-3.38c-5.07,0-7.77-.22-9.46-.22-.38,0-.54.15-.54.37v2.02c0,.45.23.52.61.52h2.77c2.84,0,3.61.52,3.92,2.92.08.75.23,10.12.23,16.34v25.11Zm-31.22,4.2c-4.23,0-8.46-2.02-10.76-5.55-2.54-3.82-2.69-6.29-2.77-8.69,0-.45-.15-.6-.46-.6l-1.15-.08c-.31,0-.46,0-.54.45-.23,2.17-1,11.69-1.31,13.57-.15.82.23,1.2.69,1.2.54,0,.92-.08,1.38-.9.46-.75.77-1.27,1.23-1.27.38,0,.85.23,1.77.9,3.08,2.32,6.84,3.9,12.23,3.9,10.15,0,15.69-7.57,15.69-16.41,0-4.95-1.38-7.87-3.38-10.19-2.77-3.3-7.07-4.57-12.38-6.22-2.23-.67-6.54-2.32-8.77-4.5-1.92-1.95-2.38-4.42-2.38-6.52,0-3.82,2.46-8.77,9.3-8.77,3.61,0,6.31,1.05,8.38,3.22,3.15,3.22,4.15,6.15,4.77,8.32.08.22.23.3.46.22l.92-.22c.31-.07.38-.22.38-.6-.08-1.65-1.08-9.29-1.08-11.92,0-.67-.23-1.27-.62-1.27s-.62.15-1,.45l-1,.9c-.38.38-.77.45-1.46.07-1.31-.6-4.69-1.87-9.07-1.87-4.15,0-8,1.05-10.76,3.6-2.38,2.17-4.77,5.85-4.77,9.59,0,4.95,1.31,8.47,3.84,10.94,3.31,3.37,8.84,5.25,11.23,6.07,6.15,2.1,11.84,4.95,11.84,12.67,0,6.75-5.84,9.52-10.46,9.52Zm109.91-157.67c0-2.14,1.78-3.09,4.76-3.09h3.45c.6,0,.95-.24.95-.83v-2.97c0-.71-.24-1.07-.83-1.07-1.67,0-5.47.36-17.61.36s-17.73-.36-19.16-.36c-.48,0-.83.24-.83.71v3.45c0,.48.36.71.95.71h5.71c2.5,0,3.69,1.19,3.93,4.05.12,1.55.48,22.97.48,25.82v8.33c0,6.31-.36,32.01-.6,33.8-.48,2.86-2.98,3.21-5.35,3.21h-3.45c-.6,0-.95.24-.95.71v3.21c0,.71.36.95.95.95,1.31,0,6.43-.36,18.92-.36,11.31,0,16.07.36,17.49.36.71,0,1.07-.24,1.07-.71v-3.33c0-.59-.36-.83-.95-.83h-4.88c-2.26,0-4.05-.59-4.05-4.28,0-1.07-.36-28.56-.36-29.75v-9.16c0-1.43.36-27.73.36-28.92Zm338.84,109.1c3.77,0,11,.15,13.3,1.27,2.54,1.2,4.84,6.97,5.46,8.39.23.52.31.6.62.52l1.23-.3c.38-.08.54-.22.46-.6-.61-3.3-2.08-12.59-2.23-13.49-.15-.97-.31-1.2-.69-1.2-.31,0-.54.08-.92.3l-1.46.9c-1.31.75-2.31.97-4,1.05-3.77.15-7.07.45-15.46.45h-3.69c-7.23,0-10.46-.3-14.53-.45-2.23-.07-3-.3-4.38-1.27l-1-.67c-.31-.22-.54-.3-.92-.3-.31,0-.62.22-.77,1.2-.15.82-2.84,10.49-3.61,13.19-.15.45.08.52.31.6l1.38.38c.38.07.62,0,.77-.38,1.08-2.4,3.38-7.64,6.84-8.69,3-.9,9.69-.9,12.15-.9h1.92v19.26c0,1.42,0,24.43-.23,26.61-.08.9-1,1.8-2.54,1.8h-5.23c-.46,0-.54.22-.54.75v1.42c0,.45.08.75.69.75,1.08,0,4.31-.22,11.69-.22s10,.22,10.76.22c.69,0,.77-.22.77-.6v-1.57c0-.52-.08-.75-.77-.75h-4.84c-1.84,0-2.46-1.12-2.61-3-.08-1.27-.08-22.26-.08-23.31v-21.36h2.15Zm-216.75-36.99h-3.57c-.83,0-1.19.36-1.19,1.07v2.5c0,.95.24,1.31,1.07,1.31,1.07,0,2.62-.12,5.12-.24,2.38,0,5.71-.12,10.12-.12,20.59,0,33.2.12,40.94.12,7.62.12,10.23.24,10.83.24,1.43,0,2.26-.71,2.62-1.79l5.35-17.97c.12-.36,0-.71-.48-.95l-2.02-1.19c-.36-.24-.71-.12-1.19.36-2.38,2.86-9.04,10.23-12.14,12.73-3.09,2.5-6.66,3.69-9.04,3.93-2.5.24-7.5.36-9.52.36-5.95,0-8.21-.36-10-1.07-1.55-.71-2.86-2.86-2.86-9.04,0-2.14-.6-13.69-.6-20.11v-7.14c5.24,0,8.93.24,12.14.71,2.38.36,5.24,1.9,6.55,4.17.71,1.43,1.9,4.17,2.38,6.07.24.83.48,1.07.95.95l2.86-.59c.6-.12,1.07-.24.95-.95-.24-2.5-.71-8.21-.71-13.57,0-4.17,0-10.35.36-12.38.12-.71-.36-.83-.95-.95l-3.21-.36c-.59,0-.95.24-.95,1.07,0,2.26-1.43,5.59-2.74,7.38-1.78,2.14-3.45,3.21-5.47,3.69-1.43.36-6.66.71-12.14.71l.36-34.63,15.71.48c3.21.12,6.55,1.67,9.04,3.21,2.74,1.67,13.45,12.38,14.04,13.33.36.59.95.71,1.43.48l1.9-.95c.59-.36.59-.59.36-1.19-.48-1.19-4.4-17.49-4.88-19.16-.12-.36-.36-.59-.95-.59s-2.86.24-4.76.24l-41.77.12c-10.83,0-14.99-.36-17.61-.36-.71,0-.83.48-.83.83v2.86c0,.83.12,1.19.6,1.19h4.64c3.21,0,4.4.83,4.88,4.64.12,1.19.36,15.83.36,25.7v39.87c0,4.17-.48,5-5.95,5Zm167.43-38.08v-11.54c0-8.81,0-16.42-.12-19.64-.12-3.93-1.67-5.95-3.33-5.95h-4.76c-.59,0-.71-.36-.71-.83v-3.21c0-.59.12-.83.71-.83,1.07,0,4.76.36,17.73.36,6.66,0,17.14-.36,22.02-.36,9.28,0,16.18,3.33,21.06,7.85,4.28,3.93,6.78,8.57,6.78,12.97,0,15.11-11.31,21.9-21.78,22.85v.83c3.69,1.19,5.59,3.45,7.86,6.31,1.55,1.9,8.09,12.5,9.04,13.92.71,1.07,7.14,10.12,9.52,12.85,1.43,1.55,5.95,2.5,8.69,2.5.83,0,.95.48.95.95v2.86c0,.71-.12,1.07-.95,1.07-.95,0-4.05-.36-13.21-.36-3.45,0-7.85.24-11.3.36-3.57-2.74-10.95-16.54-12.97-20.59-4.05-8.09-8.93-16.9-14.64-16.9h-4.04v6.07c0,7.02.36,20.35.59,21.9.24,2.5,1.19,4.64,2.98,4.64h4.88c.83,0,.95.36.95.95v2.86c0,.83-.12,1.07-1.9,1.07-.12,0-3.09-.36-15.59-.36s-15.35.36-16.66.36c-.95,0-.95-.36-.95-1.19v-2.74c0-.59,0-.95.59-.95h3.57c2.62,0,4.76-.83,4.76-3.81.24-11.78.24-22.97.24-34.27Zm16.66,1.31c2.26.12,3.69.12,4.76.12,15.71,0,19.4-15,19.4-20.59s-1.9-10.71-4.52-13.33c-4.28-3.81-9.64-5.24-13.21-5.24-2.02,0-3.57.24-4.52,1.07-.71.48-1.07,1.79-1.31,3.21l-.59,34.75Zm-103.17,36.77h-3.57c-.83,0-1.19.36-1.19,1.07v2.5c0,.95.24,1.31,1.07,1.31,1.07,0,2.62-.12,5.12-.24,2.38,0,5.71-.12,10.12-.12,20.59,0,33.2.12,40.94.12,7.62.12,10.23.24,10.83.24,1.43,0,2.26-.71,2.62-1.79l5.35-17.97c.12-.36,0-.71-.48-.95l-2.02-1.19c-.36-.24-.71-.12-1.19.36-2.38,2.86-9.04,10.23-12.14,12.73-3.09,2.5-6.66,3.69-9.04,3.93-2.5.24-7.5.36-9.52.36-5.95,0-8.21-.36-10-1.07-1.55-.71-2.86-2.86-2.86-9.04,0-2.14-.59-13.69-.59-20.11v-7.14c5.24,0,8.92.24,12.14.71,2.38.36,5.24,1.9,6.55,4.17.71,1.43,1.9,4.17,2.38,6.07.24.83.48,1.07.95.95l2.86-.59c.59-.12,1.07-.24.95-.95-.24-2.5-.71-8.21-.71-13.57,0-4.17,0-10.35.36-12.38.12-.71-.36-.83-.95-.95l-3.21-.36c-.6,0-.95.24-.95,1.07,0,2.26-1.43,5.59-2.74,7.38-1.79,2.14-3.45,3.21-5.47,3.69-1.43.36-6.66.71-12.14.71l.36-34.63,15.71.48c3.21.12,6.54,1.67,9.04,3.21,2.74,1.67,13.45,12.38,14.04,13.33.36.59.95.71,1.43.48l1.9-.95c.59-.36.59-.59.36-1.19-.48-1.19-4.4-17.49-4.88-19.16-.12-.36-.36-.59-.95-.59s-2.86.24-4.76.24l-41.77.12c-10.83,0-14.99-.36-17.61-.36-.71,0-.83.48-.83.83v2.86c0,.83.12,1.19.6,1.19h4.64c3.21,0,4.4.83,4.88,4.64.12,1.19.36,15.83.36,25.7v39.87c0,4.17-.48,5-5.95,5Z" stroke-width="0"/></svg>