<svg xmlns="http://www.w3.org/2000/svg" viewBox="0 0 161.4 65.9">
  <defs>
    <style>
      .cls-1 {
        fill: #fff;
      }
    </style>
  </defs>
  <g id="Group_127" data-name="Group 127" transform="translate(-56.6 -332.7)">
    <path id="Path_468" data-name="Path 468" class="cls-1" d="M77.6,374.7a21,21,0,1,1,21-21,21,21,0,0,1-21,21m0-38.6a17.6,17.6,0,1,0,17.6,17.6,17.626,17.626,0,0,0-17.6-17.6"/>
    <rect id="Rectangle_31" data-name="Rectangle 31" class="cls-1" width="3.5" height="38.8" transform="translate(75.8 352.3)"/>
    <path id="Path_469" data-name="Path 469" class="cls-1" d="M84.8,391.1H81.3V360.9h8.4c5.2,0,8.4,4.4,8.4,7.6,0,6.1-4.1,8.9-8,8.9H84.7v13.7Zm0-17.1h5.3c2.1,0,4.5-1.4,4.5-5.5a4.9,4.9,0,0,0-4.9-4.2H84.8Z"/>
    <path id="Path_470" data-name="Path 470" class="cls-1" d="M70.3,377.4H64.9c-3.8,0-8-2.8-8-8.9,0-3.2,3.2-7.6,8.4-7.6h8.4v30.2H70.2V377.4Zm0-13.1H65.4a4.9,4.9,0,0,0-4.9,4.2c0,4,2.4,5.5,4.5,5.5h5.3Z"/>
    <path id="Path_471" data-name="Path 471" class="cls-1" d="M127.1,349a4.412,4.412,0,0,1-3.9-1.9,7.837,7.837,0,0,1-1.4-4.6,7.067,7.067,0,0,1,1.5-4.6,5.125,5.125,0,0,1,7.8,0,7.619,7.619,0,0,1,1.4,4.6,7.16,7.16,0,0,1-1.5,4.7,4.837,4.837,0,0,1-3.9,1.8m0-1.8a2.643,2.643,0,0,0,2.1-1c.6-.7.8-1.9.8-3.7a6.621,6.621,0,0,0-.7-3.4,2.4,2.4,0,0,0-2.2-1.2c-1.9,0-2.9,1.6-2.9,4.7a6.785,6.785,0,0,0,.7,3.5,2.8,2.8,0,0,0,2.2,1.1"/>
    <path id="Path_472" data-name="Path 472" class="cls-1" d="M142,348.8h-2.1V343a1.955,1.955,0,0,0-.4-1.4,1.389,1.389,0,0,0-1-.5,1.746,1.746,0,0,0-1.4.7,3.4,3.4,0,0,0-.6,2.2v4.8h-2.1v-9.3h1.9v2.2c.7-1.6,1.6-2.4,2.8-2.4a3.227,3.227,0,0,1,2.1.8,3.371,3.371,0,0,1,.9,2.7v6Z"/>
    <path id="Path_473" data-name="Path 473" class="cls-1" d="M148.7,347.2v1.6a10.4,10.4,0,0,1-1.5.2,3.653,3.653,0,0,1-1.5-.3,1.962,1.962,0,0,1-.9-.9,4.178,4.178,0,0,1-.3-1.8v-4.8h-1.2v-1.6h1.3l.2-2.4,1.7-.2v2.6h1.9v1.6h-1.9v4.5a1.2,1.2,0,0,0,1.5,1.5h.7"/>
    <path id="Path_474" data-name="Path 474" class="cls-1" d="M158.2,348.8h-2a5.822,5.822,0,0,1-.3-1.9,3.163,3.163,0,0,1-3.2,2.1,3.113,3.113,0,0,1-2.2-.8,2.52,2.52,0,0,1-.8-2.1c0-2.1,1.9-3.2,5.6-3.2h.6v-.7c0-1-.7-1.4-2-1.4s-2,.5-2.2,1.4l-1.8-.3a2.646,2.646,0,0,1,1.2-1.9,5.1,5.1,0,0,1,3-.8,8.969,8.969,0,0,1,1.8.2,2.725,2.725,0,0,1,1.2.6,5.5,5.5,0,0,1,.7.9,5.944,5.944,0,0,1,.2,1.7v4.2a4.272,4.272,0,0,0,.2,2m-2.3-4.7c-2.7,0-4.1.7-4.1,1.9a1.284,1.284,0,0,0,.4,1,1.594,1.594,0,0,0,1.2.4,2.2,2.2,0,0,0,1.8-.8,2.716,2.716,0,0,0,.6-1.7v-.8Z"/>
    <path id="Path_475" data-name="Path 475" class="cls-1" d="M162.4,348.8h-2.1v-9.3h1.9v2.2a3.825,3.825,0,0,1,1.1-1.9,2.4,2.4,0,0,1,1.5-.6h.3v2.3c-1.1,0-1.8.3-2.1,1a4.919,4.919,0,0,0-.5,2v4.3Z"/>
    <path id="Path_476" data-name="Path 476" class="cls-1" d="M168.4,338.4h-2.1v-2.2h2.1Zm0,10.4h-2.1v-9.3h2.1Z"/>
    <path id="Path_477" data-name="Path 477" class="cls-1" d="M174.4,349a3.8,3.8,0,0,1-3.2-1.5,5.754,5.754,0,0,1-1.1-3.4,4.871,4.871,0,0,1,1.2-3.4,4.158,4.158,0,0,1,3.2-1.4,4.01,4.01,0,0,1,3.1,1.3,4.958,4.958,0,0,1,1.2,3.5,4.6,4.6,0,0,1-1.3,3.5,3.661,3.661,0,0,1-3.1,1.4m.1-1.7c1.4,0,2.1-1.1,2.1-3.2a4.9,4.9,0,0,0-.5-2.3,1.816,1.816,0,0,0-1.6-.8,1.7,1.7,0,0,0-1.6.9,3.935,3.935,0,0,0-.5,2.3,3.715,3.715,0,0,0,.6,2.3,1.645,1.645,0,0,0,1.5.8"/>
    <path id="Path_478" data-name="Path 478" class="cls-1" d="M124.7,365.4h-2.3V352.8h5.2a4.515,4.515,0,0,1,3.3,1.1,3.631,3.631,0,0,1,1.1,2.6,3.489,3.489,0,0,1-1.2,2.8,4.172,4.172,0,0,1-2.9,1.1h-3.1v5Zm0-7h2.7a2.545,2.545,0,0,0,1.6-.5,1.678,1.678,0,0,0,.6-1.4,1.9,1.9,0,0,0-.5-1.3,2.4,2.4,0,0,0-1.9-.6h-2.5v3.8Z"/>
    <path id="Path_479" data-name="Path 479" class="cls-1" d="M135.6,365.4h-2.1V356h1.9v2.2a3.825,3.825,0,0,1,1.1-1.9,2.4,2.4,0,0,1,1.5-.6h.3V358c-1.1,0-1.8.3-2.1,1a4.919,4.919,0,0,0-.5,2v4.4Z"/>
    <path id="Path_480" data-name="Path 480" class="cls-1" d="M143.2,365.6a3.8,3.8,0,0,1-3.2-1.5,5.754,5.754,0,0,1-1.1-3.4,4.871,4.871,0,0,1,1.2-3.4,4.158,4.158,0,0,1,3.2-1.4,4.01,4.01,0,0,1,3.1,1.3,4.958,4.958,0,0,1,1.2,3.5,4.6,4.6,0,0,1-1.3,3.5,3.95,3.95,0,0,1-3.1,1.4m.1-1.8c1.4,0,2.1-1.1,2.1-3.2a4.9,4.9,0,0,0-.5-2.3,1.816,1.816,0,0,0-1.6-.8,1.7,1.7,0,0,0-1.6.9,3.935,3.935,0,0,0-.5,2.3,3.715,3.715,0,0,0,.6,2.3,1.476,1.476,0,0,0,1.5.8"/>
    <path id="Path_481" data-name="Path 481" class="cls-1" d="M151.7,365.4h-2v-7.7h-1.4V356h1.4v-.5a3.232,3.232,0,0,1,.7-2.2c.4-.6,1.3-.8,2.7-.8h.7v1.6h-.5a2.676,2.676,0,0,0-1.1.2,1,1,0,0,0-.4.5c0,.2-.1.6-.1,1.1h2.1v1.6h-2.1v7.9Z"/>
    <path id="Path_482" data-name="Path 482" class="cls-1" d="M161,362.4l1.9.3a4.124,4.124,0,0,1-1.4,2.1,4.551,4.551,0,0,1-2.7.8,3.871,3.871,0,0,1-3.1-1.3,4.958,4.958,0,0,1-1.2-3.5,5.13,5.13,0,0,1,1.2-3.5,4.158,4.158,0,0,1,3.2-1.4,3.809,3.809,0,0,1,3.1,1.4,5.625,5.625,0,0,1,1.1,3.5v.2h-6.4a6.053,6.053,0,0,0,.2,1.5,2.286,2.286,0,0,0,.7,1,2.01,2.01,0,0,0,1.3.4,1.975,1.975,0,0,0,2.1-1.5m-.1-2.8a2.111,2.111,0,0,0-.6-1.6,2.035,2.035,0,0,0-1.5-.6,1.678,1.678,0,0,0-1.4.6,2.938,2.938,0,0,0-.7,1.7h4.2Z"/>
    <path id="Path_483" data-name="Path 483" class="cls-1" d="M163.7,363.2l2-.4c.3.8,1,1.1,2,1.1,1.3,0,2-.4,2-1.2a.864.864,0,0,0-.3-.6.908.908,0,0,0-.7-.3l-1.7-.3c-1.9-.4-2.8-1.3-2.8-2.8a2.878,2.878,0,0,1,.9-2.1,3.667,3.667,0,0,1,2.7-.9c2,0,3.2.7,3.6,2.2l-1.9.4a1.587,1.587,0,0,0-1.7-1.1c-1.1,0-1.7.4-1.7,1.1,0,.5.5.8,1.4,1l2,.4a2.474,2.474,0,0,1,2.3,2.7,2.561,2.561,0,0,1-1.2,2.3,5.218,5.218,0,0,1-2.9.8,5.135,5.135,0,0,1-2.5-.6,2.341,2.341,0,0,1-1.5-1.7"/>
    <path id="Path_484" data-name="Path 484" class="cls-1" d="M172.1,363.2l2-.4c.3.8,1,1.1,2,1.1,1.3,0,2-.4,2-1.2a.864.864,0,0,0-.3-.6.908.908,0,0,0-.7-.3l-1.7-.3c-1.9-.4-2.8-1.3-2.8-2.8a2.878,2.878,0,0,1,.9-2.1,3.667,3.667,0,0,1,2.7-.9c2,0,3.2.7,3.6,2.2l-1.9.4a1.587,1.587,0,0,0-1.7-1.1c-1.1,0-1.7.4-1.7,1.1,0,.5.5.8,1.4,1l2,.4a2.474,2.474,0,0,1,2.3,2.7,2.561,2.561,0,0,1-1.2,2.3,5.117,5.117,0,0,1-2.8.8,4.871,4.871,0,0,1-2.5-.6,2.289,2.289,0,0,1-1.6-1.7"/>
    <path id="Path_485" data-name="Path 485" class="cls-1" d="M183.7,355h-2.1v-2.2h2.1Zm0,10.4h-2.1V356h2.1Z"/>
    <path id="Path_486" data-name="Path 486" class="cls-1" d="M189.7,365.6a3.8,3.8,0,0,1-3.2-1.5,5.754,5.754,0,0,1-1.1-3.4,4.871,4.871,0,0,1,1.2-3.4,4.158,4.158,0,0,1,3.2-1.4,4.01,4.01,0,0,1,3.1,1.3,4.958,4.958,0,0,1,1.2,3.5,4.6,4.6,0,0,1-1.3,3.5,4.1,4.1,0,0,1-3.1,1.4m0-1.8c1.4,0,2.1-1.1,2.1-3.2a4.9,4.9,0,0,0-.5-2.3,1.816,1.816,0,0,0-1.6-.8,1.7,1.7,0,0,0-1.6.9,3.935,3.935,0,0,0-.5,2.3,3.715,3.715,0,0,0,.6,2.3,1.659,1.659,0,0,0,1.5.8"/>
    <path id="Path_487" data-name="Path 487" class="cls-1" d="M203.5,365.4h-2.1v-5.8a1.955,1.955,0,0,0-.4-1.4,1.389,1.389,0,0,0-1-.5,1.746,1.746,0,0,0-1.4.7,3.4,3.4,0,0,0-.6,2.2v4.8h-2.1V356h1.9v2.2c.7-1.6,1.6-2.3,2.8-2.3a3.227,3.227,0,0,1,2.1.8,3.371,3.371,0,0,1,.9,2.7v6Z"/>
    <path id="Path_488" data-name="Path 488" class="cls-1" d="M213.8,365.4h-2a5.822,5.822,0,0,1-.3-1.9,3.163,3.163,0,0,1-3.2,2.1,3.113,3.113,0,0,1-2.2-.8,2.438,2.438,0,0,1-.8-2c0-2.1,1.9-3.2,5.6-3.2h.6v-.7c0-1-.7-1.5-2-1.5s-2,.5-2.2,1.5l-1.8-.3a2.646,2.646,0,0,1,1.2-1.9,5.1,5.1,0,0,1,3-.8,8.969,8.969,0,0,1,1.8.2,2.725,2.725,0,0,1,1.2.6,5.5,5.5,0,0,1,.7.9,5.944,5.944,0,0,1,.2,1.7v4.2a4.269,4.269,0,0,0,.2,1.9m-2.3-4.8c-2.7,0-4.1.6-4.1,1.9a1.284,1.284,0,0,0,.4,1,1.594,1.594,0,0,0,1.2.4,2.2,2.2,0,0,0,1.8-.8,2.716,2.716,0,0,0,.6-1.7v-.8Z"/>
    <rect id="Rectangle_32" data-name="Rectangle 32" class="cls-1" width="2.1" height="12.6" transform="translate(215.9 352.8)"/>
    <path id="Path_489" data-name="Path 489" class="cls-1" d="M124.7,381.9h-2.3V369.3h5.2a4.515,4.515,0,0,1,3.3,1.1,3.746,3.746,0,0,1-.1,5.4,4.172,4.172,0,0,1-2.9,1.1h-3.1v5Zm0-7h2.7a2.545,2.545,0,0,0,1.6-.5,1.678,1.678,0,0,0,.6-1.4,1.9,1.9,0,0,0-.5-1.3,2.4,2.4,0,0,0-1.9-.6h-2.5v3.8Z"/>
    <rect id="Rectangle_33" data-name="Rectangle 33" class="cls-1" width="2.1" height="12.6" transform="translate(133.5 369.3)"/>
    <path id="Path_490" data-name="Path 490" class="cls-1" d="M145.9,381.9h-2a5.822,5.822,0,0,1-.3-1.9,3.163,3.163,0,0,1-3.2,2.1,3.113,3.113,0,0,1-2.2-.8,2.52,2.52,0,0,1-.8-2.1c0-2.1,1.9-3.2,5.6-3.2h.6v-.7c0-1-.7-1.4-2-1.4s-2,.5-2.2,1.4l-1.8-.3a2.646,2.646,0,0,1,1.2-1.9,5.1,5.1,0,0,1,3-.8,8.969,8.969,0,0,1,1.8.2,2.725,2.725,0,0,1,1.2.6,5.5,5.5,0,0,1,.7.9,5.944,5.944,0,0,1,.2,1.7v4.2a4.567,4.567,0,0,0,.2,2m-2.4-4.8c-2.7,0-4.1.7-4.1,1.9a1.284,1.284,0,0,0,.4,1,1.594,1.594,0,0,0,1.2.4,2.2,2.2,0,0,0,1.8-.8,2.716,2.716,0,0,0,.6-1.7v-.8Z"/>
    <path id="Path_491" data-name="Path 491" class="cls-1" d="M155.6,381.9h-2.1v-5.8a1.955,1.955,0,0,0-.4-1.4,1.389,1.389,0,0,0-1-.5,1.746,1.746,0,0,0-1.4.7,3.4,3.4,0,0,0-.6,2.2v4.8H148v-9.3h1.9v2.2c.7-1.6,1.6-2.4,2.8-2.4a3.227,3.227,0,0,1,2.1.8,3.371,3.371,0,0,1,.9,2.7v6Z"/>
    <path id="Path_492" data-name="Path 492" class="cls-1" d="M165.7,381.9h-2.1v-5.8a1.955,1.955,0,0,0-.4-1.4,1.389,1.389,0,0,0-1-.5,1.746,1.746,0,0,0-1.4.7,3.4,3.4,0,0,0-.6,2.2v4.8h-2.1v-9.3H160v2.2c.7-1.6,1.6-2.4,2.8-2.4a3.227,3.227,0,0,1,2.1.8,3.371,3.371,0,0,1,.9,2.7v6Z"/>
    <path id="Path_493" data-name="Path 493" class="cls-1" d="M173.9,378.9l1.9.3a4.124,4.124,0,0,1-1.4,2.1,4.551,4.551,0,0,1-2.7.8,3.871,3.871,0,0,1-3.1-1.3,4.958,4.958,0,0,1-1.2-3.5,5.13,5.13,0,0,1,1.2-3.5,4.158,4.158,0,0,1,3.2-1.4,3.809,3.809,0,0,1,3.1,1.4,5.625,5.625,0,0,1,1.1,3.5v.2h-6.4a6.053,6.053,0,0,0,.2,1.5,2.286,2.286,0,0,0,.7,1,2.01,2.01,0,0,0,1.3.4,2.127,2.127,0,0,0,2.1-1.5m-.1-2.8a2.111,2.111,0,0,0-.6-1.6,2.035,2.035,0,0,0-1.5-.6,1.678,1.678,0,0,0-1.4.6,2.938,2.938,0,0,0-.7,1.7h4.2Z"/>
    <path id="Path_494" data-name="Path 494" class="cls-1" d="M179.8,381.9h-2.1v-9.3h1.9v2.2a3.825,3.825,0,0,1,1.1-1.9,2.4,2.4,0,0,1,1.5-.6h.3v2.3c-1.1,0-1.8.3-2.1,1a4.919,4.919,0,0,0-.5,2v4.3Z"/>
    <path id="Path_495" data-name="Path 495" class="cls-1" d="M182.6,379.7l2-.4c.3.8,1,1.1,2,1.1,1.3,0,2-.4,2-1.2a.864.864,0,0,0-.3-.6.908.908,0,0,0-.7-.3l-1.7-.3c-1.9-.4-2.8-1.3-2.8-2.8a2.878,2.878,0,0,1,.9-2.1,3.667,3.667,0,0,1,2.7-.9c2,0,3.2.7,3.6,2.2l-1.9.4a1.587,1.587,0,0,0-1.7-1.1c-1.1,0-1.7.4-1.7,1.1,0,.5.5.8,1.4,1l2,.4a2.474,2.474,0,0,1,2.3,2.7,2.561,2.561,0,0,1-1.2,2.3,5.4,5.4,0,0,1-5.3.2,2.476,2.476,0,0,1-1.6-1.7"/>
    <rect id="Rectangle_34" data-name="Rectangle 34" class="cls-1" width="2.3" height="12.6" transform="translate(122.5 385.8)"/>
    <path id="Path_496" data-name="Path 496" class="cls-1" d="M134.9,398.4h-2.1v-5.8a1.955,1.955,0,0,0-.4-1.4,1.389,1.389,0,0,0-1-.5,1.746,1.746,0,0,0-1.4.7,3.4,3.4,0,0,0-.6,2.2v4.8h-2.1v-9.3h1.9v2.2c.7-1.6,1.6-2.4,2.8-2.4a3.227,3.227,0,0,1,2.1.8,3.371,3.371,0,0,1,.9,2.7v6Z"/>
    <path id="Path_497" data-name="Path 497" class="cls-1" d="M136.1,396.3l2-.4c.3.8,1,1.1,2,1.1,1.3,0,2-.4,2-1.2a.864.864,0,0,0-.3-.6.908.908,0,0,0-.7-.3l-1.7-.3c-1.9-.4-2.8-1.3-2.8-2.8a2.878,2.878,0,0,1,.9-2.1,3.667,3.667,0,0,1,2.7-.9c2,0,3.2.7,3.6,2.2l-1.9.4c-.2-.7-.8-1-1.7-1-1.1,0-1.7.3-1.7,1,0,.5.5.8,1.4,1l2,.4a2.474,2.474,0,0,1,2.3,2.7,2.561,2.561,0,0,1-1.2,2.3,5.117,5.117,0,0,1-2.8.8,4.871,4.871,0,0,1-2.5-.6,2.457,2.457,0,0,1-1.6-1.7"/>
    <path id="Path_498" data-name="Path 498" class="cls-1" d="M149.9,396.8v1.6a10.4,10.4,0,0,1-1.5.2,3.34,3.34,0,0,1-1.5-.3,1.962,1.962,0,0,1-.9-.9,4.178,4.178,0,0,1-.3-1.8v-4.8h-1.2v-1.6h1.3l.2-2.4,1.7-.2v2.6h1.9v1.6h-1.9v4.5a1.2,1.2,0,0,0,1.5,1.5h.7"/>
    <path id="Path_499" data-name="Path 499" class="cls-1" d="M153.6,388h-2.1v-2.2h2.1Zm0,10.4h-2.1v-9.3h2.1Z"/>
    <path id="Path_500" data-name="Path 500" class="cls-1" d="M160.2,396.8v1.6a10.4,10.4,0,0,1-1.5.2,3.34,3.34,0,0,1-1.5-.3,1.962,1.962,0,0,1-.9-.9,4.178,4.178,0,0,1-.3-1.8v-4.8h-1v-1.6h1.3l.2-2.4,1.7-.2v2.6h1.9v1.6h-1.9v4.5a1.2,1.2,0,0,0,1.5,1.5h.5"/>
    <path id="Path_501" data-name="Path 501" class="cls-1" d="M169.5,398.4h-2v-2a2.863,2.863,0,0,1-2.9,2.2,2.792,2.792,0,0,1-2-.8,3.069,3.069,0,0,1-.7-2.2v-6.5H164v6.1c0,.7.1,1.1.4,1.3a1.613,1.613,0,0,0,.9.3,2.161,2.161,0,0,0,1.4-.6c.5-.4.7-1.3.7-2.6v-4.5h2.1Z"/>
    <path id="Path_502" data-name="Path 502" class="cls-1" d="M176.1,396.8v1.6a10.4,10.4,0,0,1-1.5.2,3.653,3.653,0,0,1-1.5-.3,1.962,1.962,0,0,1-.9-.9,4.178,4.178,0,0,1-.3-1.8v-4.8h-1.2v-1.6H172l.2-2.4,1.7-.2v2.6h1.9v1.6h-1.9v4.5a1.2,1.2,0,0,0,1.5,1.5h.7"/>
    <path id="Path_503" data-name="Path 503" class="cls-1" d="M183.6,395.4l1.9.3a4.124,4.124,0,0,1-1.4,2.1,4.551,4.551,0,0,1-2.7.8,3.871,3.871,0,0,1-3.1-1.3,4.958,4.958,0,0,1-1.2-3.5,5.13,5.13,0,0,1,1.2-3.5,4.158,4.158,0,0,1,3.2-1.4,3.809,3.809,0,0,1,3.1,1.4,5.625,5.625,0,0,1,1.1,3.5v.2h-6.4a6.053,6.053,0,0,0,.2,1.5,2.286,2.286,0,0,0,.7,1,2.01,2.01,0,0,0,1.3.4,1.975,1.975,0,0,0,2.1-1.5m-.1-2.8a2.111,2.111,0,0,0-.6-1.6,2.035,2.035,0,0,0-1.5-.6,1.678,1.678,0,0,0-1.4.6,2.938,2.938,0,0,0-.7,1.7h4.2Z"/>
  </g>
</svg>
